<svg width="16" height="18" viewBox="0 0 16 18" fill="none" xmlns="http://www.w3.org/2000/svg">
<path d="M13.4444 8H2.55556C1.69645 8 1 8.69645 1 9.55556V15C1 15.8591 1.69645 16.5556 2.55556 16.5556H13.4444C14.3036 16.5556 15 15.8591 15 15V9.55556C15 8.69645 14.3036 8 13.4444 8Z" stroke="#333333" stroke-linecap="round" stroke-linejoin="round"/>
<path d="M4.11133 8V4.88889C4.11133 3.85749 4.52105 2.86834 5.25036 2.13903C5.97967 1.40972 6.96882 1 8.00022 1C9.03161 1 10.0208 1.40972 10.7501 2.13903C11.4794 2.86834 11.8891 3.85749 11.8891 4.88889V8" stroke="#333333" stroke-linecap="round" stroke-linejoin="round"/>
</svg>
