<svg width="90" height="99" viewBox="0 0 90 99" fill="none" xmlns="http://www.w3.org/2000/svg">
<path d="M24.4165 53.0443L25.2477 51.2814L24.7185 51.0398L23.5881 52.4918L23.7239 53.1248L24.4165 53.0443ZM28.539 53.5219L28.5695 51.8005L27.9711 51.7256L27.5527 53.3664L27.9434 53.8883L28.539 53.5219ZM61.9597 53.8855L62.3475 53.3636L61.9264 51.7228L61.3252 51.7978L61.3612 53.5191L61.9597 53.8855ZM66.1736 53.1248L66.3149 52.4918L65.1845 51.0398L64.6637 51.2814L65.4754 53.0443L66.1736 53.1248ZM68.7613 50.4207L68.5618 49.796L66.772 49.0548L66.495 49.61L68.1019 50.7205L68.7613 50.4207ZM20.9783 42.3499L21.1251 43.0385L22.9481 43.6965L23.2252 43.1717L21.5934 42.1528L20.9783 42.3499ZM22.6406 46.1091L20.729 45.8592L20.2275 46.2951L20.6458 46.8504L22.5852 46.6977L22.6406 46.1091ZM21.4465 49.7933L21.247 50.4179L21.8815 50.6956L23.4828 49.585L23.2224 49.0298L21.4465 49.7933ZM68.8776 43.0329L69.0217 42.3444L68.3983 42.1473L66.772 43.1717L67.0491 43.6965L68.8776 43.0329ZM89.9335 43.8186C89.3447 43.513 88.7215 43.279 88.0773 43.1218C87.3526 42.9909 86.6163 42.936 85.8803 42.958C86.3834 42.7773 86.8701 42.5535 87.3348 42.2889C89.7119 40.8424 90 38.0939 90 38.0939C90 38.0939 88.5898 37.955 87.8002 37.9634C86.9095 37.9566 86.0197 38.0253 85.1405 38.1688C85.9625 37.8177 86.7065 37.3062 87.3292 36.6641C89.1744 34.8622 88.889 32.2442 88.889 32.2442C88.3257 32.084 87.7365 32.0359 87.1547 32.1026C86.282 32.1775 85.9717 32.2775 85.5589 32.5023C87.1547 30.7005 87.368 29.59 87.5426 28.3906C87.8196 26.5749 87.1713 25.27 87.0217 25.1784C86.3443 25.3807 85.7154 25.7199 85.1738 26.1751C83.9852 27.0885 82.3201 28.6322 82.3201 28.6322C82.6864 28.1737 82.9971 27.6732 83.2455 27.1413C85.3151 22.9157 85.0768 19.5841 84.5282 18.5902C83.9354 17.4936 82.7856 17.4297 82.2564 18.2321C81.8547 18.829 80.6745 21.3832 79.7103 23.2072C78.4713 25.5508 77.0288 27.7804 75.3994 29.8704C74.9478 28.907 74.5101 29.5928 74.5101 29.5928C74.5101 29.5928 73.8369 30.7311 73.086 31.9804C72.5018 32.9208 71.7883 33.7741 70.9666 34.5152C70.5891 34.0468 70.117 33.6636 69.5813 33.3908L69.3708 33.6018C69.3708 33.6018 64.4337 38.7741 62.9127 40.7758C61.3917 42.7775 62.5304 43.7409 63.6386 45.3761C64.7468 47.0114 64.2647 48.9076 61.9763 49.8182C60.0037 50.5956 58.624 49.8849 58.0671 48.9187C59.5189 48.3163 60.9845 46.8476 60.9928 44.8292C60.9927 44.4766 60.9565 44.1249 60.8847 43.7798C60.7078 42.7886 60.1859 41.8923 59.4119 41.2503C58.6378 40.6083 57.6617 40.2621 56.6569 40.2733C55.9364 40.2768 55.2254 40.4379 54.5735 40.7452C54.2223 40.9082 53.8966 41.1214 53.6066 41.3782C53.6066 41.3782 53.529 41.4421 53.4182 41.542C52.4901 39.8429 52.5566 38.5186 53.6952 36.3198C54.4529 34.885 55.6072 33.6994 57.0199 32.9049L57.4908 33.288C57.4908 33.288 57.4908 33.1159 58.4938 32.6523C59.4967 32.1886 60.5606 32.3163 61.3612 33.2436C61.8002 33.7956 62.0377 34.4813 62.0345 35.187C62.4315 34.8264 62.7357 34.3749 62.921 33.8711C63.0461 33.4461 63.0246 32.9913 62.8601 32.5801C62.8601 32.5801 63.6912 32.8938 64.5778 33.2631C65.409 33.5962 66.8801 34.1265 68.1795 32.9854C68.5611 32.6458 68.8561 32.2196 69.0397 31.7424C69.2234 31.2652 69.2903 30.7509 69.235 30.2424C68.7008 30.9902 67.9005 31.504 66.9992 31.6778C65.891 31.8943 64.6886 31.2558 63.7965 30.8727C63.1311 30.6148 62.4401 30.4286 61.7353 30.3174C61.7353 30.3174 62.7881 29.4206 64.611 29.9759C65.952 30.3868 66.1154 30.9087 66.1154 30.9087C66.6141 30.5026 67.006 29.9802 67.2569 29.3873C67.7196 28.2935 67.4231 27.3217 66.6252 26.5583C65.8273 25.7948 64.2786 25.3894 64.2786 25.3894C64.2786 25.3894 64.5556 24.9758 64.0015 24.8008C63.5305 24.6426 63.054 24.5232 63.054 24.5232C63.1562 24.1583 63.1217 23.7685 62.9568 23.4274C62.792 23.0862 62.5082 22.8173 62.1591 22.6714C60.0868 21.7302 56.7788 23.4738 53.1827 23.9874C50.753 24.3316 49.7223 23.5904 49.7223 23.5904C49.8656 23.9895 50.0956 24.3517 50.3956 24.6509C50.8518 25.1544 51.3882 25.5784 51.9831 25.9058C51.5499 25.9764 51.1094 25.9904 50.6726 25.9475C50.088 25.867 49.038 25.6115 49.038 25.6115C49.2986 26.0036 49.627 26.3458 50.0077 26.6221C50.4157 26.9188 50.8519 27.1745 51.3098 27.3856C50.5197 27.7777 49.7043 28.1162 48.869 28.399C47.7608 28.7377 45.9184 28.7765 45.9184 28.7765C46.343 29.175 46.8382 29.4904 47.3785 29.7066C47.7851 29.8795 48.2098 30.0061 48.6446 30.0842C48.0456 30.8984 47.512 31.759 47.0488 32.6578C46.4587 33.7683 45.5416 35.895 45.0346 37.0749C44.5359 35.8978 43.6134 33.7739 43.0316 32.6578C42.5676 31.7583 42.0321 30.8976 41.4302 30.0842C41.8641 30.0062 42.2879 29.8795 42.6935 29.7066C43.2385 29.4932 43.7379 29.1776 44.1647 28.7765C44.1647 28.7765 42.3168 28.7377 41.2196 28.399C40.3877 28.1135 39.576 27.7722 38.7899 27.3773C39.2466 27.1671 39.681 26.9113 40.0865 26.6138C40.4691 26.3397 40.7979 25.9971 41.0562 25.6032C41.0562 25.6032 40.0062 25.8586 39.416 25.9391C38.9811 25.9822 38.5424 25.9682 38.1111 25.8975C38.7052 25.5689 39.2414 25.145 39.6986 24.6426C39.9958 24.3422 40.2237 23.9802 40.3663 23.582C40.3663 23.582 39.3329 24.3233 36.9087 23.9791C33.3071 23.4654 30.0074 21.7219 27.9295 22.6631C27.5818 22.8105 27.2997 23.0799 27.136 23.4207C26.9723 23.7616 26.9382 24.1506 27.0402 24.5149C27.0402 24.5149 26.5609 24.6426 26.0899 24.7925C25.5358 24.9674 25.8128 25.3811 25.8128 25.3811C25.8128 25.3811 24.2309 25.8198 23.4524 26.5694C22.6738 27.319 22.3442 28.3046 22.8207 29.3984C23.0679 29.9919 23.4582 30.5147 23.9566 30.9198C23.9566 30.9198 24.1201 30.3979 25.461 29.987C27.284 29.4317 28.3395 30.3285 28.3395 30.3285C27.633 30.44 26.9402 30.6261 26.2727 30.8838C25.3862 31.2669 24.1865 31.9054 23.0728 31.6889C22.1725 31.5147 21.3732 31.0009 20.8398 30.2535C20.785 30.7617 20.852 31.2756 21.0351 31.7526C21.2182 32.2297 21.5121 32.6561 21.8926 32.9965C23.2002 34.132 24.6631 33.6018 25.4942 33.2742C26.3919 32.9049 27.2092 32.5912 27.2092 32.5912C27.0486 32.9996 27.0291 33.4502 27.1538 33.8711C27.3371 34.3737 27.6406 34.8236 28.0376 35.1815C28.0301 34.4755 28.2671 33.7887 28.708 33.2381C29.0436 32.8184 29.515 32.5296 30.0407 32.4216C30.5665 32.3136 31.1133 32.3932 31.5866 32.6467C32.5923 33.1104 32.5923 33.2825 32.5923 33.2825L33.0577 32.8994C34.4696 33.6948 35.6236 34.8802 36.3823 36.3142C37.5238 38.5214 37.6291 39.7846 36.6843 41.4921C36.6594 41.4726 36.6151 41.4227 36.5929 41.406C36.2265 41.1366 35.8282 40.9137 35.4071 40.7425C34.7521 40.4356 34.0385 40.2746 33.3154 40.2705C32.3113 40.2578 31.3353 40.6032 30.5619 41.245C29.7884 41.8868 29.2679 42.7832 29.0931 43.7742C29.0186 44.1209 28.9814 44.4746 28.9823 44.8292C28.9832 45.7334 29.267 46.6146 29.7938 47.3487C30.3206 48.0828 31.0639 48.6329 31.919 48.9215C31.3649 49.8904 29.9797 50.5873 28.0043 49.8182C25.7159 48.9132 25.2338 47.0142 26.342 45.3761C27.4502 43.7381 28.5889 42.7775 27.0651 40.7758C25.5413 38.7741 20.6154 33.5934 20.6154 33.5934L20.4048 33.3824C19.8702 33.6569 19.3985 34.0398 19.0195 34.5069C18.2004 33.7683 17.4879 32.9189 16.9029 31.9832C16.1576 30.7338 15.4816 29.5955 15.4816 29.5955C15.4816 29.5955 15.0466 28.9181 14.5923 29.8732C12.9653 27.7815 11.5229 25.5521 10.2814 23.21C9.32276 21.3776 8.14253 18.829 7.73803 18.2349C7.2061 17.4325 6.0591 17.4908 5.46899 18.6013C4.91488 19.598 4.68493 22.9268 6.7545 27.1524C7.00054 27.6844 7.30934 28.1849 7.67431 28.6433C7.67431 28.6433 6.01201 27.1024 4.83177 26.1862C4.28763 25.7317 3.65707 25.3926 2.9783 25.1895C2.82869 25.2811 2.19147 26.5777 2.45467 28.4017C2.63198 29.6011 2.83977 30.7116 4.44113 32.5135C4.02832 32.2886 3.71525 32.1886 2.83977 32.1137C2.25797 32.0474 1.66886 32.0955 1.10543 32.2553C1.10543 32.2553 0.828382 34.8761 2.67077 36.6752C3.29038 37.3184 4.03284 37.8302 4.85393 38.1799C3.97663 38.0361 3.08871 37.9674 2.19978 37.9745C1.41019 37.9745 0 38.105 0 38.105C0 38.105 0.277051 40.8535 2.668 42.3C3.13084 42.5645 3.61564 42.7883 4.11698 42.9691C3.38188 42.9474 2.64651 43.0023 1.92273 43.1329C1.27935 43.2901 0.65709 43.5241 0.0692627 43.8297C0.0692627 43.8297 1.01678 46.3284 3.43543 47.2057C3.81621 47.3779 4.21755 47.5001 4.62952 47.5694C3.89883 47.7559 3.19016 48.0202 2.51562 48.3579C1.97578 48.6468 1.47098 48.997 1.01124 49.4018C1.01124 49.4018 2.24411 51.6756 4.52147 52.0837C4.54086 52.0837 4.72372 52.117 4.89549 52.1587C4.2982 52.5427 3.74125 52.9864 3.23318 53.483C2.7914 53.9745 2.41089 54.518 2.10005 55.1016C2.10005 55.1016 4.00893 57.095 6.76835 56.7674C6.51266 57.0557 6.28794 57.3703 6.09789 57.7058C5.72034 58.3971 5.46448 59.1484 5.34154 59.9268C5.34154 59.9268 7.42774 61.0373 9.75496 60.3072C9.60895 60.5775 9.49372 60.8634 9.41142 61.1595C9.26569 61.9259 9.18506 62.7033 9.17039 63.4833C9.17039 63.4833 11.6943 64.2329 13.8803 62.6254C13.711 63.0333 13.6117 63.467 13.5866 63.9081C13.5615 64.6865 13.6013 65.4656 13.7057 66.2374C13.7057 66.2374 16.443 66.5594 18.3713 64.5549L18.5236 64.3911C18.4934 64.6249 18.4823 64.8607 18.4904 65.0963C18.5755 65.8704 18.7266 66.6357 18.942 67.384C18.942 67.384 21.6959 67.3118 23.3166 65.0436C23.4658 64.8422 23.601 64.6307 23.7211 64.4106C23.7434 64.9447 23.8452 65.4725 24.0231 65.9764C24.2313 66.5139 24.496 67.0276 24.8127 67.5089C24.8127 67.5089 27.0817 66.8093 27.9073 64.5522C28.2677 63.4304 28.4436 62.2573 28.4282 61.079C28.564 61.2206 28.6526 61.3011 28.6526 61.3011C29.2158 61.1124 29.7226 60.785 30.1265 60.3488C29.5641 62.2589 29.2676 64.2377 29.2455 66.2291C29.2455 66.7343 29.2677 67.248 29.3148 67.7671C29.353 68.6404 29.502 69.5052 29.758 70.3408C29.5288 70.7704 29.2666 71.1816 28.974 71.5707C28.7435 71.7963 28.5636 72.0684 28.4461 72.369C28.3285 72.6696 28.2762 72.9918 28.2924 73.3142C28.3139 73.5227 28.4044 73.718 28.5495 73.869C28.6946 74.0199 28.886 74.1178 29.0931 74.1471C29.0931 74.1471 29.01 74.98 29.3009 75.3854C29.528 75.6786 29.844 75.8901 30.2013 75.9878L30.8524 76.1461C30.8524 76.1461 30.9826 77.0845 31.3012 77.3038C31.7252 77.5424 32.1763 77.7288 32.6449 77.8591C32.8804 77.9396 33.3098 78.245 33.5897 78.3782C34.0246 78.5864 34.6452 78.4948 35.2326 78.1783C35.6177 77.959 35.6869 77.3649 35.6675 77.2149C35.8587 77.301 35.8892 77.3066 36.0693 77.3787C36.6926 77.6258 37.1775 77.8979 37.1969 78.0062C37.4905 78.4893 37.6651 79.6942 37.7925 80.541C37.8562 80.9102 37.8147 81.4155 38.0696 81.9291L38.1444 82.0485L37.9449 82.1235C37.1571 82.3958 36.4111 82.7771 35.7285 83.2562C34.9334 83.8254 33.972 85.3745 32.7557 85.6633C31.6891 85.9159 30.8995 85.4245 30.8164 84.7582C30.7631 84.426 30.7399 84.0896 30.7471 83.7532C30.7471 83.7532 29.2871 84.6166 29.1762 85.6633C29.136 86.0529 29.2142 86.4457 29.4006 86.79C29.587 87.1343 29.8728 87.4141 30.2207 87.5928C30.2207 87.5928 28.2814 89.4585 28.8881 91.0715C29.4117 92.4597 29.7719 93.0538 29.8633 93.5702C29.9265 93.8644 29.8771 94.1716 29.7248 94.4309C29.7248 94.4309 30.7 94.5447 30.9244 93.2093C31.0713 92.3764 31.2874 91.9766 31.4785 91.7379C31.573 91.6367 31.6448 91.5165 31.6891 91.3853C31.6468 92.0919 31.7141 92.8009 31.8886 93.4869C32.1656 94.392 33.2073 95.2832 34.6591 95.4081C35.5466 95.4379 36.4244 95.2155 37.1913 94.7668C37.1913 94.7668 38.2995 96.2633 39.8372 96.477C40.8707 96.6289 41.9254 96.5337 42.9152 96.1994C43.1551 96.6314 43.4235 97.047 43.7186 97.4432C43.9963 97.7972 44.3112 98.1201 44.6578 98.4066L45.151 98.6842C45.151 98.6842 45.7328 98.1289 46.1179 97.6459C46.4691 97.1238 46.7776 96.5741 47.0405 96.0023C47.0405 96.0023 48.772 96.6381 50.2958 96.3105C51.2539 96.0756 52.1355 95.5975 52.8558 94.9223C53.1753 95.2289 53.5538 95.4671 53.9682 95.6222C54.3826 95.7774 54.8243 95.8462 55.2661 95.8246C56.7345 95.7302 57.7901 94.4003 58.0754 93.4925C58.2512 92.8257 58.3074 92.1329 58.2416 91.4464C58.2416 91.4464 58.3386 91.5213 58.5824 91.724C58.8262 91.9267 59.0035 92.021 59.1753 93.0011C59.4247 94.3337 60.1339 94.4059 60.1339 94.4059C60.1065 93.9494 60.1764 93.4923 60.3389 93.0649C60.5439 92.5708 60.9734 92.0099 61.2947 90.7745C61.4713 90.177 61.4336 89.5364 61.1881 88.9639C60.9427 88.3914 60.505 87.923 59.9511 87.64C59.9511 87.64 61.026 87.0403 60.9346 85.8493C60.821 84.3029 59.1781 83.7671 59.1781 83.7671C59.1781 83.7671 59.3111 83.9364 59.2113 84.6C59.1116 85.2635 58.4688 85.9465 57.1916 85.5855C56.5101 85.3912 55.2827 83.8864 54.4876 83.3228C53.7215 82.8235 52.9131 82.3924 52.0717 82.0346C52.0159 82.009 51.9585 81.9867 51.9 81.968L51.9304 81.9208C52.1853 81.4127 52.1438 80.9074 52.2075 80.5326C52.2929 79.7479 52.4543 78.9734 52.6895 78.22C52.8253 77.8757 53.3212 77.612 53.9418 77.3704C54.1191 77.2982 54.1385 77.2927 54.3352 77.2066C54.3158 77.3565 54.3879 77.9534 54.7785 78.17C55.3631 78.4865 55.9754 78.5781 56.4187 78.3699C56.6957 78.2366 57.1251 77.9312 57.3579 77.8507C57.8288 77.7196 58.2826 77.5332 58.7099 77.2955C59.0229 77.0789 59.1531 76.1377 59.1531 76.1377L59.807 75.9795C60.1638 75.8806 60.4788 75.6682 60.7046 75.3742C60.9983 74.9828 60.9124 74.136 60.9124 74.136C61.1202 74.1078 61.3125 74.0102 61.4582 73.8591C61.604 73.7081 61.6947 73.5122 61.7159 73.3031C61.7314 72.9805 61.6785 72.6583 61.5605 72.3577C61.4425 72.0572 61.2622 71.7851 61.0316 71.5596C60.7386 71.1707 60.4764 70.7595 60.2475 70.3297C60.5024 69.4938 60.6513 68.6292 60.6908 67.756C60.7323 67.2369 60.7573 66.7232 60.7573 66.2179C60.7368 64.2264 60.4403 62.2474 59.8762 60.3377C60.2809 60.773 60.7875 61.1003 61.3502 61.29C61.3502 61.29 61.4416 61.2067 61.5773 61.0679C61.5658 62.2405 61.7417 63.4074 62.0982 64.5244C62.9294 66.7843 65.1929 67.4812 65.1929 67.4812C65.5107 66.9996 65.7772 66.4859 65.988 65.9486C66.164 65.4445 66.263 64.9166 66.2817 64.3828C66.4034 64.601 66.5385 64.8115 66.6862 65.013C68.3069 67.2813 71.0636 67.3535 71.0636 67.3535C71.2758 66.6047 71.425 65.8395 71.5096 65.0658C71.5197 64.8302 71.5086 64.5942 71.4764 64.3606L71.6343 64.5244C73.5736 66.5317 76.2998 66.2068 76.2998 66.2068C76.4038 65.4351 76.4418 64.6558 76.4134 63.8775C76.3921 63.4359 76.2927 63.0016 76.1197 62.5949C78.3362 64.2023 80.8462 63.4527 80.8462 63.4527C80.8318 62.6727 80.7512 61.8953 80.6052 61.129C80.5222 60.8339 80.4089 60.5483 80.2672 60.2766C82.5861 61.0207 84.6723 59.8963 84.6723 59.8963C84.5481 59.1182 84.2924 58.3671 83.916 57.6752C83.7243 57.3402 83.4977 57.0266 83.24 56.7396C86.0105 57.0589 87.911 55.0738 87.911 55.0738C87.5997 54.4913 87.2202 53.9479 86.7807 53.4552C86.2719 52.9594 85.7151 52.5158 85.1184 52.1309C85.2929 52.092 85.4758 52.0587 85.4924 52.056C87.7642 51.6478 89.0026 49.374 89.0026 49.374C88.5423 48.9687 88.0365 48.6184 87.4955 48.3301C86.8223 47.9938 86.1156 47.7295 85.3871 47.5417C85.7974 47.4726 86.1969 47.3504 86.5757 47.178C88.9971 46.3006 89.9446 43.802 89.9446 43.802L89.9335 43.8186ZM86.897 38.7324C87.5076 38.7206 88.1178 38.7737 88.7173 38.8907C87.7614 40.0428 86.6975 40.9562 83.8328 41.8252C80.101 42.9357 77.879 42.7969 77.059 42.8802C78.9789 41.617 79.4582 40.8396 79.4582 40.8396C79.4582 40.8396 79.4277 40.6731 78.7323 40.4093C79.3751 40.2372 80.6329 39.9207 81.5721 39.6153C82.2149 39.3987 82.6166 39.2571 83.3203 38.9517C83.5974 38.9184 85.6808 38.7324 86.897 38.7324ZM65.0626 55.2765C65.2937 55.9621 65.5858 56.6255 65.9353 57.2588C65.873 57.6266 65.7493 57.9814 65.5696 58.3082C65.401 58.6125 65.1785 58.8834 64.913 59.1078C64.5386 59.006 64.1892 58.828 63.8865 58.5849C63.5838 58.3417 63.3344 58.0387 63.1538 57.6947C62.7465 56.9173 62.7631 56.0039 62.7465 55.4736C62.9598 55.2904 63.187 55.0849 63.3422 54.9378C63.5964 54.6489 63.7938 54.3145 63.924 53.9522C64.2156 54.1563 64.5398 54.3093 64.8826 54.4047C64.913 54.6129 64.9768 54.9128 65.0626 55.2543C65.0617 55.2617 65.0617 55.2691 65.0626 55.2765ZM65.7331 54.6879C66.0702 54.8191 66.4251 54.8986 66.7859 54.9239C66.9217 54.8045 67.171 54.4825 67.2513 54.3936C67.5589 54.6712 67.7306 55.1044 69.3597 56.1066C69.4059 56.5388 69.4003 56.975 69.3431 57.4059C69.3067 57.7574 69.2391 58.1049 69.1408 58.4443C68.4027 58.2651 67.7303 57.8801 67.2015 57.3337C66.4927 56.5903 65.9894 55.6745 65.7414 54.6768L65.7331 54.6879ZM67.8248 53.8633C67.8836 53.7822 67.9364 53.6968 67.9828 53.6079C68.2157 53.1417 68.3362 52.6273 68.3346 52.1059C68.3346 52.1059 70.2269 53.2831 71.8504 53.7106C71.9823 54.0718 72.0842 54.4432 72.1552 54.8212C72.2349 55.1765 72.274 55.5397 72.2715 55.9039C71.4262 55.8027 70.6023 55.5675 69.8307 55.2071C69.0766 54.8981 68.3945 54.4358 67.8276 53.8495L67.8248 53.8633ZM70.9278 52.3225C70.612 52.2003 70.0246 51.9199 69.7919 51.8144C70.2972 51.6421 70.7529 51.3486 71.119 50.9593C71.0936 50.8175 71.0357 50.6835 70.95 50.5678C71.6495 50.7439 72.3715 50.8132 73.0916 50.7733L73.3686 50.79C73.5376 50.9538 74.2663 51.2647 74.7539 51.7783C75.1338 52.1397 75.4111 52.5958 75.5573 53.0998C74.463 53.0638 72.7342 53.0221 70.9361 52.3225H70.9278ZM73.0611 49.6378C72.1637 49.6139 71.2687 49.5314 70.382 49.3907C70.2021 49.1515 69.9937 48.9352 69.7614 48.7466C70.0935 48.5578 70.3967 48.3222 70.6618 48.047C71.6066 48.0914 73.6762 48.1358 75.3717 47.5361C75.4521 47.5056 75.5324 47.4806 75.6127 47.4445C75.8482 47.5417 76.1669 47.6805 76.5409 47.8554C77.0479 48.0712 77.4934 48.4099 77.8375 48.841C77.2667 49.1658 74.9728 49.6739 73.0472 49.6378H73.0611ZM73.5792 46.8309C72.6483 46.9309 71.7202 46.9614 71.3628 46.8559C71.4928 46.6326 71.6014 46.3974 71.6869 46.1535C71.5872 45.8453 71.227 45.5011 70.5566 44.9625L70.4042 44.8431C71.7355 44.7068 73.055 44.4729 74.3522 44.1434C74.8934 44.2067 75.421 44.3567 75.9147 44.5877C77.1144 45.0458 77.4718 45.4372 77.6131 45.5927C76.3455 46.2656 74.9665 46.7021 73.5432 46.8809L73.5792 46.8309ZM74.0973 43.0218C71.8532 43.6326 70.72 43.677 70.2186 43.677C70.5444 43.2746 70.789 42.8126 70.9389 42.3166C71.7396 42.0223 73.6928 41.2561 75.1085 40.2511C75.3856 40.2511 75.8372 40.2705 76.4938 40.3288C77.1613 40.3525 77.8101 40.5558 78.3722 40.9174C77.6546 41.7503 75.9729 42.5137 74.1084 43.019L74.0973 43.0218ZM86.5313 32.8772C87.5398 32.7439 87.9526 32.8772 88.0883 32.9049C87.5342 33.9127 86.1185 35.5674 82.9546 37.3082C79.968 38.9462 78.1976 39.5847 77.4551 39.8374C76.9186 39.7369 76.3746 39.6811 75.8288 39.6708C76.3518 39.1748 76.8166 38.6205 77.2141 38.0189C78.3223 37.5913 81.8713 36.1365 84.592 33.4463C84.628 33.413 84.7 33.3602 84.736 33.3269C85.3148 33.1189 85.9124 32.9673 86.5202 32.8744L86.5313 32.8772ZM75.7153 30.57C76.7424 29.3202 77.6971 28.0123 78.5744 26.6526C79.8516 24.6454 81.4973 21.1528 82.5612 18.9928C83.0682 17.9656 84.1071 18.4014 84.1265 19.9617C84.1459 22.2411 82.4033 25.953 80.9488 27.802C78.0563 31.4668 76.6905 32.2914 75.5684 33.0521C75.8284 32.258 75.8856 31.4113 75.7346 30.5895L75.7153 30.57ZM80.5055 30.931C81.1593 30.2896 83.7497 28.3434 85.376 26.8553C85.8084 26.4602 86.299 26.1343 86.8305 25.8892C87.0189 27.0941 86.3208 28.7238 85.7002 29.7427C84.7605 31.1845 83.5663 32.4424 82.1761 33.4546C78.7822 35.87 78.5162 35.8867 77.9594 36.1504C76.8019 35.7815 75.5576 35.7893 74.4048 36.1726C74.4901 36.0776 74.5552 35.9661 74.596 35.845C76.72 34.3964 78.699 32.7451 80.5055 30.9143V30.931ZM72.9226 33.3158C73.4789 32.5466 73.978 31.7374 74.4159 30.8949C74.8342 30.1008 75.247 30.2591 75.2221 31.0781C75.1999 32.5468 74.463 34.071 73.4988 35.2981C72.9208 36.0602 72.1844 36.6873 71.3406 37.136C71.4431 36.8584 71.6703 35.7951 71.2714 34.9816C71.9035 34.5105 72.4636 33.9493 72.9337 33.3158H72.9226ZM73.8202 36.925C74.0973 36.8556 74.5433 36.7557 75.236 36.6474C75.9395 36.5111 76.6662 36.557 77.3471 36.7807C76.1622 37.8816 74.8617 38.8507 73.4684 39.6708C72.4325 40.2656 71.3568 40.7879 70.249 41.2339C69.7612 41.0147 69.2426 40.8724 68.7114 40.8119C68.7114 40.8119 69.1353 40.3732 69.9221 39.6125C71.4219 39.0386 72.7604 38.1088 73.823 36.9028L73.8202 36.925ZM59.1947 50.7539C61.9929 51.3091 63.9489 49.8405 64.6277 48.68C65.3064 47.5195 65.1818 46.1979 64.0126 44.5405C62.8435 42.883 62.1647 42.4804 65.3729 38.9517C68.5812 35.423 69.8058 34.4597 69.8058 34.4597C69.8058 34.4597 71.0303 34.8928 70.8724 36.6307C70.7727 37.7413 68.8749 39.6569 68.3041 40.2622C67.7334 40.8674 67.2126 41.3893 67.2126 41.3893C67.8319 41.3799 68.4507 41.4301 69.0605 41.5393C69.4756 41.5988 69.8733 41.7464 70.2269 41.9724C70.2269 41.9724 69.9803 43.0468 69.6118 43.4716C69.2433 43.8964 68.6311 44.5627 68.6311 44.5627C69.1494 44.7709 69.6282 45.0667 70.0468 45.4372C70.3434 45.714 70.6125 46.019 70.8502 46.3478C70.656 46.8845 70.3435 47.3704 69.936 47.7693C69.4765 48.1238 68.9892 48.4404 68.4787 48.716C68.9543 49.033 69.3841 49.4142 69.7559 49.8488C69.9617 50.1061 70.1109 50.4041 70.1936 50.7233C69.8304 50.9944 69.4251 51.2035 68.994 51.3424C68.6974 51.4295 68.3913 51.4799 68.0825 51.4924C67.9248 51.5031 67.7665 51.5031 67.6087 51.4924C67.632 52.0238 67.5559 52.5549 67.3843 53.0582C67.1874 53.4604 66.8942 53.8075 66.531 54.0688C65.9818 54.023 65.4408 53.9064 64.9213 53.7217C64.5063 53.4973 64.1162 53.2293 63.7577 52.9222C63.5252 53.3866 63.2467 53.8266 62.9266 54.2354C62.6884 54.4627 62.4152 54.6502 62.1176 54.7906C61.7439 54.6275 61.3803 54.4421 61.0288 54.2354C60.7492 54.0468 60.4851 53.8361 60.2392 53.6051L58.5159 54.8156C58.5159 54.8156 57.7873 54.5519 56.8148 52.8222L56.765 52.7139C56.228 51.6601 55.7947 50.5564 55.4711 49.4185C56.427 50.0459 58.3054 50.5845 59.1836 50.7566L59.1947 50.7539ZM56.7373 41.2727C59.0312 41.3255 60.893 44.0241 59.6131 46.3701C58.3331 48.716 55.9504 48.4329 55.4573 47.7082C55.2184 47.3523 55.1214 46.9196 55.1855 46.4955C55.2496 46.0713 55.4702 45.6868 55.8036 45.4178C56.4935 44.9208 57.5546 45.4428 57.5546 45.4428L57.4964 45.3623C57.4964 45.3623 56.4796 43.8464 55.0029 45.1735C54.8198 45.3223 54.6716 45.5095 54.5686 45.7221C54.4657 45.9346 54.4106 46.1672 54.4073 46.4034H51.7476C51.7642 46.1656 51.8012 45.9296 51.8584 45.6982C52.3294 43.0551 54.4488 41.22 56.729 41.2727H56.7373ZM41.9427 41.7864C41.9429 41.6129 41.9902 41.4427 42.0796 41.2941C42.169 41.1455 42.2971 41.0241 42.4501 40.943C42.6032 40.8619 42.7754 40.824 42.9483 40.8336C43.1212 40.8431 43.2882 40.8997 43.4314 40.9972C43.5746 41.0947 43.6886 41.2295 43.7612 41.387C43.8337 41.5446 43.8621 41.7189 43.8432 41.8914C43.8243 42.0639 43.7589 42.2279 43.6539 42.3659C43.549 42.5039 43.4086 42.6107 43.2477 42.6748V46.4061H42.5135V42.6637C42.3449 42.5878 42.2015 42.4651 42.1004 42.3101C41.9992 42.1551 41.9445 41.9743 41.9427 41.7891V41.7864ZM43.605 40.1678C43.1956 39.9751 42.727 39.9511 42.3001 40.1011C42.0235 40.1923 41.7736 40.3505 41.5725 40.5617C41.3715 40.7728 41.2255 41.0304 41.1476 41.3116C41.0074 41.2802 40.8645 41.2625 40.7209 41.2589C40.4805 41.2579 40.2424 41.3067 40.0217 41.4022C39.801 41.4978 39.6023 41.638 39.4382 41.8141C39.2678 41.9904 39.1357 42.2001 39.0503 42.4302C38.9649 42.6602 38.9281 42.9055 38.9422 43.1505C38.9562 43.3955 39.0209 43.6349 39.132 43.8536C39.2431 44.0723 39.3983 44.2656 39.5878 44.4211V45.5122H38.9672C38.7918 44.6342 38.4575 43.7958 37.9809 43.0385C38.7461 42.1386 39.332 41.1 39.7069 39.979C39.9877 39.1016 40.1817 38.1986 40.286 37.2832C40.4467 37.4886 40.624 37.7385 40.7874 37.9884C41.0307 38.3723 41.2482 38.7721 41.4385 39.1849L41.7627 39.8985L42.0397 39.1627C42.2413 38.5791 42.396 37.9803 42.5024 37.372C42.5744 36.9639 42.6243 36.5974 42.6603 36.3004C42.9468 36.6514 43.2079 37.0225 43.4416 37.4109C43.7217 37.8981 43.9608 38.408 44.1564 38.9351C44.2146 39.0961 44.2866 39.346 44.3337 39.532C44.0456 39.6707 43.7976 39.881 43.6134 40.1428L43.605 40.1678ZM39.7984 43.0246C39.7978 42.8514 39.8443 42.6814 39.9327 42.5326C40.0212 42.3839 40.1484 42.2621 40.3006 42.1801C40.4528 42.0982 40.6244 42.0593 40.797 42.0676C40.9696 42.0759 41.1367 42.1311 41.2805 42.2272C41.4242 42.3233 41.5391 42.4568 41.613 42.6133C41.6869 42.7699 41.7169 42.9436 41.6998 43.1159C41.6828 43.2882 41.6193 43.4526 41.5161 43.5916C41.413 43.7305 41.2741 43.8387 41.1144 43.9047V46.3812H40.3829V43.8991C40.2107 43.826 40.0636 43.704 39.9597 43.5481C39.8559 43.3922 39.7998 43.2093 39.7984 43.0218V43.0246ZM54.4239 47.0475L54.507 48.0969L35.5955 48.133L35.6315 47.0475H54.4239ZM48.9133 41.27C48.8541 40.9704 48.7156 40.6922 48.5124 40.4646C48.3091 40.2371 48.0486 40.0684 47.758 39.9762C47.5135 39.891 47.2538 39.8578 46.9958 39.8789C46.7377 39.8999 46.4868 39.9747 46.2592 40.0984C46.1376 39.8769 45.9535 39.6963 45.73 39.5792C45.7799 39.3959 45.8602 39.11 45.9267 38.9295C46.117 38.4007 46.3554 37.8905 46.6388 37.4053C46.8727 37.0178 47.1328 36.6468 47.4173 36.2948C47.4477 36.5919 47.5032 36.9583 47.5724 37.3665C47.6785 37.9748 47.8333 38.5737 48.0351 39.1572L48.3121 39.8929L48.6391 39.1794C48.8282 38.7654 49.0468 38.3655 49.2929 37.9828C49.4564 37.7329 49.6309 37.4858 49.7888 37.2776C49.8956 38.1927 50.0895 39.0954 50.3679 39.9734C50.7328 41.062 51.2964 42.0731 52.0302 42.9552C51.5313 43.727 51.1817 44.5859 50.9995 45.4872H50.3789V44.4211C50.5865 44.2546 50.7539 44.0433 50.8686 43.8029C50.9832 43.5626 51.0422 43.2993 51.0411 43.0329C51.0411 42.0473 50.3429 41.1783 48.9023 41.2894L48.9133 41.27ZM48.3482 43.0413C48.3485 42.8694 48.3953 42.7008 48.4835 42.5534C48.5717 42.406 48.6981 42.2852 48.8493 42.204C49.0004 42.1227 49.1707 42.084 49.342 42.0919C49.5134 42.0998 49.6794 42.154 49.8225 42.2488C49.9656 42.3436 50.0804 42.4754 50.1548 42.6303C50.2291 42.7852 50.2603 42.9574 50.2449 43.1286C50.2295 43.2998 50.1682 43.4636 50.0674 43.6027C49.9666 43.7418 49.8301 43.8509 49.6725 43.9186V46.4006H48.9438V43.9241C48.7682 43.8529 48.6178 43.7309 48.5117 43.5737C48.4056 43.4164 48.3487 43.2311 48.3482 43.0413ZM46.2703 41.7003C46.2704 41.5256 46.3184 41.3542 46.4092 41.205C46.4999 41.0558 46.6299 40.9345 46.7849 40.8544C46.9398 40.7743 47.1138 40.7385 47.2877 40.7508C47.4616 40.7632 47.6288 40.8232 47.771 40.9244C47.9131 41.0256 48.0247 41.1641 48.0936 41.3246C48.1625 41.4851 48.1859 41.6616 48.1614 41.8345C48.1369 42.0075 48.0654 42.1704 47.9546 42.3054C47.8439 42.4404 47.6983 42.5423 47.5336 42.5998V46.4061H46.805V42.5526C46.6449 42.4753 46.5098 42.3544 46.4152 42.2036C46.3206 42.0528 46.2704 41.8784 46.2703 41.7003ZM62.2921 33.4491C62.2921 33.4491 62.0539 32.8216 61.1285 32.2386C60.2032 31.6556 59.7765 31.7028 59.7765 31.7028C59.9538 31.5626 60.1671 31.4757 60.3917 31.4521C60.6163 31.4285 60.843 31.4692 61.0454 31.5695C61.7907 31.9165 62.0566 32.1581 62.2229 32.6328C62.3157 32.8944 62.3395 33.1756 62.2921 33.4491ZM62.5082 31.0448C63.3034 31.3224 64.8493 31.9304 65.4339 32.1553C65.8843 32.3181 66.3639 32.3837 66.8413 32.3478C67.3188 32.3119 67.7833 32.1754 68.2044 31.9471C68.2044 31.9471 67.6835 33.227 65.916 32.9466C64.8403 32.7393 63.809 32.3456 62.8684 31.7833C62.3721 31.4757 61.8266 31.2559 61.256 31.1336C61.256 31.1336 61.9791 30.856 62.4972 31.0392L62.5082 31.0448ZM63.8408 26.1418C64.5552 26.1912 65.2389 26.4521 65.8051 26.8914C66.5975 27.5772 66.9133 28.0963 66.7056 28.8876C66.4978 29.6788 66.1127 29.8648 66.1127 29.8648C65.5058 29.402 64.7642 29.1513 64.0015 29.1513C63.2757 29.1208 61.594 29.2818 60.8432 30.037C60.688 30.173 60.5661 30.0009 60.6686 29.8787C60.9584 29.5914 61.2269 29.2834 61.4721 28.957C62.0262 28.188 62.2644 27.8465 62.7714 27.2718C63.2784 26.6971 63.8658 26.139 63.8658 26.139L63.8408 26.1418ZM51.0245 26.4416C51.5096 26.4626 51.9956 26.4496 52.479 26.4028C53.2134 26.2958 53.9535 26.2318 54.6954 26.2112C55.5016 26.2112 56.3577 25.9475 57.743 26.4888C59.1282 27.0302 59.9317 27.3217 59.9317 27.3217C60.2662 27.0462 60.5784 26.7444 60.8653 26.4194C61.0919 26.1372 61.2621 25.8139 61.3668 25.4672C61.1277 25.5476 60.872 25.5648 60.6243 25.5171C60.2253 25.4394 59.1088 25.0035 57.7042 25.2173C56.2995 25.4311 54.7286 25.5754 53.1993 25.3367C51.67 25.0979 51.3569 24.6287 51.3569 24.6287C51.3569 24.6287 52.0883 24.8314 54.7259 24.3844C57.9369 23.8291 61.2754 22.23 62.2062 23.5099C62.4833 23.893 62.3115 24.4871 62.1287 24.9341C61.7047 25.8756 61.1446 26.7493 60.4664 27.5272C59.9909 28.0285 59.4837 28.4986 58.9481 28.9348C58.2827 29.3864 57.5724 29.7678 56.8287 30.0731C56.1315 30.3283 55.4166 30.5325 54.6899 30.6839L56.9063 27.0386L56.1638 27.2051C55.1538 27.4632 54.1768 27.8368 53.252 28.3184C52.7482 28.6039 52.2641 28.923 51.803 29.2735C51.8639 28.9153 51.9304 28.5322 51.9858 28.349C52.0849 28.01 52.2414 27.6907 52.4485 27.405C52.5242 27.3327 52.6057 27.2667 52.6923 27.2079L52.9417 27.0746C52.8059 27.0497 52.5011 26.9941 52.069 26.8748C51.6984 26.7798 51.3417 26.637 51.0079 26.45L51.0245 26.4416ZM58.1585 25.8558C58.3696 25.8639 58.5781 25.9051 58.7764 25.978L58.7126 26.3084C58.7126 26.3084 58.6766 26.3084 58.1752 26.114C57.6737 25.9197 57.7208 25.9086 57.7208 25.9086C57.7208 25.9086 57.6598 25.8031 58.1613 25.8558H58.1585ZM59.5466 26.6027C59.6224 26.5754 59.6915 26.5318 59.7488 26.475C59.8587 26.362 59.9519 26.2339 60.0259 26.0946L60.4359 26.1668L59.9954 26.7221L59.5466 26.6027ZM46.1844 36.2282C46.4919 35.4369 46.8188 34.7067 47.1513 34.0071C47.6929 33.2338 48.338 32.5388 49.0685 31.9415C49.0325 32.1109 48.9881 32.2914 48.9549 32.4968C48.8494 33.0578 48.7993 33.6278 48.8053 34.1987C48.8053 34.4957 48.8053 34.6901 48.8053 34.6929L48.869 35.8228L49.4231 34.8317C49.7463 34.2627 50.117 33.7221 50.5313 33.2159C50.8775 32.8012 51.2708 32.4285 51.7032 32.1053C51.5604 32.5045 51.4474 32.9137 51.3652 33.3297C51.293 33.814 51.2578 34.3031 51.26 34.7928C51.2558 35.1826 51.278 35.5721 51.3265 35.9589L51.429 36.739L51.9027 36.106C51.9027 36.106 52.8142 34.8955 53.4348 34.2375C53.9488 33.6988 54.5108 33.2081 55.1137 32.7717C55.593 32.4218 55.9283 32.2164 55.9449 32.2164L55.6124 31.6611C54.6433 32.257 53.7534 32.9734 52.9638 33.7933C52.6314 34.1515 52.2241 34.6484 51.9138 35.0399C51.9138 34.9649 51.9138 34.8817 51.9138 34.7956C51.911 34.3401 51.9453 33.8851 52.0163 33.4352C52.0987 33.0072 52.2154 32.5866 52.3654 32.1775C52.5122 31.7555 52.6424 31.4251 52.6424 31.4251L52.9666 30.6145L52.1936 31.0142C51.3707 31.4711 50.6375 32.0741 50.0299 32.7939C49.8304 33.0299 49.6392 33.2853 49.4758 33.524C49.4956 33.2194 49.5335 32.9163 49.5893 32.6162C49.7473 31.8527 49.908 31.2613 49.908 31.2558L50.113 30.4923L49.4314 30.8949C49.0739 31.1156 48.7365 31.3674 48.423 31.6472C48.5033 31.514 48.5809 31.3696 48.664 31.2558C49.0222 30.6907 49.4282 30.1575 49.8775 29.6622C49.482 29.5238 49.0763 29.4171 48.664 29.3429C48.4462 29.3312 48.2304 29.2939 48.0212 29.2318C48.0212 29.2318 48.869 28.9959 49.6835 28.7266C50.3052 28.4974 50.9043 28.2112 51.4733 27.8715C51.4373 27.9575 51.4068 28.0547 51.3708 28.1491C51.2317 28.7466 51.1226 29.3508 51.0439 29.9592L50.9386 30.756L51.5703 30.2619C52.2008 29.7566 52.8634 29.2929 53.5539 28.8737C54.1652 28.5629 54.8008 28.3029 55.4545 28.0963L55.5487 28.0658L53.396 31.5889L54.0942 31.4751C55.1098 31.347 56.1091 31.1115 57.0753 30.7727L57.3994 30.6283C58.1346 30.3405 58.8185 29.9355 59.4247 29.429C60.1363 28.9012 60.764 28.2685 61.2864 27.5522C62.1176 26.3056 62.8656 25.2589 62.8656 25.2589C62.9674 25.2422 63.0716 25.2489 63.1704 25.2784C63.2757 25.3339 63.4474 25.4366 63.4474 25.4366C63.4474 25.4366 62.9432 25.9197 62.6163 26.3139C62.2894 26.7082 61.4166 27.9298 60.8321 28.7738C60.2004 29.6899 59.1698 30.8949 58.6157 31.2724C57.9868 31.6972 57.5462 32.0276 57.5462 32.0276L56.9035 32.097C56.9035 32.097 55.2135 32.5579 53.4653 35.262C51.7171 37.9661 51.9748 40.1872 52.4762 41.1922C52.5676 41.3755 52.7754 41.7475 52.9417 41.9974C52.7837 42.139 52.6341 42.2944 52.4818 42.4554C52.3626 42.3083 52.2047 42.1223 52.0551 41.8752C51.6083 41.2388 51.2573 40.54 51.0134 39.8013C50.6674 38.7136 50.458 37.587 50.39 36.4475L50.3318 35.6618L49.8193 36.2559C49.4447 36.6974 49.0968 37.1609 48.7776 37.6441C48.6529 37.8301 48.5393 38.0217 48.4424 38.1994C48.3731 37.9412 48.3038 37.6274 48.2373 37.2721C48.1317 36.6919 48.0605 36.106 48.024 35.5174L47.9824 34.7928L47.4671 35.3064C46.9499 35.8539 46.4938 36.4562 46.1068 37.1027C45.9794 37.322 45.8464 37.5386 45.7245 37.7468C45.8605 37.2315 46.0233 36.7237 46.2121 36.2254L46.1844 36.2282ZM45.0762 40.3149C45.2989 40.3126 45.5153 40.3887 45.6877 40.53C45.8601 40.6713 45.9775 40.8688 46.0194 41.088C46.0613 41.3072 46.025 41.5341 45.9169 41.7293C45.8089 41.9244 45.6358 42.0753 45.428 42.1556V46.4089H44.6939V42.1334C44.5278 42.0582 44.387 41.9363 44.2887 41.7826C44.1903 41.6288 44.1386 41.4498 44.1398 41.2672C44.1398 41.0148 44.2394 40.7728 44.4169 40.5938C44.5945 40.4149 44.8355 40.3136 45.0873 40.3121L45.0762 40.3149ZM27.9101 23.5348C28.8493 22.255 32.1878 23.8486 35.3905 24.4094C38.028 24.8591 38.7622 24.6537 38.7622 24.6537C38.7622 24.6537 38.4602 25.1229 36.9226 25.3617C35.3849 25.6004 33.8168 25.445 32.4094 25.2423C31.002 25.0396 29.891 25.4644 29.4948 25.5421C29.2472 25.5903 28.9913 25.573 28.7523 25.4921C28.8573 25.8393 29.0286 26.1627 29.2566 26.4444C29.5389 26.77 29.8475 27.0718 30.1792 27.3467C30.1792 27.3467 30.966 27.0691 32.3734 26.5138C33.7808 25.9586 34.6203 26.2362 35.421 26.2362C36.1628 26.2569 36.9029 26.3209 37.6374 26.4278C38.1207 26.4746 38.6067 26.4876 39.0919 26.4666C38.7591 26.6539 38.4033 26.7967 38.0336 26.8914C37.5958 27.0108 37.2938 27.0663 37.1636 27.0913L37.4046 27.2246C37.4988 27.2912 37.6069 27.3745 37.6595 27.4217C37.8662 27.7069 38.0209 28.0265 38.1167 28.3656C38.1931 28.6705 38.2541 28.9791 38.2995 29.2901C37.8415 28.9394 37.3601 28.6203 36.8589 28.3351C35.9284 27.8657 34.9478 27.5034 33.936 27.2551L33.1879 27.0885L35.4043 30.7338C34.6756 30.583 33.9589 30.3788 33.26 30.123C32.519 29.8157 31.8108 29.4343 31.1461 28.9848C30.6089 28.5494 30.1008 28.0792 29.6251 27.5772C28.9458 26.8001 28.3856 25.9262 27.9628 24.9841C27.7771 24.5371 27.6054 23.9457 27.8824 23.5598L27.9101 23.5348ZM32.3679 25.9253C32.3679 25.9253 32.4233 25.9475 31.919 26.1307C31.4148 26.3139 31.3843 26.325 31.3843 26.325C31.3843 26.325 31.3234 26.0058 31.3151 25.9947C31.5148 25.9236 31.7239 25.8825 31.9357 25.8725C32.4371 25.8198 32.3706 25.9253 32.3706 25.9253H32.3679ZM30.5504 26.6193L30.0988 26.7415L29.6528 26.1862L30.0628 26.114C30.1379 26.2526 30.231 26.3805 30.3398 26.4944C30.3972 26.5526 30.4674 26.5963 30.5449 26.6221L30.5504 26.6193ZM26.1121 29.1791C25.3395 29.1757 24.5872 29.4263 23.9704 29.8926C23.9704 29.8926 23.5881 29.7094 23.3803 28.9153C23.1725 28.1213 23.4884 27.6049 24.2835 26.9192C24.8486 26.4797 25.5314 26.2187 26.245 26.1696C26.245 26.1696 26.8324 26.7248 27.3532 27.3023C27.8741 27.8798 28.093 28.2185 28.6526 28.9875C28.8951 29.3144 29.1619 29.6225 29.4505 29.9093C29.5641 30.0314 29.4339 30.2036 29.2732 30.0675C28.5224 29.3124 26.8407 29.1541 26.1204 29.1819L26.1121 29.1791ZM27.2286 31.8138C26.2876 32.3755 25.2564 32.7691 24.181 32.9771C22.4023 33.2547 21.8926 31.9776 21.8926 31.9776C22.3133 32.2071 22.7778 32.3443 23.2555 32.3802C23.7331 32.4161 24.2129 32.3498 24.6631 32.1858C25.256 31.9526 26.8019 31.353 27.5998 31.0753C28.1068 30.8921 28.8355 31.1697 28.8355 31.1697C28.2646 31.2915 27.7191 31.5113 27.223 31.8194L27.2286 31.8138ZM28.974 32.2691C28.0486 32.8522 27.8159 33.4796 27.8159 33.4796C27.7658 33.2064 27.7888 32.9248 27.8824 32.6634C28.0459 32.1886 28.3118 31.9471 29.0571 31.6C29.26 31.4995 29.4871 31.4587 29.7122 31.4823C29.9373 31.5058 30.1511 31.5929 30.3288 31.7333C30.3288 31.7333 29.9049 31.6833 28.9768 32.2691H28.974ZM37.6568 41.22C38.1555 40.215 38.4103 37.9939 36.6622 35.2898C34.914 32.5856 33.2239 32.1248 33.2239 32.1248L32.5812 32.0554C32.5812 32.0554 32.1462 31.725 31.509 31.3002C30.9549 30.9282 29.9298 29.7233 29.2926 28.8015C28.7108 27.9686 27.8547 26.7415 27.5167 26.3417C27.1787 25.9419 26.6662 25.4644 26.6662 25.4644C26.6662 25.4644 26.8241 25.3589 26.9432 25.3061C27.029 25.2739 27.1205 25.2598 27.2119 25.2645C27.2119 25.2645 27.9738 26.3139 28.7911 27.5577C29.3186 28.2733 29.9499 28.9059 30.664 29.4345C31.2662 29.9438 31.9487 30.3491 32.6837 30.6339L33.0162 30.7783C33.9824 31.1237 34.9827 31.3648 36 31.4973L36.6926 31.6112L34.5427 28.088L34.6341 28.1185C35.2864 28.3265 35.9211 28.5864 36.5319 28.8959C37.2233 29.3152 37.8868 29.7789 38.5184 30.2841L39.1445 30.7783L39.0365 29.9815C38.9609 29.3725 38.8517 28.7682 38.7096 28.1713C38.6791 28.0713 38.6458 27.977 38.6126 27.8937C39.1797 28.2332 39.777 28.5195 40.3968 28.7488C41.228 29.0264 42.0591 29.2541 42.0591 29.2541C41.8517 29.3159 41.6379 29.3531 41.4219 29.3651C41.0056 29.4376 40.5961 29.5444 40.1973 29.6844C40.6501 30.1797 41.0597 30.7128 41.4219 31.278C41.4967 31.4057 41.5743 31.539 41.6518 31.6695C41.339 31.3911 41.0035 31.1395 40.6489 30.9171L39.9674 30.5145L40.1696 31.278C40.1696 31.278 40.3275 31.8749 40.4827 32.6384C40.5424 32.9379 40.5804 33.2413 40.5963 33.5462C40.4241 33.2936 40.2392 33.0499 40.0422 32.8161C39.435 32.0947 38.7006 31.4915 37.8756 31.0365L37.1027 30.6367L37.4296 31.4473C37.4296 31.4473 37.5626 31.7777 37.7066 32.1997C37.8582 32.6109 37.9777 33.0332 38.064 33.463C38.133 33.9131 38.1673 34.3679 38.1665 34.8234C38.1665 34.9094 38.1665 34.9955 38.1665 35.0677C37.8507 34.6762 37.4517 34.182 37.1193 33.8211C36.3282 33.0029 35.4385 32.2867 34.4707 31.6889L34.141 32.2442C34.141 32.2442 34.4845 32.4496 34.9721 32.7994C35.5756 33.2353 36.1376 33.726 36.6511 34.2653C37.2689 34.9205 38.1776 36.1338 38.1832 36.1338L38.6514 36.7668L38.7622 35.9866C38.8057 35.5995 38.826 35.2101 38.8231 34.8206C38.8268 34.3307 38.7906 33.8414 38.7151 33.3575C38.6351 32.9413 38.523 32.5319 38.3799 32.1331C38.8118 32.457 39.205 32.8296 39.5518 33.2436C39.9659 33.75 40.3366 34.2905 40.66 34.8594L41.2141 35.8506L41.275 34.7206C41.275 34.7206 41.275 34.5207 41.275 34.2264C41.2829 33.6559 41.2356 33.086 41.1338 32.5246C41.0922 32.333 41.0534 32.1525 41.0202 31.9693C41.751 32.5662 42.3961 33.2613 42.9374 34.0349C43.2698 34.7234 43.5912 35.4536 43.9015 36.2559C44.0788 36.7168 44.2478 37.261 44.3891 37.7774L44.0095 37.1332C43.6236 36.486 43.1674 35.8836 42.6492 35.337L42.1145 34.7928L42.0757 35.5174C42.0349 36.1059 41.9619 36.6917 41.8569 37.2721C41.7959 37.6274 41.7183 37.9412 41.6518 38.1994C41.5576 38.0244 41.4413 37.8329 41.3194 37.6441C40.9994 37.16 40.6497 36.6964 40.2721 36.2559L39.7651 35.6618L39.7069 36.4475C39.6365 37.5867 39.4272 38.713 39.0836 39.8013C38.8382 40.5394 38.4873 41.238 38.0419 41.8752C37.8618 42.139 37.7039 42.3499 37.5792 42.5026C37.4462 42.325 37.3021 42.1195 37.1747 41.9835C37.3382 41.7058 37.5376 41.3616 37.6235 41.1922L37.6568 41.22ZM30.4479 46.3645C29.1762 44.0213 31.0242 41.3199 33.3098 41.2672C35.5955 41.2144 37.7122 43.0496 38.1859 45.6926C38.2318 45.9271 38.2596 46.1647 38.269 46.4034L35.59 46.4395C35.529 45.8065 35.4431 45.4428 35.1273 45.068C33.803 43.5021 32.3568 44.8764 32.3568 44.8764C32.3568 44.8764 32.0215 45.4317 32.221 45.5955C32.3997 45.706 32.6135 45.7447 32.8195 45.7037C32.8195 45.7037 33.5703 45.1485 34.2546 45.6316C34.4171 45.7408 34.5557 45.882 34.6618 46.0468C34.7679 46.2115 34.8394 46.3962 34.8718 46.5896C34.9042 46.783 34.8969 46.9809 34.8503 47.1714C34.8038 47.3618 34.7189 47.5407 34.6009 47.6971C34.1077 48.4218 31.714 48.7049 30.4451 46.359L30.4479 46.3645ZM20.1942 34.4513C20.1942 34.4513 21.416 35.4147 24.6271 38.9434C27.8381 42.4721 27.1898 42.8497 25.9874 44.5321C24.785 46.2146 24.6797 47.4834 25.3751 48.6716C26.0705 49.8599 28.0099 51.2952 30.8081 50.7455C31.6835 50.5734 33.5786 50.0348 34.5205 49.4073C34.2051 50.5475 33.7792 51.6541 33.2489 52.7112C33.235 52.7473 33.2212 52.7834 33.2018 52.8194C32.2321 54.5491 31.4952 54.8128 31.4952 54.8128L29.7802 53.6024C29.5335 53.8324 29.2695 54.043 28.9906 54.2326C28.6393 54.4397 28.2757 54.6251 27.9018 54.7878C27.6057 54.6462 27.3337 54.4588 27.0956 54.2326C26.7741 53.8247 26.4956 53.3846 26.2644 52.9194C25.9087 53.2261 25.5214 53.4942 25.1091 53.719C24.5877 53.9031 24.0449 54.0197 23.4939 54.066C23.1321 53.804 22.84 53.457 22.6434 53.0554C22.4733 52.5517 22.3972 52.0209 22.419 51.4896C22.2612 51.5005 22.1029 51.5005 21.9452 51.4896C21.6364 51.4772 21.3303 51.4268 21.0337 51.3397C20.6036 51.2003 20.1993 50.9912 19.8368 50.7205C19.9177 50.4007 20.0671 50.1022 20.2746 49.846C20.6441 49.4112 21.072 49.03 21.5463 48.7133C21.0378 48.4358 20.5515 48.1193 20.0917 47.7665C19.6785 47.3761 19.3593 46.8967 19.1581 46.3645C19.3905 46.0312 19.6559 45.7224 19.9504 45.4428C20.369 45.0709 20.849 44.775 21.3689 44.5682C21.3689 44.5682 20.7511 43.8964 20.3854 43.4771C20.0197 43.0579 19.7704 41.9779 19.7704 41.9779C20.1217 41.7516 20.5177 41.6039 20.9312 41.5448C21.5438 41.4358 22.1653 41.3856 22.7874 41.3949C22.7874 41.3949 22.2804 40.8868 21.6931 40.2677C21.1057 39.6486 19.2273 37.769 19.1276 36.6363C18.9697 34.8983 20.1942 34.4652 20.1942 34.4652V34.4513ZM15.6645 44.1823C16.9607 44.512 18.2793 44.7458 19.6097 44.882L19.4545 45.0013C18.7813 45.5399 18.4239 45.8842 18.3186 46.1924C18.4055 46.4372 18.5169 46.6725 18.6511 46.8948C18.2964 47.0003 17.3628 46.9697 16.4347 46.8698C15.0102 46.6925 13.6299 46.2559 12.362 45.5816C12.5061 45.4261 12.8607 45.0263 14.0659 44.5766C14.5725 44.3574 15.1116 44.2232 15.6617 44.1795L15.6645 44.1823ZM11.6195 40.9174C12.1792 40.5551 12.8265 40.3517 13.4924 40.3288C14.1573 40.2705 14.6006 40.2511 14.8776 40.2511C16.2851 41.2561 18.2438 42.0196 19.0334 42.3166C19.1822 42.8136 19.428 43.276 19.7565 43.677C19.2412 43.677 18.108 43.6326 15.8612 43.0218C13.9994 42.5138 12.3177 41.7419 11.6001 40.9201L11.6195 40.9174ZM14.6338 47.5833C16.3405 48.183 18.4128 48.1386 19.3575 48.0941C19.6216 48.3694 19.924 48.605 20.2552 48.7938C20.0215 48.9808 19.8129 49.1973 19.6346 49.4379C18.7479 49.5788 17.853 49.6613 16.9555 49.685C15.0328 49.7266 12.7416 49.213 12.1681 48.8882C12.5113 48.4574 12.9559 48.1188 13.4619 47.9026C13.8442 47.7249 14.1573 47.5889 14.3956 47.4917C14.4759 47.5278 14.5535 47.5528 14.6338 47.5833ZM16.9389 50.8066C17.6581 50.8462 18.3791 50.777 19.0777 50.6012C18.9922 50.7172 18.9335 50.851 18.906 50.9926C19.2693 51.3858 19.7229 51.6841 20.2275 51.8616C19.9975 51.9671 19.413 52.2475 19.0971 52.3697C17.3018 53.0693 15.573 53.1137 14.4759 53.147C14.6226 52.6425 14.9009 52.1863 15.2821 51.8255C15.7587 51.3119 16.4818 50.9926 16.6535 50.8372C16.6535 50.8372 16.9306 50.8372 16.9306 50.8205L16.9389 50.8066ZM17.8698 54.8711C17.9408 54.4938 18.0409 54.1225 18.169 53.7606C19.7953 53.3331 21.6875 52.1559 21.6875 52.1559C21.6869 52.6772 21.8073 53.1914 22.0394 53.6579C22.0865 53.7495 22.1447 53.83 22.1946 53.9133C21.627 54.4922 20.9459 54.9469 20.1942 55.2487C19.4227 55.6094 18.5988 55.8447 17.7534 55.9456C17.7526 55.5812 17.7935 55.2179 17.8753 54.8628L17.8698 54.8711ZM20.6458 56.1233C22.2832 55.1266 22.4439 54.6935 22.7653 54.4158C22.9093 54.6013 23.0637 54.7784 23.228 54.9461C23.5886 54.9202 23.9434 54.8407 24.2807 54.7101C24.0332 55.708 23.5299 56.6239 22.8207 57.3671C22.2923 57.9139 21.6197 58.299 20.8813 58.4776C20.7801 58.1388 20.7114 57.7911 20.6763 57.4392C20.6216 57.0082 20.615 56.5724 20.6569 56.1399L20.6458 56.1233ZM24.9567 55.307V55.2848C25.0307 55.0049 25.0899 54.7214 25.1341 54.4353C25.4771 54.3406 25.8014 54.1875 26.0927 53.9827C26.2246 54.3457 26.4228 54.6809 26.6772 54.9711C26.8241 55.121 27.0485 55.3265 27.2701 55.5069C27.2507 56.0261 27.2701 56.9395 26.8601 57.728C26.6797 58.0711 26.4306 58.3732 26.1284 58.6154C25.8261 58.8576 25.4773 59.0347 25.1036 59.1356C24.8376 58.911 24.6142 58.6401 24.4442 58.336C24.2645 58.0092 24.1409 57.6544 24.0785 57.2865C24.4278 56.6528 24.7208 55.9895 24.954 55.3042L24.9567 55.307ZM20.089 39.6208C20.873 40.3788 21.2969 40.8202 21.2969 40.8202C20.7643 40.8705 20.2428 41.0035 19.751 41.2144C18.6437 40.7691 17.5689 40.2468 16.5344 39.6514C15.1408 38.8317 13.8403 37.8626 12.6557 36.7612C13.3357 36.5376 14.0614 36.4918 14.764 36.628C15.4622 36.7418 15.9083 36.8417 16.1798 36.9056C17.2437 38.1113 18.583 39.041 20.0834 39.6153L20.089 39.6208ZM15.5813 30.8865C16.0189 31.7307 16.5161 32.5426 17.0691 33.3158C17.5369 33.9457 18.0909 34.5065 18.7148 34.9816C18.3214 35.7923 18.5513 36.8723 18.6538 37.136C17.8089 36.6891 17.0721 36.0617 16.4956 35.2981C15.5287 34.071 14.7973 32.5468 14.7724 31.0781C14.753 30.2452 15.1602 30.1008 15.5786 30.8949L15.5813 30.8865ZM5.88179 19.9562C5.90119 18.3959 6.9429 17.96 7.44713 18.9872C8.51101 21.15 10.1622 24.6426 11.4339 26.6471C12.3057 28.011 13.2538 29.3245 14.2737 30.5811C14.1218 31.4028 14.178 32.2495 14.4371 33.0437C13.3289 32.2858 11.9437 31.4585 9.05956 27.7937C7.60228 25.9447 5.85963 22.2411 5.88456 19.9534L5.88179 19.9562ZM4.30814 29.7316C3.69032 28.7099 2.99215 27.083 3.18609 25.8781C3.71602 26.1246 4.20551 26.4504 4.63783 26.8442C6.25581 28.3184 8.8407 30.2619 9.49731 30.9143C11.301 32.746 13.2783 34.3973 15.4013 35.845C15.4443 35.9669 15.5122 36.0785 15.6007 36.1726C14.4451 35.7892 13.1982 35.7815 12.0379 36.1504C11.4838 35.8728 11.2067 35.8728 7.82946 33.4546C6.436 32.4377 5.2398 31.1741 4.29983 29.726L4.30814 29.7316ZM1.90057 32.9077C2.03355 32.866 2.45467 32.7467 3.46037 32.8799C4.06643 32.9729 4.6621 33.1245 5.23903 33.3325C5.27505 33.3658 5.34985 33.4158 5.38587 33.4519C8.10651 36.1421 11.6555 37.5969 12.761 38.0244C13.1593 38.6255 13.624 39.1797 14.1462 39.6764C13.6014 39.6868 13.0583 39.7425 12.5227 39.8429C11.7802 39.5903 10.0015 38.9517 7.02601 37.3137C3.88148 35.5702 2.44636 33.9155 1.90057 32.9077ZM1.29937 38.9156C1.89887 38.7989 2.50899 38.7459 3.11959 38.7574C4.34139 38.7574 6.42204 38.9406 6.69632 38.9767C7.26931 39.2275 7.85464 39.449 8.45005 39.6403C9.38926 39.9484 10.6471 40.2649 11.2815 40.4343C10.5917 40.7119 10.5556 40.8646 10.5556 40.8646C10.5556 40.8646 11.0349 41.642 12.9604 42.9052C12.1293 42.8219 9.91288 42.9691 6.18932 41.8502C3.32738 40.9812 2.25242 40.065 1.29937 38.9156ZM1.43789 44.1906C1.95092 43.9866 2.48009 43.8259 3.01986 43.7103C4.10035 43.4993 5.29444 43.5632 5.9372 43.5271C7.08892 43.8881 8.28783 44.0752 9.49453 44.0824C11.1568 44.1684 12.6391 44.0824 13.6143 44.0407C13.0447 44.1676 12.5107 44.4209 12.0517 44.782C11.7435 45.0152 11.4862 45.309 11.2954 45.6454C11.312 45.7287 11.6084 45.9536 11.7359 46.048C10.9823 46.2201 9.13991 46.3895 5.87071 45.9425C3.31076 45.5955 1.992 44.6293 1.43789 44.1879V44.1906ZM2.23857 49.5156C2.78871 49.1027 3.37905 48.7464 4.00062 48.4523C4.82897 48.0687 5.71255 47.8185 6.61875 47.711C7.97715 47.7929 9.34045 47.7137 10.6803 47.475C11.5106 47.3427 12.3301 47.1497 13.1322 46.8976C13.3178 47.0147 13.5134 47.1151 13.7168 47.1974C13.1045 47.3386 12.5346 47.6242 12.0545 48.0303C11.7226 48.3183 11.4562 48.6743 11.2732 49.0742C11.4394 49.3518 12.2373 49.6933 12.2373 49.6933C11.0322 50.1181 9.71895 50.3041 7.73803 50.3874C3.85932 50.5706 2.837 49.9848 2.23857 49.5323V49.5156ZM3.34678 54.9405C3.37448 54.7767 3.73188 54.1354 4.58796 53.358C5.07524 52.917 5.61943 52.5434 6.20594 52.2475C8.22084 52.2167 10.2157 51.8411 12.1044 51.137C12.732 50.9297 13.3335 50.6502 13.8969 50.3041C14.507 50.5121 15.1362 50.659 15.7753 50.7428C15.102 51.0065 13.6725 52.4835 9.7605 54.0743C6.15884 55.5264 4.74034 55.2709 3.34678 54.9072V54.9405ZM6.34724 59.3049C6.34724 59.3049 6.47745 58.1361 7.71587 56.6091C9.73557 56.1677 12.1487 54.7684 13.2569 53.991C13.4564 53.8467 13.5173 53.8772 13.7473 53.7134C14.3014 53.9494 15.5149 53.9272 16.0634 53.9327C15.3237 54.6129 12.4147 57.2643 10.104 58.2971C7.61059 59.4076 6.33893 59.3132 6.33893 59.3132L6.34724 59.3049ZM13.2652 61.1984C11.4782 62.4644 10.0043 62.6559 10.0043 62.6559C9.98255 62.2847 10.0021 61.9123 10.0625 61.5454C10.137 61.0172 10.2718 60.4992 10.4642 60.0018C12.6114 59.0328 14.753 56.598 15.6257 55.4653C15.8113 55.2237 16.5261 54.3409 16.8502 53.9022C17.0026 53.9022 17.1578 53.8717 17.3185 53.8522C17.1687 54.2757 17.0602 54.7127 16.9943 55.1571C16.924 55.6844 16.9119 56.2179 16.9583 56.7479C17.0804 56.786 17.2072 56.8066 17.3351 56.809C16.8364 57.4503 15.2627 59.7824 13.2652 61.2011V61.1984ZM17.3406 63.2806C15.7642 64.8131 14.3263 64.8187 14.3263 64.8187C14.2911 64.4187 14.2911 64.0165 14.3263 63.6165C14.3817 63.1057 14.6034 62.109 14.6311 61.973C16.3737 60.4127 17.5346 58.1833 18.1801 56.8396C18.7874 56.8161 19.3862 56.6884 19.9504 56.462C19.9068 56.8949 19.9068 57.3311 19.9504 57.7641C20.0125 58.1894 20.1051 58.6097 20.2275 59.0217C19.5644 60.6207 18.5798 62.0657 17.3351 63.2667L17.3406 63.2806ZM22.3109 63.8553C20.9755 65.5961 19.5072 66.0764 19.5072 66.0764C19.5072 66.0764 19.0916 65.7238 19.111 63.5999C20.2275 62.1895 20.8647 60.5237 21.3357 59.1356C22.1891 58.9222 22.9728 58.4908 23.6103 57.8834C23.7147 58.2574 23.849 58.6223 24.012 58.9745C24.0674 59.0884 24.3666 59.552 24.4193 59.652C23.7848 61.5315 23.1698 62.7059 22.2998 63.8498L22.3109 63.8553ZM26.7022 64.1274C25.9929 65.8876 24.9346 66.0708 24.9346 66.0708C24.5537 65.1546 24.3452 64.1757 24.3195 63.1834C24.738 62.1998 25.0572 61.1767 25.2726 60.1295C25.9221 59.8286 26.4995 59.3911 26.9654 58.8468C26.9958 58.9329 27.3145 59.6797 27.5195 60.0518C27.4003 61.9063 27.1648 62.9835 26.7022 64.1218V64.1274ZM28.6415 59.9768C28.3936 59.7602 28.183 59.5041 28.0182 59.2189C27.7931 58.8703 27.6073 58.4979 27.4641 58.1083C27.8109 57.2903 27.9754 56.4063 27.9461 55.518C28.2538 55.3765 28.5486 55.2084 28.8272 55.0155C29.409 54.6463 29.7691 54.3714 29.7691 54.3714L30.8496 55.2043C30.8518 56.1222 30.6552 57.0297 30.2734 57.864C29.9008 58.682 29.3408 59.4002 28.6388 59.9601L28.6415 59.9768ZM29.0931 73.4003C29.005 73.2198 28.9743 73.0166 29.005 72.818C29.0357 72.6194 29.1264 72.4351 29.2649 72.2898C29.5419 71.9705 29.8024 71.2847 29.9741 71.3569C30.1459 71.4291 30.0185 71.7484 29.9021 71.9927C29.7857 72.237 29.3702 72.5729 29.445 72.7395C29.5198 72.9061 29.9326 72.6423 29.9326 72.6423C29.9326 72.6423 29.7885 73.1338 30.0545 73.2309C30.3205 73.3281 30.3953 72.9866 30.567 72.9866C30.7388 72.9866 30.9771 73.5724 31.3511 73.6224C31.7251 73.6724 32.1296 73.1837 32.1296 73.1837L32.8388 73.3559C32.8388 73.3559 33.2295 74.1388 32.5923 74.4331C31.9551 74.7274 31.5866 74.4053 31.0325 73.9861C30.4784 73.5669 29.2704 73.8917 29.0931 73.4003ZM32.5507 72.7395C32.4981 72.5729 32.6976 72.3953 32.6976 72.3953C32.6976 72.3953 32.7668 72.1176 32.8915 72.423C33.0162 72.7284 33.0356 72.9783 32.9192 72.9783C32.8393 72.985 32.7594 72.9642 32.6929 72.9193C32.6264 72.8744 32.5772 72.808 32.5535 72.7312L32.5507 72.7395ZM32.3097 77.04C32.1878 76.8707 31.7971 77.1705 31.7196 76.7263C31.642 76.2821 31.8913 76.3126 32.3318 76.5292C32.7724 76.7457 32.9414 76.8957 32.8167 77.0845C32.692 77.2732 32.4288 77.2038 32.3097 77.0262V77.04ZM33.1408 76.0489C32.5313 76.1239 32.0326 75.6574 31.5062 75.5131C30.9798 75.3687 30.4784 75.6102 30.0877 75.0716C29.6971 74.533 30.0323 74.3137 30.1847 74.3331C30.3371 74.3526 30.2069 74.583 30.3759 74.6552C30.5449 74.7274 30.6695 74.4775 30.7471 74.5802C30.8247 74.6829 30.6972 74.9439 30.8413 74.9967C30.9854 75.0494 30.9688 74.7829 31.1627 74.8523C31.3566 74.9217 31.8941 75.1688 32.1684 75.1299C32.4427 75.0911 32.9247 74.5747 33.3126 75.055C33.7005 75.5353 33.7531 75.985 33.1436 76.0572L33.1408 76.0489ZM33.8224 74.3692C33.8224 74.3692 34.3765 73.9722 34.2657 74.4692C34.1548 74.9661 34.0745 75.2799 33.7282 74.8329C33.3819 74.3859 33.8224 74.372 33.8224 74.372V74.3692ZM34.2657 77.6786C33.7836 77.6786 33.4816 77.6092 33.5841 77.0123C33.6866 76.4154 33.7032 76.7346 34.1382 76.6486C34.5732 76.5625 35.0165 76.5264 35.0165 77.0123C35.0165 77.4981 34.7394 77.6786 34.2574 77.6786H34.2657ZM35.0414 76.3543C34.9914 76.3313 34.9484 76.2955 34.9166 76.2505C34.8848 76.2055 34.8654 76.1529 34.8603 76.098C34.8553 76.0432 34.8647 75.9879 34.8878 75.9378C34.9108 75.8878 34.9466 75.8447 34.9915 75.8129C35.1384 75.6685 35.3101 75.6685 35.3572 76.11C35.4043 76.5514 35.3101 76.5486 35.0386 76.3543H35.0414ZM36.942 94.181C36.5556 94.4558 36.1165 94.6471 35.6524 94.7427C35.1883 94.8383 34.7095 94.8361 34.2463 94.7363C33.8415 94.6789 33.4609 94.5091 33.1475 94.2461C32.8342 93.9831 32.6005 93.6374 32.4731 93.2482C32.1462 92.4153 32.3014 90.9799 32.3208 90.3913C32.3208 90.2331 32.7918 88.5423 32.8749 88.187C32.9247 87.9093 33.0106 87.665 32.7696 87.7178C32.3402 87.8094 32.8167 88.1509 31.5506 88.8588C31.0745 89.1328 30.6921 89.5444 30.4533 90.0397C30.2145 90.5351 30.1306 91.0912 30.2124 91.6351C30.3454 92.8317 30.2706 93.0705 30.2706 93.0705C30.2072 92.786 30.1201 92.5074 30.0102 92.2376C29.8059 91.7651 29.6437 91.2755 29.5253 90.7745C29.2926 89.8278 29.8024 89.2197 30.2872 88.509C30.6391 88.0317 31.0496 87.6008 31.509 87.2263C31.1771 87.1542 30.8558 87.0395 30.5532 86.8849C30.3287 86.7752 30.1399 86.6041 30.0085 86.3914C29.877 86.1786 29.8085 85.9329 29.8107 85.6827C29.8482 85.3244 30.0158 84.9924 30.2817 84.7499C30.2426 85.125 30.3304 85.5024 30.531 85.8215C30.7637 86.1602 31.5561 86.5101 32.3097 86.4851C33.0633 86.4601 34.4374 85.6078 34.986 84.9192C35.5188 84.295 36.1484 83.7607 36.8505 83.3367C37.3672 82.9957 37.9547 82.7773 38.5683 82.6982C38.8869 82.7176 39.0115 82.6982 39.2692 82.737C37.9477 83.395 35.7701 85.2357 34.4097 87.7094C33.4594 89.4113 33.4151 90.8772 33.767 91.7212C34.1327 92.6207 34.7782 93.0455 35.4293 93.1094C36.0226 93.1621 36.6205 93.1066 37.1941 92.9456C37.4169 92.895 37.6484 92.8968 37.8704 92.9507C38.0925 93.0047 38.2991 93.1093 38.4741 93.2565C38.8647 93.5952 38.8509 93.8118 38.8509 93.8118C38.1969 93.6778 37.5167 93.8085 36.9586 94.1755L36.942 94.181ZM35.8255 70.6628L36.604 69.8521L37.9892 71.7761L37.6568 72.1454L35.8255 70.6628ZM37.1442 72.6451L36.8672 72.945L34.9749 71.654L35.2215 71.3764L35.3268 71.2014L37.1442 72.6451ZM38.4935 71.9483L38.8065 72.0427L37.4213 73.6474L37.2994 73.4253L38.4935 71.9483ZM39.078 72.8284L41.0174 74.8745L40.3525 75.613L38.1887 73.8501L39.078 72.8284ZM41.5022 75.2743L41.6601 75.4131L40.9481 76.3182L40.7154 76.1738L41.5022 75.2743ZM42.0813 75.774L54.3574 88.3674L54.1025 88.6256L41.4413 76.4737L42.0813 75.774ZM54.0277 72.2481C54.6261 72.2481 54.712 72.4036 54.1939 72.8228C53.6758 73.242 51.2904 73.9028 51.2904 73.9028C51.2904 73.9028 52.2712 74 52.8308 74.0472C53.3905 74.0944 53.5761 74.2249 53.2298 74.6246C52.8308 75.0855 50.113 75.4575 50.113 75.4575C50.6014 75.5313 51.0839 75.6408 51.5564 75.7851C51.8058 75.8823 52.0911 76.0628 51.4871 76.482C50.8832 76.9012 48.93 77.3593 48.93 77.3593C48.93 77.3593 50.1545 77.8035 49.412 78.2422C48.6695 78.6808 46.9186 79.0279 46.9186 79.0279C46.9186 79.0279 47.9769 79.386 47.7497 79.7358C47.6722 79.8552 47.3342 79.9385 46.9491 80.0551L45.0651 78.1117C48.5698 74.7468 51.4594 72.1815 53.6537 71.0571C55.8479 69.9327 56.0751 70.1464 55.1802 71.0043C54.2854 71.8622 52.6646 72.2481 52.6646 72.2481C52.6646 72.2481 53.4958 72.2481 54.0499 72.2481H54.0277ZM53.0746 88.8116L53.6952 89.4141C53.662 89.4307 53.6537 89.4335 53.6565 89.4391C52.2989 89.6584 52.2989 89.2114 52.2989 89.2114C52.5868 89.1407 52.8543 89.0039 53.0802 88.8116H53.0746ZM51.9166 88.7061C51.3687 88.1262 50.8658 87.5053 50.4122 86.8488C49.8913 86.1242 49.4619 85.5661 48.9189 84.7027L52.6424 88.3952C52.4376 88.5828 52.1743 88.6936 51.8972 88.7089L51.9166 88.7061ZM53.0802 91.2742C53.5983 90.619 53.3988 90.1915 53.3988 90.1915C53.6713 90.2548 53.9535 90.2652 54.2299 90.222C54.4084 90.1899 54.5817 90.1338 54.7453 90.0554C54.8078 90.2392 54.8274 90.4349 54.8024 90.6275C54.7774 90.8201 54.7086 91.0043 54.6012 91.1659C54.2272 91.7212 53.831 91.6462 53.1495 91.7878C52.6369 91.8961 52.4818 91.749 52.4818 91.749C52.7168 91.6444 52.9231 91.4844 53.083 91.2825L53.0802 91.2742ZM45.1981 81.1129C45.1827 81.1587 45.1603 81.2018 45.1316 81.2406C44.7964 81.6432 41.6546 82.2623 41.6546 82.2623L35.4653 88.162C35.4653 88.162 35.5429 87.4651 36.5153 86.4073C38.1776 84.6222 41.3443 81.807 43.5524 79.5887L45.1981 81.1129ZM36.3325 91.7295C36.0049 91.7489 35.6828 91.6394 35.4348 91.4241C34.8807 90.8689 35.0774 89.9693 35.0774 89.9693C35.3135 90.1262 35.5849 90.2216 35.867 90.247C36.0831 90.272 36.4931 90.272 36.4931 90.272C36.3848 90.4773 36.317 90.7017 36.2937 90.9327C36.282 91.1943 36.295 91.4565 36.3325 91.7157V91.7295ZM36.1745 89.7112C35.8849 89.6498 35.6118 89.5267 35.3739 89.3502L36.1745 88.5173C36.3587 88.6637 36.5643 88.7807 36.784 88.8644C37.1966 89.0116 37.6365 89.0656 38.0723 89.0226C38.0723 89.0226 37.6512 89.9166 36.1718 89.7L36.1745 89.7112ZM37.8673 88.4812C37.6637 88.448 37.4768 88.3484 37.3355 88.1978C37.1942 88.0472 37.1065 87.854 37.086 87.6484L42.1533 82.812C42.1533 82.812 42.2087 82.812 42.2974 82.7953C42.2053 83.0537 42.0874 83.302 41.9455 83.5366C41.1448 84.9109 40.3248 85.63 39.6903 86.3129C39.0559 86.9959 37.8673 88.4812 37.8673 88.4812ZM39.3994 95.6025C38.765 95.3871 38.2061 94.9929 37.7897 94.467C38.0598 94.3896 38.3402 94.3549 38.6209 94.3643C38.948 94.4017 39.265 94.5016 39.5546 94.6586C39.5584 94.4472 39.5408 94.2361 39.5019 94.0283C39.4542 93.5381 39.2479 93.077 38.9146 92.7151C38.2607 91.9044 37.4434 92.0183 37.2384 91.8406C37.1329 91.6595 37.0721 91.4558 37.0611 91.2465C37.0386 91.1029 37.0483 90.9562 37.0895 90.8169C37.1307 90.6777 37.2024 90.5493 37.2994 90.4413C37.4628 90.2581 38.0779 90.0721 38.4824 89.6084C38.7395 89.3139 38.9738 89.0002 39.1833 88.67H38.74C38.74 88.67 39.7624 87.3763 41.0368 85.9853C41.8794 85.0414 42.5373 83.947 42.9761 82.7592C43.1535 82.7592 43.0454 82.7592 43.2199 82.7592C43.0524 83.3969 42.8385 84.0214 42.58 84.6277C42.2032 85.4606 41.5161 86.5017 40.8678 87.7788C40.0699 89.3447 39.4493 90.6579 39.5102 91.8406C39.6654 94.5253 42.7794 95.5747 42.7794 95.5747C41.6709 95.8895 40.4981 95.8971 39.3856 95.5969L39.3994 95.6025ZM42.7046 88.5645C42.4378 89.6828 42.2727 90.8229 42.2115 91.9711C42.1582 92.8542 42.2178 93.7406 42.3888 94.6086C41.9388 94.3512 41.5617 93.9832 41.2931 93.5392C41.0246 93.0951 40.8734 92.5899 40.8539 92.071C40.8318 91.016 41.264 89.8083 41.6685 88.7922C42.073 87.7761 43.8489 82.8703 43.8489 82.8703L44.0677 82.8287C43.8128 84.1641 42.8598 87.951 42.7074 88.5645H42.7046ZM43.2061 95.1638C42.9706 95.0472 42.8958 92.518 42.99 91.4241C43.1285 89.7223 43.5718 87.801 44.0677 85.4523C44.2506 84.55 44.4057 83.5977 44.5498 82.8287C44.7077 82.8287 44.6828 82.7815 44.8268 82.7815C44.8601 84.3667 44.8961 86.7016 44.8684 88.6117C44.6015 89.0898 44.3664 89.5851 44.1647 90.0943C43.8512 91.0028 43.6702 91.9519 43.6272 92.9122C43.5875 93.6253 43.6548 94.3403 43.8267 95.0333C43.8267 95.0333 43.4444 95.2915 43.2033 95.1749L43.2061 95.1638ZM45.0208 97.9513L44.7437 97.6736C44.7437 97.6736 44.306 97.1434 44.0843 96.8407C43.8633 96.5734 43.6933 96.2675 43.5829 95.9384L44.0456 95.758C44.2027 96.1155 44.388 96.4599 44.5997 96.788C44.7238 96.9835 44.8697 97.1642 45.0346 97.3266L45.0208 97.9513ZM45.0873 96.4104L45.0402 93.8451C45.0208 92.7984 44.9598 90.1554 44.9626 89.4752C44.9626 89.4752 46.2287 90.4219 46.1456 93.101C46.1576 94.2904 45.7865 95.452 45.0873 96.4132V96.4104ZM45.658 82.8092C45.8519 82.8092 45.899 82.8564 46.0237 82.8564V82.8148C46.0237 82.8148 48.0323 87.9537 48.434 88.9699C48.8358 89.986 49.2652 91.2159 49.2486 91.9738C49.2209 94.2338 47.2316 95.2221 47.2316 95.2221C47.6766 94.2202 47.9024 93.1344 47.8938 92.0377C47.8938 90.0943 45.9766 84.0003 45.6608 82.8064L45.658 82.8092ZM51.1685 93.573C50.4814 95.6164 48.3509 95.6691 47.7774 95.6525C47.7497 95.6525 49.304 95.0556 49.7639 93.4536C50.1573 92.0655 50.185 90.8578 49.1211 88.5423C48.2207 86.5739 47.0349 83.6949 46.7246 82.812C46.8659 82.812 46.8549 82.812 47.0017 82.812L47.1236 82.923C47.3591 83.345 48.0406 84.55 48.8579 86.1741C49.8664 88.2064 50.3596 88.981 50.7807 89.9249C51.4678 91.4741 51.4733 92.6513 51.1602 93.5786L51.1685 93.573ZM52.4873 83.6727C52.8185 83.9333 53.1357 84.2113 53.4376 84.5056C54.0499 85.0164 55.6013 86.2158 56.6541 86.449C58.0255 86.7266 59.1144 86.3462 59.4551 85.7854C59.6076 85.5358 59.6774 85.2443 59.6546 84.9525C59.8182 85.0752 59.9424 85.2431 60.012 85.4356C60.2143 86.0325 59.7571 86.66 59.2169 86.9404C58.4916 87.276 57.6789 87.3732 56.8952 87.218C56.0973 87.218 56.7456 87.5345 57.2082 87.8455C58.419 88.6784 59.9483 88.9199 60.0369 90.0887C60.0951 90.9216 60.0148 90.9522 59.8458 91.8683C59.7156 92.5874 59.5327 92.1876 59.5327 92.1876C59.5034 91.9393 59.4222 91.7 59.2944 91.4852C58.8235 90.7689 58.1502 90.6523 57.7125 89.8999C57.3163 89.2253 56.6181 88.0398 56.2995 88.3979C56.0529 88.4785 58.0588 91.3631 56.6181 93.2787C55.014 95.4165 53.7063 93.834 52.8502 93.8645C52.4014 93.8839 51.6395 94.3476 51.6395 94.3476C51.6395 94.3476 51.8501 93.2065 52.141 92.9317C52.4319 92.6568 52.817 92.6041 53.5013 92.5041C54.1856 92.4042 55.4407 92.2737 55.5349 90.5302C55.5736 89.8805 55.0362 89.0115 54.845 88.7283L55.1996 88.2952L49.7639 82.7343C49.9052 82.7343 49.9024 82.7704 50.0271 82.7704C50.4316 82.812 51.6368 82.9814 52.4956 83.631L52.4873 83.6727ZM54.1579 76.0989C53.7728 76.3099 53.4985 76.4459 53.2547 76.5542L52.745 76.7596C51.501 77.2455 51.3597 78.6447 51.1242 80.3883C50.8887 82.1318 50.5092 81.8514 49.908 81.8514C49.7805 81.8514 49.437 81.8347 48.8385 81.8347L47.4838 80.5132C47.7065 80.4641 47.9168 80.3696 48.1016 80.2356C48.172 80.1902 48.232 80.1302 48.2776 80.0598C48.3231 79.9894 48.3532 79.91 48.3658 79.827C48.3784 79.744 48.3732 79.6593 48.3506 79.5785C48.3279 79.4977 48.2884 79.4226 48.2346 79.3583C48.8809 79.2525 49.5036 79.0336 50.0742 78.7114C50.9053 78.2116 50.415 77.6647 50.415 77.6647C51.0515 77.4554 51.6629 77.1761 52.238 76.8318C53.119 76.2405 52.479 75.6019 52.479 75.6019C53.0094 75.5255 53.5052 75.2926 53.903 74.9328C54.8893 73.8917 53.7257 73.7112 53.7257 73.7112C54.2062 73.5451 54.6536 73.2951 55.0472 72.9727C55.8535 72.2204 54.9891 71.9261 54.9891 71.9261C54.9891 71.9261 56.4325 70.9405 56.4325 70.0604C56.4325 69.3913 55.5487 69.469 54.9475 69.6772C54.2133 69.9327 53.0082 70.5268 51.3265 71.7067C49.8969 72.7118 46.9518 75.2493 44.583 77.5953L42.181 75.141L38.8702 71.6012L38.5378 71.4763L36.4405 68.9387L34.0163 71.6679L36.6705 73.5974L36.7453 73.8389L40.5464 76.7985L43.0814 79.15C42.1616 80.1301 41.3859 80.9297 40.3663 81.8736H40.0893C39.4908 81.8736 39.1224 82.1512 38.8786 80.4105C38.6348 78.6697 38.5129 77.2372 37.255 76.7652C36.77 76.5785 36.2988 76.3576 35.8448 76.1044C35.9834 75.4464 35.5678 74.9939 35.3295 75.0633C35.2035 75.0814 35.0829 75.1264 34.9758 75.1954C34.8687 75.2644 34.7777 75.3557 34.7089 75.4631C34.6556 75.4353 34.6039 75.4047 34.5538 75.3715C34.5538 75.3548 34.6979 75.0605 34.7089 75.0439C34.9361 74.6274 34.9417 73.8112 34.3876 73.6807C34.2865 73.6434 34.1772 73.6349 34.0716 73.6559C33.966 73.677 33.8682 73.7269 33.7891 73.8001C33.7891 73.8001 33.7116 73.9306 33.6284 73.7001C33.5535 73.5252 33.5332 73.3316 33.5703 73.1449C33.5747 72.757 33.5061 72.3717 33.368 72.0093C33.1768 71.4541 32.6671 71.3875 32.3679 71.6484C32.0686 71.9094 32.3014 72.2037 32.0105 72.4813C32.0105 72.4813 31.9246 72.4813 31.9135 72.5008C31.6403 72.1231 31.4081 71.7173 31.2209 71.2903C29.5309 67.4978 30.628 62.5421 31.1516 60.4821C31.6752 58.4221 33.3486 54.7656 34.1742 52.9472C34.6782 51.9153 35.0505 50.8239 35.2824 49.6989L38.161 48.9354C37.9312 50.5016 37.5857 52.0485 37.1276 53.5635C36.5264 55.5958 35.421 58.7524 35.0331 60.3766C34.6452 62.0007 34.2906 65.6516 35.8255 67.8726C36.9452 69.4694 38.5188 70.6913 40.3414 71.3791V49.4906L41.0728 48.9132V71.629C41.5798 71.7706 42.0369 71.89 42.483 71.9844V49.4962L43.2172 48.9187V72.1065C43.684 72.1706 44.1537 72.2104 44.6246 72.2259V49.4906L45.356 48.9132V72.2176C45.8278 72.2021 46.2985 72.1623 46.7662 72.0982V49.4906L47.4976 48.9132V71.976C47.9492 71.8816 48.4036 71.7623 48.9023 71.6207V49.4906L49.6392 48.9132V71.3791C51.4617 70.694 53.035 69.4726 54.1524 67.8754C55.6872 65.6682 55.3298 61.9979 54.9447 60.3794C54.5596 58.7608 53.4514 55.5985 52.8502 53.5663C52.4308 52.299 52.1175 50.9989 51.9138 49.6794L54.5957 49.0159C54.6289 49.2324 54.6677 49.4407 54.7093 49.6433V49.7072C54.903 50.6707 55.2089 51.6081 55.6207 52.5002C55.6845 52.6584 55.7537 52.8139 55.8175 52.9555C56.6486 54.774 58.3109 58.4276 58.8484 60.4904C59.3859 62.5532 60.4636 67.5062 58.7708 71.2986C58.696 71.4735 58.6212 71.629 58.5464 71.7817C58.4106 72.0316 58.2694 72.2231 58.0893 72.5091C58.0893 72.5091 58.0006 72.5091 57.9923 72.4897C57.6986 72.212 57.912 71.9094 57.6294 71.6568C57.3468 71.4041 56.8231 71.4513 56.632 72.0177C56.4905 72.379 56.4227 72.7651 56.4325 73.1532C56.4635 73.3406 56.4414 73.533 56.3688 73.7085C56.2884 73.9389 56.2136 73.8084 56.2136 73.8084C56.1348 73.7357 56.0375 73.6861 55.9325 73.6651C55.8274 73.644 55.7186 73.6523 55.618 73.689C55.0639 73.8195 55.0639 74.6357 55.2938 75.0522C55.2938 75.0716 55.4407 75.3631 55.449 75.3798C55.3548 75.4464 55.3853 75.4103 55.2938 75.4714C55.2255 75.3637 55.1346 75.2721 55.0275 75.2031C54.9203 75.134 54.7994 75.0892 54.6732 75.0716C54.4322 75.0133 54.0249 75.4548 54.1524 76.1127L54.1579 76.0989ZM57.4465 72.7395C57.4222 72.8165 57.3725 72.883 57.3056 72.9279C57.2386 72.9728 57.1583 72.9935 57.078 72.9866C56.9589 72.9644 56.9838 72.709 57.1057 72.4314C57.2276 72.1537 57.2997 72.4036 57.2997 72.4036C57.2997 72.4036 57.4991 72.5813 57.4437 72.7478L57.4465 72.7395ZM56.2718 74.8523C55.9283 75.3021 55.8562 74.9744 55.7343 74.4886C55.6124 74.0027 56.1748 74.3887 56.1748 74.3887C56.1748 74.3887 56.6154 74.4109 56.269 74.8495L56.2718 74.8523ZM54.6289 76.1266C54.6843 75.6852 54.8533 75.6852 54.9974 75.8296C55.0432 75.8606 55.0799 75.9034 55.1037 75.9534C55.1275 76.0034 55.1375 76.0589 55.1327 76.1141C55.1279 76.1693 55.1084 76.2223 55.0763 76.2674C55.0443 76.3126 55.0008 76.3483 54.9503 76.3709C54.6732 76.5653 54.5846 76.5653 54.6289 76.1266ZM55.7371 77.6925C55.2467 77.6925 54.9808 77.5231 54.9808 77.0262C54.9808 76.5292 55.4185 76.5847 55.859 76.6625C56.2995 76.7402 56.3245 76.4459 56.4131 77.0262C56.5018 77.6064 56.2109 77.6925 55.726 77.6925H55.7371ZM57.6792 77.0484C57.5629 77.226 57.2886 77.2982 57.1722 77.1067C57.0559 76.9151 57.2166 76.7652 57.6543 76.5514C58.092 76.3376 58.3414 76.3099 58.2638 76.7485C58.1862 77.1872 57.8039 76.8929 57.6792 77.0622V77.0484ZM59.8956 75.1188C59.5105 75.6574 59.0202 75.3965 58.4771 75.5603C57.9341 75.7241 57.4521 76.171 56.8425 76.0961C56.233 76.0211 56.2884 75.5825 56.6735 75.0938C57.0586 74.6052 57.5573 75.1188 57.8233 75.1688C58.0893 75.2188 58.6323 74.9717 58.8235 74.8912C59.0146 74.8107 58.9925 75.0883 59.1421 75.0355C59.2917 74.9828 59.1615 74.7218 59.2363 74.6191C59.3111 74.5164 59.4302 74.7662 59.6075 74.6941C59.7848 74.6219 59.6546 74.3998 59.8014 74.372C59.9483 74.3442 60.2891 74.5719 59.8956 75.1105V75.1188ZM59.9206 73.2476C60.1976 73.1504 60.048 72.659 60.048 72.659C60.048 72.659 60.4636 72.9366 60.5356 72.7562C60.6077 72.5757 60.1949 72.2675 60.0702 72.0205C59.9455 71.7734 59.8208 71.4652 59.9981 71.3847C60.1755 71.3042 60.4414 71.9982 60.7019 72.3175C60.8432 72.4611 60.9359 72.6457 60.9667 72.845C60.9975 73.0443 60.965 73.2483 60.8736 73.428C60.7019 73.9195 59.5105 73.6002 58.9343 74.0138C58.358 74.4275 58.0034 74.7523 57.3717 74.4608C56.74 74.1693 57.1279 73.3836 57.1279 73.3836L57.8399 73.2115C57.8399 73.2115 58.25 73.7029 58.6212 73.6502C58.9925 73.5974 59.228 73.0144 59.4053 73.0144C59.5826 73.0144 59.6435 73.3531 59.9095 73.2587L59.9206 73.2476ZM61.9514 59.2772C61.7857 59.5619 61.5752 59.8178 61.328 60.0351C60.6256 59.4755 60.0655 58.7572 59.6934 57.939C59.3086 57.1056 59.1118 56.1975 59.1171 55.2793L60.1949 54.4464C60.1949 54.4464 60.5578 54.724 61.1396 55.0905C61.4182 55.2816 61.7119 55.4497 62.0178 55.593C61.9972 56.1959 62.0663 56.7985 62.2229 57.3809C62.2947 57.655 62.3874 57.9233 62.4999 58.1833C62.3545 58.5719 62.1688 58.9441 61.9458 59.2938L61.9514 59.2772ZM65.0211 66.1374C65.0211 66.1374 63.96 65.9542 63.2563 64.194C62.7908 63.0529 62.5553 61.973 62.4251 60.1239C62.6274 59.7602 62.946 59.0134 62.9792 58.919C63.4455 59.4629 64.0228 59.9003 64.672 60.2017C64.8872 61.2486 65.2055 62.2716 65.6223 63.2556C65.5984 64.2475 65.3917 65.2264 65.0128 66.143L65.0211 66.1374ZM70.454 66.143C70.454 66.143 68.9829 65.6599 67.642 63.9219C66.7748 62.7892 66.1598 61.6037 65.5253 59.7241C65.5835 59.6242 65.8827 59.1689 65.9381 59.0467C66.0997 58.6939 66.234 58.3291 66.3398 57.9556C66.9772 58.5632 67.7609 58.9946 68.6144 59.2077C69.0937 60.5959 69.7448 62.2617 70.8475 63.6693C70.8669 65.7932 70.4568 66.1458 70.4568 66.1458L70.454 66.143ZM75.6238 64.8714C75.6238 64.8714 74.1859 64.8714 72.6067 63.3334C71.36 62.1346 70.376 60.689 69.7171 59.0884C69.8379 58.676 69.9305 58.2558 69.9941 57.8307C70.037 57.3977 70.037 56.9616 69.9941 56.5286C70.5564 56.7498 71.1524 56.8728 71.7562 56.8923C72.4017 58.236 73.5709 60.4654 75.308 62.0257C75.3412 62.1618 75.5573 63.1585 75.61 63.6693C75.6449 64.0692 75.6449 64.4715 75.61 64.8714H75.6238ZM79.9264 62.7115C79.9264 62.7115 78.4636 62.5199 76.6739 61.2539C74.6763 59.8352 73.0971 57.5031 72.6012 56.8618C72.7282 56.8596 72.8541 56.839 72.9752 56.8007C73.0211 56.2708 73.0109 55.7376 72.9447 55.2099C72.8753 54.7662 72.7668 54.3295 72.6206 53.905C72.7785 53.9244 72.9392 53.9439 73.086 53.955C73.4157 54.3908 74.125 55.2737 74.3106 55.518C75.1833 56.6508 77.3249 59.0856 79.4721 60.0545C79.6657 60.5518 79.8014 61.0697 79.8766 61.5982C79.9359 61.9651 79.9536 62.3377 79.9292 62.7087L79.9264 62.7115ZM83.6001 59.3771C83.6001 59.3771 82.3395 59.4687 79.835 58.361C77.5189 57.3365 74.6154 54.6768 73.8756 53.9966C74.4297 53.9966 75.6321 54.0133 76.1918 53.7773C76.4245 53.9494 76.4855 53.9189 76.6822 54.0549C77.7904 54.8323 80.2118 56.2315 82.2232 56.673C83.4644 58.1999 83.5918 59.3688 83.5918 59.3688L83.6001 59.3771ZM85.3622 53.4052C86.2155 54.1826 86.5757 54.8239 86.6006 54.9877C85.2153 55.3403 83.7996 55.5958 80.1869 54.1549C76.2777 52.5751 74.8509 51.1009 74.1804 50.8233C74.8167 50.7395 75.4432 50.5926 76.0505 50.3846C76.6167 50.729 77.2199 51.0084 77.8485 51.2175C79.7372 51.9218 81.732 52.2973 83.747 52.328C84.333 52.6247 84.8771 52.9982 85.3649 53.4386L85.3622 53.4052ZM85.944 48.5495C86.9386 49.0742 87.6063 49.4851 87.7032 49.6128C87.1048 50.0626 86.0797 50.6484 82.201 50.4679C80.2229 50.3818 78.9096 50.1903 77.7045 49.7738C77.7045 49.7738 78.4996 49.424 78.6603 49.1547C78.4834 48.7527 78.2182 48.3959 77.8846 48.1108C77.4052 47.7036 76.835 47.4179 76.2223 47.2779C76.4246 47.1953 76.6193 47.0949 76.8041 46.9781C77.6052 47.2305 78.4238 47.4235 79.2532 47.5555C80.5929 47.7957 81.9561 47.8768 83.3148 47.7971C84.2219 47.9043 85.1065 48.1544 85.9357 48.5384L85.944 48.5495ZM84.0628 46.0397C80.7881 46.4894 78.9512 46.3173 78.2032 46.1452C78.3223 46.0508 78.6215 45.8259 78.6381 45.7426C78.445 45.4062 78.1858 45.1125 77.8763 44.8792C77.4179 44.5188 76.885 44.2655 76.3165 44.1379C77.2972 44.174 78.7794 44.2628 80.439 44.1795C81.6457 44.1723 82.8446 43.9852 83.9963 43.6243C84.6446 43.6576 85.8359 43.5937 86.9192 43.8075C87.4587 43.9243 87.9877 44.0849 88.5012 44.2878C87.9471 44.7293 86.62 45.6954 84.0683 46.0424L84.0628 46.0397ZM67.3539 46.8059L69.2932 46.9586L69.7088 46.4034L69.2655 45.8592L67.3566 46.1091L67.3539 46.8059ZM25.4471 28.2657C25.4471 28.2657 25.4305 28.1158 25.4305 27.9075C25.4305 27.6993 25.4554 27.43 25.4554 27.43C25.1189 27.7123 24.8636 28.0793 24.7157 28.4933C24.6326 28.7232 24.5877 28.9652 24.5827 29.2096C24.5827 29.2096 24.6326 28.9959 25.2227 28.8376C25.6646 28.7405 26.1175 28.7041 26.5692 28.7293L26.7299 28.4073C26.5314 28.3045 26.3131 28.2458 26.0899 28.2351C25.8752 28.2152 25.6587 28.2264 25.4471 28.2685V28.2657ZM64.8632 28.8404C65.445 28.9986 65.5004 29.2124 65.5004 29.2124C65.4951 28.968 65.4501 28.7261 65.3674 28.4961C65.2169 28.082 64.9598 27.7152 64.6221 27.4328C64.6221 27.4328 64.6498 27.7104 64.6498 27.9103C64.6498 28.1102 64.6332 28.2685 64.6332 28.2685C64.4216 28.2266 64.2052 28.2154 63.9905 28.2351C63.7663 28.2454 63.5471 28.3042 63.3477 28.4073L63.5056 28.7293C63.96 28.7041 64.4157 28.7406 64.8604 28.8376L64.8632 28.8404ZM48.0656 11.5189C48.3195 11.8916 48.5525 12.2781 48.7637 12.6767L49.2153 12.2658C49.2846 12.1964 49.4508 12.0242 49.545 11.9243C49.3342 11.5249 49.103 11.1366 48.8524 10.761C48.5449 11.0692 48.2318 11.3773 48.0628 11.5189H48.0656ZM48.9577 9.83649C49.2347 9.52832 49.4259 9.33398 49.6448 9.06745C49.5429 8.92226 49.4338 8.78234 49.3178 8.64823L48.9521 8.22345C48.8496 8.33451 48.7333 8.45666 48.6003 8.60381C48.4673 8.75095 48.3592 8.82591 48.2124 8.96751C48.4424 9.21182 48.6834 9.48112 48.8718 9.72544C48.9133 9.78097 48.9272 9.77819 48.9715 9.83927L48.9577 9.83649ZM40.8955 9.76153C41.0811 9.51722 41.3221 9.25069 41.5521 9.0036C41.4053 8.85923 41.3305 8.80648 41.1615 8.6399C40.9925 8.47332 40.9149 8.36227 40.8151 8.25954C40.6905 8.39836 40.5686 8.53718 40.4439 8.68432C40.3192 8.83147 40.2139 8.96195 40.1003 9.10355C40.3248 9.38118 40.5021 9.56719 40.793 9.86981C40.8345 9.81428 40.8456 9.81706 40.8899 9.76153H40.8955ZM33.1602 16.6579C33.0329 16.4588 32.8863 16.2728 32.7225 16.1026L32.1684 16.7384C32.3318 16.9328 32.4454 17.1132 32.6061 17.3298C32.7447 17.1854 33.0079 16.855 33.1602 16.6607V16.6579ZM41.6795 11.5634C41.5105 11.4218 41.1947 11.1136 40.8899 10.8054C40.6353 11.1784 40.4039 11.5669 40.1973 11.9687L40.527 12.3102C40.6822 12.4518 40.8401 12.5878 40.9758 12.7211C41.1874 12.3219 41.4233 11.9362 41.6823 11.5661L41.6795 11.5634ZM58.0782 16.8883L57.5241 16.2553C57.3589 16.4243 57.2122 16.6105 57.0863 16.8106C57.247 17.0077 57.5075 17.3353 57.6404 17.4797C57.8011 17.2604 57.9175 17.0799 58.0865 16.8883H58.0782ZM13.8138 21.6081C14.4537 21.3721 14.825 21.4498 15.4761 21.6081C15.9647 21.6872 16.4646 21.6597 16.9417 21.5276C16.4889 21.7896 16.1346 22.1934 15.9332 22.677C15.7005 23.3849 16.0052 24.4732 16.986 24.6204C17.9668 24.7675 18.3186 24.6842 18.7813 24.7648C19.1302 24.8175 19.4816 24.8527 19.8341 24.8703C19.6024 24.607 19.3553 24.3576 19.0944 24.1234C18.7813 23.8458 18.2632 23.6043 18.435 23.1101C18.5707 22.7131 19.4434 22.0801 20.0973 21.4804C20.837 20.8113 20.7428 19.7646 20.2275 19.0761C19.6734 18.3098 19.2495 17.7157 18.676 16.9494C18.0526 16.1165 18.7148 15.2087 18.7148 15.2087C18.7148 15.2087 19.7731 15.0921 20.6541 14.931C21.1197 14.8584 21.5706 14.7113 21.9895 14.4952C21.9567 15.0763 21.8948 15.6554 21.8039 16.2304C21.6986 16.8578 21.211 18.3181 22.0339 19.5786C22.696 20.5975 24.7296 21.261 25.3806 21.3915C26.1068 21.5339 26.8417 21.6266 27.5804 21.6692H27.7051C28.3866 21.7164 29.1845 21.7497 31.3428 21.7219C33.063 21.7078 34.7808 21.5928 36.4876 21.3776C37.3782 21.2664 38.2597 21.091 39.1251 20.8529C40.6226 20.4076 41.966 19.5518 43.0038 18.382C43.6141 18.6305 44.2652 18.7632 44.9238 18.7735C45.5439 18.7357 46.1553 18.6076 46.7385 18.3931C46.7385 18.3931 48.3454 20.0589 49.7362 20.5725C50.9637 21.0231 52.2408 21.3242 53.5401 21.4693L53.698 21.5054C55.3808 21.7177 57.0748 21.8289 58.7708 21.8385C60.9207 21.8663 61.7214 21.8385 62.4002 21.783H62.5276C63.2662 21.7396 64.0011 21.6469 64.7274 21.5054C65.3729 21.3721 67.4093 20.7141 68.077 19.6952C68.9081 18.4347 68.4094 16.9744 68.3069 16.3442C68.2148 15.7695 68.1538 15.1903 68.1241 14.609C68.5394 14.8256 68.9879 14.971 69.4511 15.0393C70.3211 15.1948 71.3905 15.3169 71.3905 15.3169C71.3905 15.3169 72.0554 16.2192 71.4348 17.0494C70.8558 17.8184 70.4485 18.4153 69.8778 19.1788C69.3625 19.8673 69.2683 20.914 70.0108 21.5859C70.6785 22.18 71.5484 22.8186 71.6731 23.21C71.8476 23.7042 71.3351 23.9485 71.0109 24.2234C70.7481 24.4625 70.5002 24.7174 70.2684 24.9869C70.2684 24.9869 70.8586 24.9535 71.3185 24.8814C71.7784 24.8092 72.1164 24.9063 73.1082 24.7425C74.1001 24.5787 74.3965 23.4849 74.1665 22.7797C73.9619 22.2931 73.6025 21.888 73.1442 21.6275C73.6229 21.7616 74.125 21.7891 74.6154 21.708C75.2581 21.5526 75.6211 21.4693 76.2777 21.708C76.9343 21.9468 76.9648 22.3188 76.9648 22.3188C77.1807 21.8586 77.2596 21.3458 77.1919 20.8418C77.0562 20.0922 76.1059 19.6758 75.0974 19.6008C74.089 19.5258 74.6431 18.854 75.0586 18.4597C75.4742 18.0655 76.5436 17.2631 76.2804 15.9611C76.0172 14.659 74.837 14.2953 73.3243 13.8982C71.8116 13.5012 71.6481 12.1964 70.8696 11.5745C69.4844 10.4862 68.2986 11.3163 67.8387 11.6661C67.3788 12.0159 66.6474 11.9909 66.1431 12.1492C65.6389 12.3074 65.1762 12.6295 64.6332 13.5956C63.8325 15.0115 64.9546 16.5163 65.5087 18.0155C66.0628 19.5147 65.3563 20.6697 63.5693 21.0473C63.1192 21.1473 62.659 21.1948 62.1979 21.1889C62.2256 21.0473 62.2533 20.8835 62.2838 20.7252C62.4139 20.1807 62.6093 19.654 62.8656 19.1566C63.1607 18.529 63.4062 17.8792 63.5998 17.2132C63.6247 16.8785 63.5575 16.5434 63.4056 16.2443C63.2537 15.9452 63.0229 15.6936 62.7382 15.5168C62.2574 15.3155 61.763 15.1485 61.2587 15.0171C60.9278 14.9334 60.62 14.7758 60.3583 14.5562C60.4389 14.4069 60.4817 14.2401 60.483 14.0704C60.4819 13.8719 60.4211 13.6784 60.3084 13.5151H60.4774V13.4235L59.8458 12.4296L60.8681 12.6517L60.8487 11.5162L59.7821 11.7549L60.0342 10.6444L58.8567 10.6139L59.1338 11.8327L58.092 11.5189L58.0754 12.6295L59.034 12.3518L58.4799 13.4457V13.5318H58.6711L58.6323 13.5984C58.5433 13.75 58.4955 13.9223 58.4938 14.0981C58.4932 14.2637 58.5362 14.4265 58.6184 14.5701C58.3512 14.7899 58.0391 14.9482 57.7042 15.0338C57.206 15.16 56.718 15.3234 56.2441 15.5224C55.9599 15.6983 55.7293 15.9489 55.5773 16.247C55.4254 16.5451 55.358 16.8793 55.3825 17.2132C55.4656 18.1155 55.7537 18.4958 56.1167 19.1566C56.3833 19.643 56.5837 20.1632 56.7123 20.703C56.7345 20.8196 56.7428 20.8946 56.776 21.0667C56.704 21.0667 56.2829 21.0389 56.2219 21.0306C55.3756 20.9543 54.544 20.7609 53.7507 20.4559L53.7202 20.4337C51.8584 19.6008 50.3124 18.1627 49.7445 17.2715C49.1267 16.2831 49.1904 15.7723 49.2513 15.3614C49.3077 15.0212 49.3939 14.6868 49.509 14.3619C49.7244 13.7525 49.9933 13.1635 50.3125 12.6017C50.8998 11.53 51.3209 10.8276 51.3209 9.71156C51.3209 8.25122 50.7862 7.53493 50.052 7.04352C49.5727 6.71869 48.894 6.61874 47.7996 6.28558C47.2079 6.11201 46.6536 5.82957 46.165 5.45269C46.3065 5.24847 46.3898 5.00948 46.406 4.76138C46.4061 4.47962 46.3295 4.20317 46.1844 3.96181C46.1655 3.92202 46.1433 3.88394 46.1179 3.84798H46.2952V3.70916L45.3283 2.3682L46.7634 2.55976L46.708 1.09109L45.392 1.38816L45.8242 0H44.0123L44.3642 1.36317L42.929 1.08554V2.65971L44.4307 2.38208L43.3474 3.7397V3.88684H43.4998C43.3189 4.15072 43.2223 4.46345 43.2227 4.7836C43.2093 5.09634 43.2925 5.40562 43.461 5.66924C42.9908 6.00279 42.457 6.23532 41.8929 6.35221C40.7847 6.6465 40.1419 6.71036 39.5075 7.08516C38.8148 7.50439 38.2995 8.40391 38.3632 9.86148C38.4214 11.108 39.2443 12.2602 39.7873 13.3652C40.1282 13.9697 40.3536 14.6325 40.4522 15.3197C40.4917 15.6285 40.4917 15.941 40.4522 16.2498C40.4148 16.6772 40.2464 17.0826 39.9701 17.4103C39.2193 18.4625 38.1527 19.2676 36.3269 20.1866C35.5644 20.5909 34.7307 20.8427 33.8722 20.9279C33.8058 20.9279 33.3846 20.9667 33.3181 20.9612C33.3542 20.7891 33.3625 20.7141 33.3874 20.5975C33.5187 20.0594 33.719 19.5405 33.9831 19.0539C34.3405 18.3848 34.6314 18.0072 34.7117 17.1104C34.7367 16.7761 34.6696 16.4414 34.5176 16.1427C34.3657 15.8441 34.1348 15.593 33.8501 15.4169C33.3709 15.2112 32.8762 15.0441 32.3706 14.9172C32.0303 14.8282 31.7141 14.6641 31.4453 14.4369C31.5249 14.2924 31.5659 14.1299 31.5644 13.9649C31.5634 13.7905 31.5176 13.6194 31.4314 13.4679L31.3926 13.4013H31.5866V13.3152L31.0325 12.2158L31.9911 12.4934L31.9689 11.3829L30.9327 11.6911L31.2098 10.475L30.0296 10.5084L30.2844 11.6189L29.2206 11.3857L29.1984 12.5184L30.2207 12.2908L29.589 13.3263V13.4152H29.7608C29.6449 13.577 29.5828 13.7713 29.5835 13.9704C29.5836 14.1431 29.6295 14.3127 29.7165 14.4618C29.4504 14.674 29.144 14.8299 28.8161 14.9199C28.311 15.0477 27.8165 15.2138 27.3366 15.4169C27.0509 15.5925 26.8191 15.8439 26.6671 16.1433C26.515 16.4427 26.4485 16.7783 26.475 17.1132C26.5526 18.0155 26.8435 18.3931 27.2036 19.0566C27.4653 19.5454 27.6654 20.0648 27.7993 20.6031C27.827 20.7641 27.863 20.9251 27.8824 21.0639C27.4225 21.0683 26.9635 21.0217 26.5138 20.9251C24.7268 20.5448 24.0203 19.3898 24.5744 17.8934C25.1285 16.3969 26.2367 14.8894 25.4471 13.4762C24.893 12.5073 24.4414 12.1853 23.9344 12.0298C23.4274 11.8743 22.7043 11.9021 22.2472 11.5467C21.7901 11.1913 20.5849 10.364 19.2163 11.4579C18.435 12.0742 18.2715 13.4013 16.756 13.7816C15.2406 14.162 14.0603 14.5673 13.7999 15.8417C13.5395 17.116 14.6144 17.9461 15.0217 18.3404C15.429 18.7346 15.9942 19.4037 14.9801 19.4814C13.9661 19.5592 13.0242 19.9895 12.8912 20.7308C12.8216 21.2359 12.9015 21.7505 13.1211 22.2105C13.1211 22.2105 13.1655 21.8385 13.8054 21.5998L13.8138 21.6081ZM66.9521 12.7988C67.4598 12.7169 67.9471 12.5378 68.3873 12.2713C69.0106 11.952 69.4705 11.53 70.1632 11.8049C70.7588 12.0409 71.1162 12.6378 71.5761 13.243C71.9423 13.7577 72.4283 14.1751 72.9918 14.4591C73.4213 14.6312 74.3937 14.7367 74.9811 15.056C75.8122 15.5057 76.0283 16.4164 75.308 17.4797C74.5877 18.543 73.8396 18.9095 73.9726 19.4231C74.1194 19.9784 74.7705 20.2394 75.308 20.306C76.7958 20.4976 76.8207 21.3554 76.8207 21.3554C76.5884 21.161 76.3091 21.0315 76.0109 20.9798C75.7128 20.9281 75.4063 20.9562 75.1224 21.0611C74.5925 21.2316 74.0334 21.292 73.4795 21.2388C73.1886 21.1597 72.9157 21.0249 72.676 20.8418C72.676 20.8418 72.3048 21.3471 72.5292 21.6414C72.7536 21.9357 73.0223 22.0995 73.3049 22.4521C73.5875 22.8047 74.0807 23.446 73.0944 23.9985C72.7169 24.1946 72.2886 24.2702 71.867 24.215C72.0934 24.1494 72.2858 23.9988 72.404 23.7944C72.5223 23.5901 72.5572 23.3479 72.5015 23.1184C72.3602 22.5132 71.5152 21.9579 70.9555 21.5692C70.08 20.964 70.2103 20.1811 70.6397 19.4592C71.0691 18.7374 71.8698 17.8961 72.4294 16.9244C72.9364 16.0332 72.5319 15.6557 72.5319 15.6557C72.5319 15.6557 74.4713 15.2781 74.2552 16.8217C74.1693 17.4131 74.2552 17.9822 74.607 17.5574C74.9589 17.1327 75.3274 16.1693 74.6957 15.6557C74.064 15.142 73.449 15.0587 72.5264 14.9144C71.6038 14.77 70.0994 14.7645 68.9247 14.2231C67.75 13.6817 67.9744 13.7455 67.3732 13.5123C67.0768 13.3746 66.7474 13.3244 66.4235 13.3676C66.0996 13.4109 65.7948 13.5459 65.5447 13.7567C65.7 13.508 65.9059 13.2949 66.1488 13.1313C66.3918 12.9677 66.6665 12.8573 66.9549 12.8072L66.9521 12.7988ZM65.6638 15.9666C65.3231 15.1337 65.9409 14.5063 66.664 14.3314C66.8003 14.3028 66.941 14.3021 67.0777 14.3293C67.2143 14.3565 67.344 14.411 67.4591 14.4896C67.4591 14.4896 67.4591 14.9227 67.4924 15.1198C67.5256 15.3169 67.6475 16.1665 67.8415 17.0632C68.1601 18.5069 67.6614 19.3065 66.7554 20.0922C66.4487 20.3603 66.0904 20.5625 65.7026 20.6863C65.9035 20.4865 66.0643 20.25 66.1764 19.9895C66.4756 19.3482 66.6529 18.7901 66.4202 18.0211C66.2043 17.3234 65.9518 16.6376 65.6638 15.9666ZM61.8433 20.8946C61.8312 20.9764 61.8238 21.0589 61.8211 21.1417C61.0962 21.0004 60.3599 20.9261 59.6214 20.9196C58.8625 20.8808 58.102 20.9519 57.3634 21.1306V20.9334C57.3634 20.8613 57.3634 20.6752 57.3634 20.6752C58.0813 20.4469 58.827 20.318 59.5798 20.2921C60.3666 20.292 61.1469 20.436 61.8821 20.7169C61.8821 20.7169 61.8821 20.7918 61.8544 20.8973L61.8433 20.8946ZM57.8455 19.2121C58.1055 19.1324 58.3834 19.1324 58.6434 19.2121C58.9703 19.3593 59.2501 19.9478 59.2501 19.9478C58.9719 19.9925 58.6871 19.9706 58.419 19.884C58.1838 19.7015 57.9894 19.4717 57.8482 19.2093L57.8455 19.2121ZM59.6241 19.7646C59.4402 19.5121 59.3434 19.2063 59.3484 18.8937C59.3534 18.5811 59.4599 18.2787 59.6518 18.0322C59.832 18.2995 59.9284 18.6147 59.9289 18.9373C59.8806 19.2312 59.7782 19.5137 59.6269 19.7702L59.6241 19.7646ZM60.6575 19.3204C60.8954 19.2443 61.153 19.2592 61.3806 19.362C61.2737 19.5793 61.1112 19.7642 60.9096 19.8979C60.5808 20.0023 60.2379 20.0557 59.8929 20.0561C60.1015 19.766 60.3605 19.5158 60.6575 19.3176V19.3204ZM60.7379 15.3919L60.8542 15.4474C60.8542 15.4474 60.8265 15.8 60.7573 16.297C60.7845 16.3358 60.8141 16.3729 60.8459 16.408L61.425 15.8528C61.2144 15.6362 61.0897 15.5002 61.0897 15.5002L61.4998 15.5918L61.9292 15.6584C62.1612 15.8722 62.3651 16.1148 62.5359 16.3803C62.6689 16.2054 62.7687 16.0777 62.7687 16.0777C62.8798 16.1493 62.9743 16.2439 63.0457 16.3553C63.1482 16.5219 63.1233 16.5829 63.1233 16.5829C63.0706 16.6579 62.9404 16.8356 62.8739 16.955C63.1344 17.4714 63.1981 17.5852 63.2009 17.5907C63.2036 17.5963 63.1538 17.7351 63.0568 17.9544C63.0227 18.0595 62.9638 18.1547 62.885 18.2321C62.885 18.2321 62.6939 17.7657 62.5027 17.3686C62.3503 17.538 62.1314 17.8906 61.9985 18.0239C62.1927 18.3389 62.3358 18.6828 62.4223 19.0428C62.4223 19.0428 62.3836 19.0983 62.2727 19.2982C62.1894 19.4483 62.1189 19.6053 62.0622 19.7674C61.9698 19.2801 61.7985 18.8112 61.5552 18.3792C61.2199 18.6569 61.0011 18.8096 61.0011 18.8151L60.4996 18.407C60.7606 18.2312 61.0054 18.0324 61.231 17.8129C60.954 17.4408 60.7517 17.1632 60.6437 17.0216C60.4941 17.8545 60.3666 18.3265 60.3666 18.3265L59.8458 18.0488C59.8458 18.0488 59.9317 17.5352 60.0397 16.644C60.1311 15.8444 60.1339 15.0754 60.1339 15.0754L60.7379 15.3919ZM59.6657 13.6012C59.7323 13.6012 59.7982 13.6143 59.8597 13.6399C59.9212 13.6654 59.9771 13.7028 60.0242 13.75C60.0713 13.7972 60.1086 13.8532 60.1341 13.9148C60.1596 13.9765 60.1727 14.0425 60.1727 14.1092C60.1727 14.176 60.1596 14.242 60.1341 14.3037C60.1086 14.3653 60.0713 14.4213 60.0242 14.4685C59.9771 14.5157 59.9212 14.5531 59.8597 14.5786C59.7982 14.6042 59.7323 14.6173 59.6657 14.6173C59.5312 14.6173 59.4023 14.5638 59.3072 14.4685C59.2121 14.3732 59.1587 14.244 59.1587 14.1092C59.1587 13.9745 59.2121 13.8453 59.3072 13.75C59.4023 13.6547 59.5312 13.6012 59.6657 13.6012ZM56.7733 17.352C56.5821 17.749 56.3937 18.2154 56.3937 18.2154C56.3121 18.1395 56.251 18.0439 56.2164 17.9378C56.1222 17.7212 56.0723 17.5741 56.0723 17.5741C56.0723 17.5741 56.1388 17.4547 56.4048 16.9383C56.3328 16.8189 56.2026 16.6412 56.1499 16.5663C56.1499 16.5663 56.125 16.5052 56.2303 16.3386C56.3016 16.2272 56.3961 16.1325 56.5073 16.061C56.5073 16.061 56.6098 16.1887 56.7428 16.3636C56.916 16.1025 57.1207 15.8637 57.3523 15.6529L57.7762 15.5862L58.1918 15.4946L57.8538 15.8472L58.43 16.4025L58.5104 16.3025C58.4384 15.7917 58.4107 15.4224 58.4107 15.4224L58.4827 15.4058L59.07 15.1531C59.07 15.1531 59.106 15.9166 59.2002 16.719C59.3055 17.613 59.3277 18.035 59.3277 18.035L58.8927 18.3126C58.8927 18.3126 58.7736 17.8378 58.6295 17.0299C58.5215 17.1743 58.3165 17.4464 58.0533 17.8129C58.266 18.027 58.4979 18.2212 58.7459 18.3931L58.2416 18.804C58.2416 18.804 58.0449 18.6485 57.6875 18.3681C57.444 18.8 57.2727 19.2689 57.1805 19.7563C57.1241 19.5883 57.0527 19.4256 56.9672 19.2704C56.8536 19.0705 56.8176 19.015 56.8176 19.015C56.9034 18.6539 57.0486 18.3095 57.247 17.9961C57.1057 17.8628 56.8841 17.5102 56.74 17.3409L56.7733 17.352ZM44.8047 17.8601C44.3127 17.8718 43.8234 17.783 43.3668 17.5991L43.9486 16.8495C44.1717 17.1111 44.4877 17.2754 44.8296 17.3076C44.9903 17.288 45.1448 17.2333 45.2822 17.1474C45.4196 17.0616 45.5365 16.9466 45.6247 16.8106L46.1955 17.5685C45.757 17.7532 45.2859 17.8477 44.8102 17.8462L44.8047 17.8601ZM44.9377 15.7639C43.6918 15.7789 42.4496 15.9024 41.2252 16.1332C41.2252 16.1332 41.2473 15.8944 41.2473 15.7167C41.2468 15.6132 41.231 15.5102 41.2002 15.4113C42.423 14.9525 43.7178 14.7165 45.0235 14.7145C46.2788 14.7526 47.5227 14.9656 48.7194 15.3475C48.7194 15.3475 48.6972 15.6529 48.6972 15.7834V16.1054C47.4662 15.81 46.199 15.694 44.9349 15.7612L44.9377 15.7639ZM44.885 9.28401C44.7806 9.28566 44.678 9.25613 44.5903 9.19918C44.5027 9.14223 44.4339 9.06044 44.3928 8.96421C44.3517 8.86798 44.3401 8.76166 44.3594 8.6588C44.3788 8.55593 44.4283 8.46116 44.5015 8.38655C44.5748 8.31194 44.6686 8.26087 44.7709 8.23983C44.8733 8.2188 44.9795 8.22874 45.0762 8.26841C45.1729 8.30808 45.2556 8.37568 45.3138 8.46259C45.372 8.54951 45.4031 8.65182 45.4031 8.75651C45.4024 8.89476 45.3479 9.02728 45.2511 9.12581C45.1543 9.22435 45.023 9.28111 44.885 9.28401ZM45.2396 10.1447C45.2396 10.24 45.2018 10.3315 45.1346 10.3989C45.0673 10.4663 44.976 10.5042 44.8809 10.5042C44.7857 10.5042 44.6945 10.4663 44.6272 10.3989C44.5599 10.3315 44.5221 10.24 44.5221 10.1447C44.5221 10.0493 44.5599 9.95786 44.6272 9.89044C44.6945 9.82301 44.7857 9.78513 44.8809 9.78513C44.976 9.78513 45.0673 9.82301 45.1346 9.89044C45.2018 9.95786 45.2396 10.0493 45.2396 10.1447ZM44.9127 10.9776C45.2088 11.3922 45.3826 11.8819 45.4142 12.3907C45.4043 12.9117 45.2447 13.4188 44.9543 13.851C44.7056 13.4278 44.5348 12.9633 44.4501 12.4795C44.3697 11.7827 44.91 10.9776 44.91 10.9776H44.9127ZM44.885 7.81533C44.7314 7.81643 44.5808 7.77178 44.4525 7.68703C44.3242 7.60228 44.224 7.48126 44.1644 7.33932C44.1048 7.19737 44.0887 7.0409 44.118 6.88974C44.1473 6.73858 44.2207 6.59955 44.329 6.49028C44.4372 6.381 44.5755 6.30641 44.7261 6.27596C44.8767 6.24552 45.033 6.26058 45.1751 6.31925C45.3171 6.37792 45.4386 6.47756 45.5241 6.60551C45.6096 6.73347 45.6552 6.88398 45.6552 7.03797C45.6556 7.13969 45.636 7.24048 45.5974 7.3346C45.5589 7.42872 45.5023 7.51431 45.4308 7.5865C45.3593 7.65868 45.2743 7.71605 45.1806 7.75531C45.087 7.79457 44.9865 7.81497 44.885 7.81533ZM41.7211 12.9904C41.7211 12.9904 42.7407 12.9127 43.2809 13.1486C43.8211 13.3846 44.306 14.237 44.306 14.237C44.306 14.237 43.1368 14.3175 42.6769 14.0787C42.217 13.8399 41.7183 12.9904 41.7183 12.9904H41.7211ZM45.4557 14.2675C45.4557 14.2675 46.0265 13.3596 46.5639 13.1181C47.0095 12.9574 47.4763 12.8639 47.9492 12.8405C47.9492 12.8405 47.4505 13.7206 46.9934 13.951C46.5362 14.1814 45.4641 14.273 45.4641 14.273L45.4557 14.2675ZM49.7057 18.6346C50.6847 19.4417 51.7584 20.1261 52.9029 20.6725C52.9029 20.6725 50.6394 20.1588 49.002 19.09C48.1109 18.5198 47.3546 17.7618 46.7856 16.8689L48.2623 16.9383C48.2623 16.9383 48.5947 17.6629 49.7002 18.6291L49.7057 18.6346ZM47.1236 9.28123C47.1842 9.18454 47.26 9.09829 47.348 9.02581C47.2813 8.96133 47.2285 8.88385 47.1929 8.79815L47.2787 7.96526C47.4451 8.19029 47.6255 8.4045 47.819 8.60658C47.8744 8.55106 47.8522 8.60658 47.916 8.53162C48.1404 8.29564 48.3537 8.04577 48.531 7.83199C47.9215 7.19066 47.4948 6.82974 47.4948 6.82974L47.9686 6.94079L48.6003 7.11293C48.6003 7.11293 48.6945 7.11293 48.9327 7.35724C49.0131 7.24341 49.0463 7.22953 49.0463 7.22953L49.5561 7.45997C49.5561 7.45997 49.5727 7.50716 49.3483 7.77924C49.4758 7.92916 49.6254 8.10407 49.8054 8.31507C49.9024 8.43723 49.9578 8.49276 50.0437 8.5927C50.1634 8.44346 50.2735 8.28675 50.3734 8.12351L50.6006 8.75095C50.5271 8.8668 50.4466 8.97806 50.3595 9.08411C50.6366 9.66158 50.7696 10.0058 50.7696 10.0058L50.5507 10.711C50.3829 10.3094 50.1808 9.92297 49.9467 9.55608C49.739 9.81151 49.5589 10.0058 49.279 10.3085C49.5838 10.7471 49.8331 11.1802 49.9911 11.419C50.2681 11.1108 50.426 10.9415 50.426 10.9415L50.0188 11.705V11.7216L49.6475 12.4185L49.3871 12.6822C49.2929 12.7794 49.1267 12.9432 48.966 13.1014C49.0823 13.3402 49.1433 13.4901 49.1433 13.4901L48.8662 14.3841C48.5652 13.6227 48.2077 12.8849 47.7968 12.1769C47.4848 11.6887 47.1366 11.2247 46.7551 10.7888L46.9103 10.1141C47.2139 10.3966 47.4861 10.7112 47.722 11.0525C47.8855 10.9026 48.1875 10.5889 48.5005 10.2696C48.4784 10.2363 48.4811 10.2696 48.4618 10.2363C48.1847 9.87814 47.9076 9.59773 47.7192 9.38673C47.3037 9.76986 46.9518 10.0697 46.9518 10.0697L47.1236 9.28123ZM46.2204 6.22728L46.8244 6.60764L46.9574 6.63262C46.9574 6.63262 46.8576 7.75981 46.6304 9.09244C46.3534 10.5722 46.1484 11.4468 46.1484 11.4468L45.6497 11.183C45.6497 11.183 45.7633 10.4001 45.9267 8.91753C46.0819 7.5849 46.2038 6.23839 46.2038 6.23839L46.2204 6.22728ZM44.7936 3.75913C44.989 3.76023 45.1797 3.81929 45.3416 3.92886C45.5035 4.03844 45.6294 4.19361 45.7034 4.37482C45.7774 4.55602 45.7962 4.75513 45.7574 4.94702C45.7187 5.13892 45.624 5.31501 45.4855 5.45306C45.3469 5.59112 45.1707 5.68497 44.979 5.72277C44.7873 5.76056 44.5887 5.74061 44.4083 5.66544C44.2279 5.59026 44.0737 5.46322 43.9653 5.30035C43.8569 5.13748 43.799 4.94607 43.799 4.75028C43.7986 4.61955 43.8241 4.49004 43.874 4.36926C43.924 4.24848 43.9973 4.13882 44.0898 4.04664C44.1823 3.95445 44.2921 3.88158 44.413 3.83223C44.5338 3.78288 44.6631 3.75803 44.7936 3.75913ZM43.0288 6.6354L43.6355 6.26615C43.6355 6.26615 43.763 7.61266 43.9126 8.9453C44.0843 10.4278 44.1896 11.2135 44.1896 11.2135L43.6909 11.4745C43.6909 11.4745 43.4776 10.6028 43.2144 9.12298C43.0122 7.77369 42.9235 6.66316 42.9235 6.66316L43.0288 6.6354ZM40.3109 12.7433L40.0533 12.4851L39.682 11.7882V11.766L39.2803 11.0025C39.2803 11.0025 39.4382 11.1747 39.718 11.4829C39.8565 11.233 40.1253 10.7971 40.4273 10.3723C40.1502 10.0697 39.9674 9.87814 39.7513 9.62272C39.5207 9.9907 39.3205 10.377 39.1528 10.7777L38.9367 10.0725C38.9367 10.0725 39.0669 9.72544 39.3468 9.15074C39.2597 9.0444 39.1801 8.93215 39.1085 8.81481L39.3385 8.19014C39.4376 8.35387 39.5477 8.51063 39.6682 8.65934C39.7434 8.55715 39.8238 8.45892 39.9092 8.36504C40.081 8.15404 40.2278 7.98191 40.3635 7.83199C40.1752 7.53493 40.1752 7.49606 40.1752 7.49606L40.6905 7.2684C40.6905 7.2684 40.7209 7.2684 40.8041 7.39333C41.0423 7.15457 41.131 7.14624 41.131 7.14624L41.7654 6.97411L42.2392 6.86306C42.2392 6.86306 41.8153 7.22398 41.2058 7.86253C41.3776 8.07353 41.5964 8.3234 41.8208 8.55939C41.8873 8.6288 41.8624 8.5816 41.915 8.63712C42.1121 8.43826 42.2971 8.22782 42.4691 8.0069L42.5495 8.8398C42.5114 8.92335 42.4589 8.99949 42.3943 9.06468C42.4818 9.13776 42.5575 9.22391 42.6187 9.3201L42.7767 10.1252C42.7767 10.1252 42.422 9.81984 42.0065 9.4367C41.807 9.65326 41.5549 9.93089 41.2667 10.2918C41.2418 10.3251 41.2501 10.2918 41.228 10.3251C41.541 10.6416 41.843 10.9526 42.0037 11.1053C42.2381 10.7619 42.5104 10.4462 42.8155 10.1641L42.9706 10.8387C42.5895 11.2749 42.2413 11.7389 41.9289 12.2269C41.5168 12.9356 41.1584 13.6743 40.8567 14.4369L40.5797 13.5457C40.5797 13.5457 40.6461 13.393 40.7597 13.1597C40.599 13.0043 40.4384 12.8405 40.3414 12.7377L40.3109 12.7433ZM40.0117 18.6374C41.1199 17.6768 41.4524 16.9494 41.4524 16.9494L42.9318 16.88C42.3625 17.7727 41.6062 18.5305 40.7154 19.1011C39.078 20.1727 36.8173 20.6863 36.8173 20.6863C37.9603 20.1393 39.0322 19.454 40.0089 18.6458L40.0117 18.6374ZM32.8832 20.8002V20.9945C32.1437 20.8155 31.3822 20.7445 30.6224 20.7835C29.8859 20.7897 29.1514 20.8631 28.4282 21.0028C28.4241 20.9208 28.4139 20.8391 28.3977 20.7585C28.3977 20.653 28.3728 20.5753 28.3728 20.5753C29.1082 20.2955 29.8884 20.1525 30.6751 20.1533C31.4277 20.1764 32.1735 20.3034 32.8915 20.5309C32.8915 20.5309 32.8915 20.7197 32.8915 20.8085L32.8832 20.8002ZM30.3676 19.9173C30.0198 19.9171 29.6741 19.8637 29.3425 19.7591C29.1435 19.6236 28.9839 19.4377 28.8798 19.2204C29.1068 19.1184 29.3635 19.1046 29.6001 19.1816C29.8987 19.3777 30.1588 19.6271 30.3676 19.9173ZM30.326 18.8068C30.3291 18.4846 30.4253 18.1702 30.603 17.9017C30.7937 18.1486 30.8996 18.4507 30.9051 18.7628C30.9106 19.075 30.8153 19.3806 30.6335 19.6341C30.4832 19.3769 30.38 19.0948 30.3288 18.8012L30.326 18.8068ZM31.0103 19.8201C31.0103 19.8201 31.2874 19.2288 31.6171 19.0844C31.877 19.0045 32.155 19.0045 32.415 19.0844C32.2723 19.3482 32.0748 19.5782 31.8359 19.7591C31.5679 19.8465 31.2829 19.8684 31.0048 19.8229L31.0103 19.8201ZM31.7417 15.2697H31.8193C31.8193 15.2697 31.7888 15.639 31.7168 16.1498L31.7971 16.247L32.3789 15.6917C32.1767 15.4724 32.0409 15.3419 32.0409 15.3419L32.4565 15.428L32.8832 15.4919C33.1133 15.709 33.3187 15.9511 33.4955 16.2137L33.7282 15.9083C33.8396 15.9796 33.9341 16.0743 34.0052 16.1859C34.1133 16.3525 34.0856 16.4136 34.0856 16.4136C34.0329 16.4913 33.9055 16.6635 33.8362 16.7856C34.0939 17.2992 34.1604 17.4158 34.1632 17.4186C34.1227 17.5436 34.0746 17.666 34.0191 17.7851C33.9845 17.8899 33.9256 17.9851 33.8473 18.0627C33.8473 18.0627 33.6645 17.6019 33.4705 17.2132C33.3265 17.3825 33.1048 17.7407 32.9691 17.8712C33.1654 18.1808 33.3078 18.5216 33.3902 18.879L33.2433 19.1372C33.1588 19.2919 33.0874 19.4535 33.03 19.6202C32.9365 19.1328 32.7643 18.664 32.5202 18.2321C32.185 18.5097 31.9828 18.6596 31.9828 18.6624L31.4785 18.2543C31.7292 18.0835 31.9638 17.8903 32.1795 17.6768C31.9024 17.3131 31.7085 17.0383 31.6032 16.8911C31.4564 17.7018 31.3262 18.1738 31.3262 18.1738L30.8856 17.8961C30.8856 17.8961 30.9078 17.4769 31.0159 16.5857C31.1073 15.7834 31.1405 15.0171 31.1405 15.0171L31.7417 15.2697ZM30.5781 13.4568C30.6784 13.4568 30.7764 13.4866 30.8598 13.5424C30.9432 13.5983 31.0081 13.6776 31.0465 13.7704C31.0849 13.8633 31.0949 13.9654 31.0754 14.064C31.0558 14.1626 31.0075 14.2531 30.9366 14.3241C30.8657 14.3952 30.7754 14.4436 30.677 14.4632C30.5787 14.4828 30.4767 14.4727 30.3841 14.4343C30.2915 14.3958 30.2123 14.3307 30.1566 14.2471C30.1008 14.1636 30.0711 14.0654 30.0711 13.9649C30.0711 13.8301 30.1245 13.7009 30.2196 13.6056C30.3147 13.5103 30.4436 13.4568 30.5781 13.4568ZM27.8076 18.879C27.8913 18.5176 28.0356 18.1731 28.2343 17.8601C28.0985 17.7296 27.8769 17.3714 27.73 17.2021C27.5389 17.5991 27.3505 18.0683 27.3505 18.0683C27.2705 17.992 27.2113 17.8964 27.1787 17.7906C27.1243 17.6711 27.0762 17.5488 27.0346 17.4242C27.0346 17.4242 27.0984 17.3076 27.3643 16.7912C27.2895 16.669 27.1676 16.4969 27.1067 16.4191C27.1067 16.4191 27.0845 16.3581 27.187 16.1915C27.2583 16.08 27.3528 15.9853 27.4641 15.9139L27.6996 16.2192C27.8744 15.956 28.0789 15.7138 28.3091 15.4974L28.7357 15.4335L29.1541 15.3475C29.1541 15.3475 29.0183 15.4807 28.8161 15.6973L29.3923 16.2526L29.481 16.1443C29.4117 15.6473 29.3868 15.2947 29.3868 15.2947L29.4948 15.2392L30.0933 14.9449C30.0976 15.4692 30.13 15.9928 30.1902 16.5135C30.2927 17.4075 30.3786 17.9184 30.3786 17.9184L29.8689 18.196C29.8689 18.196 29.7525 17.7157 29.5918 16.8939C29.4865 17.0355 29.2815 17.3103 29.0072 17.6851C29.2215 17.899 29.4552 18.0924 29.7054 18.2626L29.2039 18.6707C29.2039 18.6707 29.0017 18.5153 28.6498 18.2404C28.4061 18.6725 28.234 19.1413 28.1401 19.6286C28.0839 19.4613 28.0125 19.2996 27.9267 19.1455L27.7799 18.8873L27.8076 18.879ZM24.591 15.825C24.303 16.491 24.0487 17.1711 23.8292 17.8628C23.6075 18.6346 23.7793 19.1899 24.0757 19.8312C24.1905 20.0972 24.354 20.3392 24.5578 20.5448C24.1698 20.42 23.8115 20.2168 23.505 19.9478C22.5963 19.1566 22.0976 18.3515 22.4162 16.9106C22.6074 16.0194 22.7403 15.1726 22.768 14.9671C22.7958 14.7617 22.8041 14.3341 22.8041 14.3341C22.9196 14.2565 23.0494 14.2027 23.186 14.176C23.3225 14.1493 23.463 14.1502 23.5992 14.1787C24.3306 14.3591 24.9374 14.9921 24.591 15.825ZM14.9386 20.1477C15.4705 20.0839 16.1216 19.8146 16.2684 19.2676C16.4097 18.7679 15.6617 18.4014 14.9386 17.3242C14.2155 16.247 14.426 15.3558 15.2627 14.9005C15.8556 14.5757 16.8198 14.4785 17.2575 14.3036C17.8193 14.0205 18.3034 13.604 18.6677 13.0903C19.1193 12.4934 19.485 11.8937 20.0779 11.6605C20.7677 11.3829 21.236 11.8049 21.8538 12.1242C22.296 12.3926 22.7864 12.5718 23.2972 12.6517C23.5843 12.7034 23.8575 12.8148 24.0989 12.9788C24.3404 13.1429 24.5449 13.3558 24.6991 13.604C24.45 13.3925 24.1455 13.2571 23.8219 13.2138C23.4983 13.1705 23.1691 13.2211 22.8733 13.3596C22.2694 13.5901 22.5021 13.5179 21.3163 14.0676C20.1305 14.6173 18.6344 14.6229 17.7146 14.7589C16.7948 14.8949 16.1881 14.981 15.5509 15.5002C14.9137 16.0194 15.2932 16.9827 15.6423 17.4047C15.9914 17.8267 16.0717 17.2604 15.9914 16.6579C15.7697 15.117 17.7119 15.4974 17.7119 15.4974C17.7119 15.4974 17.3101 15.8694 17.8171 16.7606C18.3713 17.7351 19.1747 18.5791 19.6097 19.2954C20.0446 20.0117 20.1638 20.8029 19.2911 21.4082C18.737 21.7969 17.8864 22.3521 17.7423 22.9574C17.6875 23.1861 17.7229 23.4272 17.8411 23.6305C17.9593 23.8337 18.1512 23.9835 18.3768 24.0485C17.953 24.1078 17.5214 24.0341 17.1411 23.8375C16.1632 23.2822 16.6341 22.6686 16.9361 22.2883C17.2381 21.9079 17.4902 21.7802 17.7091 21.4804C17.928 21.1805 17.5678 20.6808 17.5678 20.6808C17.3258 20.8635 17.0512 20.9983 16.7588 21.0778C16.2048 21.133 15.6454 21.0725 15.1159 20.9001C14.8324 20.7943 14.5259 20.7661 14.2279 20.8183C13.93 20.8705 13.6512 21.0013 13.4203 21.1972C13.4203 21.1972 13.4453 20.3337 14.933 20.145L14.9386 20.1477ZM29.0266 16.7301L28.4725 16.0943C28.3123 16.2669 28.1668 16.4526 28.0376 16.6496C28.1982 16.8439 28.4559 17.1715 28.5917 17.3187C28.7496 17.1021 28.8687 16.9217 29.0322 16.7273L29.0266 16.7301ZM62.209 16.7939C62.0819 16.594 61.9343 16.4079 61.7685 16.2387L61.2144 16.8717C61.3806 17.0632 61.4915 17.2437 61.6521 17.463C61.7934 17.3187 62.0511 16.9911 62.2062 16.7939" fill="white"/>
</svg>
