<svg width="144" height="33" viewBox="0 0 144 33" fill="none" xmlns="http://www.w3.org/2000/svg">
<g clip-path="url(#clip0)">
<path d="M29.9069 17.5471L28.9282 18.637C28.8279 18.7318 28.7007 18.7838 28.5693 18.7838C28.4378 18.7838 28.3106 18.7318 28.2104 18.637L27.2316 17.5471C27.1466 17.4355 27.0999 17.2939 27.0999 17.1475C27.0999 17.0011 27.1466 16.8595 27.2316 16.7479L28.2104 15.658C28.3106 15.5632 28.4378 15.5112 28.5693 15.5112C28.7007 15.5112 28.8279 15.5632 28.9282 15.658L29.9069 16.7479C29.992 16.8595 30.0387 17.0011 30.0387 17.1475C30.0387 17.2939 29.992 17.4355 29.9069 17.5471Z" fill="white"/>
<path d="M35.2468 8.82789L34.268 9.9178C34.1678 10.0125 34.0406 10.0645 33.9091 10.0645C33.7777 10.0645 33.6505 10.0125 33.5502 9.9178L32.5715 8.82789C32.4864 8.71627 32.4397 8.57464 32.4397 8.42825C32.4397 8.28186 32.4864 8.14023 32.5715 8.02862L33.5502 6.93871C33.6505 6.84399 33.7777 6.79199 33.9091 6.79199C34.0406 6.79199 34.1678 6.84399 34.268 6.93871L35.2468 8.02862C35.3318 8.14023 35.3785 8.28186 35.3785 8.42825C35.3785 8.57464 35.3318 8.71627 35.2468 8.82789Z" fill="white"/>
<path d="M32.6258 13.0786L31.647 14.1685C31.5507 14.2672 31.4245 14.322 31.2936 14.322C31.1626 14.322 31.0365 14.2672 30.9401 14.1685L29.9613 13.0786C29.8771 12.9689 29.8308 12.8293 29.8308 12.685C29.8308 12.5407 29.8771 12.4011 29.9613 12.2914L30.9401 11.2015C31.0386 11.1077 31.164 11.0562 31.2936 11.0562C31.4232 11.0562 31.5485 11.1077 31.647 11.2015L32.6258 12.2914C32.6866 12.3324 32.7368 12.3902 32.7717 12.4591C32.8066 12.5281 32.8249 12.6059 32.8249 12.685C32.8249 12.7641 32.8066 12.8419 32.7717 12.9109C32.7368 12.9798 32.6866 13.0376 32.6258 13.0786Z" fill="white"/>
<path d="M35.2468 17.5471L34.268 18.637C34.1678 18.7318 34.0406 18.7838 33.9091 18.7838C33.7777 18.7838 33.6505 18.7318 33.5502 18.637L32.5715 17.5471C32.4864 17.4355 32.4397 17.2939 32.4397 17.1475C32.4397 17.0011 32.4864 16.8595 32.5715 16.7479L33.5502 15.658C33.6505 15.5632 33.7777 15.5112 33.9091 15.5112C34.0406 15.5112 34.1678 15.5632 34.268 15.658L35.2468 16.7479C35.3318 16.8595 35.3785 17.0011 35.3785 17.1475C35.3785 17.2939 35.3318 17.4355 35.2468 17.5471Z" fill="white"/>
<path d="M32.6258 21.6043L31.647 22.6942C31.5507 22.7929 31.4245 22.8477 31.2936 22.8477C31.1626 22.8477 31.0365 22.7929 30.9401 22.6942L29.9613 21.6043C29.8771 21.4946 29.8308 21.3551 29.8308 21.2107C29.8308 21.0664 29.8771 20.9268 29.9613 20.8172L30.9401 19.7272C31.0365 19.6285 31.1626 19.5737 31.2936 19.5737C31.4245 19.5737 31.5507 19.6285 31.647 19.7272L32.6258 20.8172C32.9303 21.1078 32.9303 21.4105 32.6258 21.6043Z" fill="white"/>
<path d="M35.2468 26.2669L34.268 27.3568C34.1678 27.4515 34.0406 27.5035 33.9091 27.5035C33.7777 27.5035 33.6505 27.4515 33.5502 27.3568L32.5715 26.2669C32.4864 26.1552 32.4397 26.0136 32.4397 25.8672C32.4397 25.7208 32.4864 25.5792 32.5715 25.4676L33.5502 24.3777C33.6505 24.283 33.7777 24.231 33.9091 24.231C34.0406 24.231 34.1678 24.283 34.268 24.3777L35.2468 25.4676C35.3318 25.5792 35.3785 25.7208 35.3785 25.8672C35.3785 26.0136 35.3318 26.1552 35.2468 26.2669Z" fill="white"/>
<path d="M37.8243 13.0786L36.8455 14.1685C36.7491 14.2672 36.623 14.322 36.4921 14.322C36.3611 14.322 36.235 14.2672 36.1386 14.1685L35.1598 13.0786C35.0712 12.9713 35.022 12.8308 35.022 12.685C35.022 12.5392 35.0712 12.3987 35.1598 12.2914L36.1386 11.2015C36.2371 11.1077 36.3624 11.0562 36.4921 11.0562C36.6217 11.0562 36.747 11.1077 36.8455 11.2015L37.8243 12.2914C37.9129 12.3987 37.9621 12.5392 37.9621 12.685C37.9621 12.8308 37.9129 12.9713 37.8243 13.0786Z" fill="white"/>
<path d="M37.8243 21.6043L36.8455 22.6942C36.7491 22.7929 36.623 22.8477 36.4921 22.8477C36.3611 22.8477 36.235 22.7929 36.1386 22.6942L35.1598 21.6043C35.0712 21.497 35.022 21.3565 35.022 21.2107C35.022 21.0649 35.0712 20.9244 35.1598 20.8172L36.1386 19.7272C36.235 19.6285 36.3611 19.5737 36.4921 19.5737C36.623 19.5737 36.7491 19.6285 36.8455 19.7272L37.8243 20.8172C37.9129 20.9244 37.9621 21.0649 37.9621 21.2107C37.9621 21.3565 37.9129 21.497 37.8243 21.6043Z" fill="white"/>
<path d="M26.8836 22.9122C25.7111 20.5454 24.2058 18.403 22.4247 16.5665C24.2509 14.7768 25.7628 12.6251 26.8836 10.2208C28.1463 7.58477 28.9576 4.71018 29.2762 1.74372V1.48941C29.2648 1.0836 29.1098 0.69926 28.8449 0.42022C28.5801 0.14118 28.2269 -0.00992394 27.8624 -0.000135504H11.4841C11.3142 -0.00660472 11.1447 0.0242969 10.9855 0.0908024C10.8262 0.157308 10.6803 0.258113 10.5561 0.387454C10.4319 0.516795 10.3317 0.672136 10.2614 0.844593C10.1912 1.01705 10.1521 1.20324 10.1465 1.39253C9.90336 4.37365 8.98267 7.23678 7.47116 9.71216C6.12104 11.9256 4.32628 13.7583 2.22925 15.0648C2.01291 15.1847 1.83101 15.3695 1.70416 15.5985C1.57731 15.8276 1.51056 16.0915 1.51148 16.3606V16.5544C1.5217 16.819 1.59315 17.0763 1.71891 17.3012C1.84466 17.5261 2.02046 17.711 2.22925 17.838C4.32371 19.1485 6.11772 20.9804 7.47116 23.1907C8.9844 25.6696 9.90517 28.5371 10.1465 31.5224C10.1737 31.8973 10.3263 32.2471 10.5739 32.5027C10.8216 32.7583 11.1464 32.9012 11.4841 32.903L27.8624 32.9999C28.225 33.0097 28.5767 32.8603 28.8412 32.5838C29.1057 32.3074 29.262 31.9261 29.2762 31.5224V31.3166C28.9053 28.3861 28.0966 25.5454 26.8836 22.9122ZM9.48309 11.3107C10.8614 9.11641 11.7997 6.61771 12.2345 3.98408C12.3303 3.67166 12.51 3.39955 12.7493 3.20461C12.9885 3.00966 13.2758 2.90129 13.5722 2.89418H25.3175C25.4494 2.89319 25.5796 2.9269 25.6975 2.99254C25.8155 3.05819 25.9179 3.15393 25.9963 3.27196C26.0747 3.38998 26.127 3.52697 26.1489 3.67176C26.1708 3.81656 26.1617 3.96506 26.1223 4.10519C25.7816 5.77804 25.2132 7.38302 24.4366 8.86445C23.4255 10.9458 22.1138 12.8278 20.5542 14.4351L19.9343 15.0285H6.59025C7.70781 13.9296 8.6946 12.6762 9.52659 11.2986L9.48309 11.3107ZM25.361 30.1782H13.6157C13.3116 30.1808 13.0173 30.0588 12.7888 29.8355C12.5602 29.6123 12.4133 29.3032 12.3759 28.9672C11.8469 26.3828 10.9117 23.923 9.61359 21.7012C8.8 20.3364 7.81064 19.1123 6.67726 18.0681H20.0213L20.652 18.6615C22.2681 20.2476 23.597 22.1631 24.5671 24.3048C25.2557 25.8319 25.8198 27.4247 26.2528 29.0641C26.2617 29.2029 26.2454 29.3422 26.2051 29.4739C26.1648 29.6055 26.1012 29.7269 26.0181 29.8307C25.935 29.9346 25.834 30.0188 25.7211 30.0785C25.6083 30.1382 25.4859 30.1721 25.361 30.1782Z" fill="white"/>
<path d="M2.67527 22.791V4.3594C2.67078 4.17674 2.69977 3.99498 2.76048 3.82522C2.8212 3.65546 2.91236 3.50126 3.02839 3.37206C3.14442 3.24285 3.28289 3.14134 3.43534 3.07373C3.5878 3.00613 3.75102 2.97384 3.91506 2.97885H8.10205C8.45231 2.96657 8.78503 2.80533 9.03181 2.52827C9.27859 2.25122 9.42067 1.87942 9.42884 1.48931C9.4284 1.35805 9.39849 1.229 9.34184 1.11389C9.30322 0.838197 9.18029 0.585807 8.99383 0.399399C8.89598 0.268803 8.77258 0.164888 8.63308 0.0956163C8.49358 0.0263451 8.34169 -0.00644266 8.18906 -0.000233903H2.84928C2.47389 -0.00510448 2.10141 0.0736373 1.75373 0.231363C1.40606 0.389089 1.09021 0.622615 0.82475 0.918217C0.559289 1.21382 0.349573 1.56553 0.20793 1.95268C0.0662861 2.33982 -0.0044269 2.7546 -5.29443e-05 3.17261V29.6332C-0.00294642 30.0762 0.0732789 30.5154 0.224191 30.9253C0.375103 31.3352 0.597691 31.7076 0.879012 32.0209C1.16033 32.3342 1.49477 32.582 1.86289 32.7501C2.231 32.9181 2.62545 33.003 3.02328 32.9998H8.10205C8.43461 32.9663 8.74389 32.7955 8.96911 32.521C9.19434 32.2465 9.31923 31.8881 9.31923 31.5163C9.31923 31.1445 9.19434 30.7861 8.96911 30.5116C8.74389 30.2371 8.43461 30.0663 8.10205 30.0328H4.00206C3.83116 30.0462 3.65963 30.02 3.49827 29.9559C3.33692 29.8918 3.18925 29.7911 3.06458 29.6602C2.93992 29.5294 2.84096 29.3712 2.77395 29.1956C2.70695 29.02 2.67335 28.8309 2.67527 28.6401V22.791Z" fill="white"/>
<path d="M52.9519 11.6013H51.3532L47.8514 6.84207V11.6013H46.3723V2.17969H47.8514V6.74519L51.3206 2.17969H52.8323L49.3956 6.74519L52.9519 11.6013Z" fill="white"/>
<path d="M52.7778 4.45635H54.2895L55.6272 8.52534C55.818 9.03097 55.939 9.56583 55.9861 10.1118H56.0731C56.1077 9.80802 56.1659 9.50818 56.2471 9.21562C56.3341 8.8281 56.867 7.24167 57.7587 4.37158H59.2704L56.5516 12.4853C56.4119 13.1045 56.0915 13.6545 55.6408 14.049C55.19 14.4435 54.6344 14.6603 54.0611 14.6652C53.7612 14.6817 53.4607 14.649 53.1693 14.5683V13.3573C53.3965 13.4432 53.6371 13.4761 53.8762 13.4542C54.2087 13.4497 54.5301 13.3205 54.7886 13.0876C55.0471 12.8547 55.2276 12.5316 55.3009 12.1705L55.5728 11.4802L52.7778 4.45635Z" fill="white"/>
<path d="M65.3279 11.6014H63.9902V5.65534H62.2067C62.1477 6.85321 62.0022 8.04384 61.7717 9.21571C61.6563 9.89527 61.4115 10.5394 61.0539 11.1049C60.9166 11.2971 60.7409 11.4508 60.5407 11.5538C60.3406 11.6569 60.1215 11.7063 59.9011 11.6983C59.6584 11.7202 59.4143 11.6873 59.1833 11.6014V10.3904C59.3185 10.4767 59.4741 10.5147 59.6292 10.4994C59.9881 10.4994 60.347 10.0029 60.521 9.00984C60.8068 7.50609 60.985 5.97947 61.0539 4.44434H65.3279V11.6014Z" fill="white"/>
<path d="M68.5144 7.33855H70.1131C71.8966 7.33855 72.7775 8.02883 72.7775 9.42149C72.7823 9.74343 72.7211 10.0623 72.5986 10.354C72.4761 10.6457 72.2956 10.9024 72.0706 11.1048C71.4939 11.5356 70.8063 11.7441 70.1131 11.6982H67.1768V4.43213H68.5144V7.33855ZM71.3529 9.42149C71.3696 9.26516 71.3456 9.10678 71.2839 8.96512C71.2223 8.82347 71.1254 8.70447 71.0049 8.62222C70.6539 8.49356 70.2868 8.42815 69.9173 8.42846H68.5144V10.4024H70.0261C70.373 10.4379 70.7199 10.3349 71.0049 10.1118C71.2876 10.0149 71.3746 9.80901 71.3746 9.42149H71.3529Z" fill="white"/>
<path d="M78.9439 4.45645V5.66746H76.8993V11.6014H75.5617V5.65535H73.5171V4.44434L78.9439 4.45645Z" fill="white"/>
<path d="M79.1179 4.45635H80.6405L81.8802 8.52534C82.076 9.02912 82.1972 9.56486 82.2391 10.1118H82.3261C82.3608 9.80802 82.419 9.50818 82.5001 9.21562C82.598 8.8281 83.1309 7.24167 84.0227 4.37158H85.4365L82.772 12.6064C82.6306 13.2246 82.3098 13.7734 81.8595 14.1676C81.4091 14.5618 80.8544 14.7793 80.2816 14.7863C79.981 14.8041 79.6798 14.7673 79.3898 14.6773V13.4663C79.617 13.5521 79.8576 13.5851 80.0967 13.5631C80.4361 13.5749 80.7686 13.4543 81.0366 13.2221C81.3047 12.9899 81.4915 12.6608 81.5649 12.2916L81.8367 11.6013L79.1179 4.45635Z" fill="white"/>
<path d="M89.6233 11.6984C89.262 11.7192 88.9017 11.6393 88.575 11.4659C88.2484 11.2925 87.9658 11.0311 87.7528 10.7054H87.6658C87.7214 11.0654 87.7505 11.4299 87.7528 11.7953V14.7744H86.3281V4.45656H87.4157C87.4157 4.56555 87.5027 4.95307 87.5897 5.44958H87.6767C87.8797 5.106 88.158 4.82566 88.4852 4.63497C88.8125 4.44428 89.178 4.34954 89.5472 4.35968C89.9086 4.33887 90.2689 4.41879 90.5955 4.59219C90.9221 4.76559 91.2048 5.02698 91.4178 5.3527C91.9025 6.13869 92.15 7.076 92.1247 8.02903C92.1586 9.01523 91.907 9.98746 91.4069 10.8022C91.2103 11.1174 90.9406 11.3673 90.6265 11.5251C90.3123 11.6829 89.9656 11.7428 89.6233 11.6984ZM89.2645 5.55857C89.0519 5.53631 88.8375 5.56837 88.6378 5.65231C88.438 5.73626 88.258 5.86987 88.1117 6.04298C87.8232 6.54663 87.6967 7.14432 87.7528 7.73839V7.93215C87.6807 8.58194 87.7989 9.24029 88.0899 9.80922C88.2342 10.0211 88.4251 10.1882 88.6441 10.2942C88.8631 10.4002 89.103 10.4417 89.3406 10.4147C89.5628 10.423 89.7826 10.3615 89.9749 10.2373C90.1672 10.1131 90.3242 9.93119 90.4281 9.71234C90.705 9.13741 90.8259 8.48529 90.7761 7.83527C90.8279 7.21224 90.7064 6.58656 90.4281 6.04298C90.107 5.72757 89.6927 5.5551 89.2645 5.55857Z" fill="white"/>
<path d="M97.6384 11.6015L97.3666 10.6085H97.2796C97.0277 10.9589 96.7266 11.2616 96.3878 11.5047C95.9963 11.6868 95.5694 11.7535 95.148 11.6984C94.8716 11.7162 94.5948 11.6729 94.3335 11.5711C94.0722 11.4693 93.8316 11.3109 93.6255 11.105C93.4445 10.8948 93.304 10.6457 93.2123 10.3729C93.1207 10.1002 93.08 9.80948 93.0926 9.51861C93.0883 9.19553 93.1508 8.87569 93.2753 8.58381C93.3997 8.29192 93.5828 8.03583 93.8103 7.83531C94.467 7.40324 95.2237 7.19681 95.9854 7.24191H97.0729V6.84228C97.0881 6.66409 97.0709 6.48433 97.0223 6.31371C96.9738 6.1431 96.8948 5.98513 96.7902 5.84925C96.6665 5.73702 96.5238 5.65349 96.3707 5.60358C96.2175 5.55366 96.0569 5.53837 95.8984 5.55861C95.566 5.57596 95.237 5.64108 94.9196 5.75237C94.6075 5.84017 94.3076 5.9746 94.0278 6.152L93.582 5.0621C93.9458 4.8337 94.3379 4.66639 94.7456 4.56558C95.1221 4.45109 95.5086 4.38207 95.8984 4.35971C96.5641 4.31802 97.223 4.52704 97.769 4.9531C97.9988 5.19124 98.1747 5.48654 98.2825 5.81487C98.3902 6.14321 98.4266 6.49526 98.3888 6.84228V11.6015H97.6384ZM95.583 10.6085C95.8046 10.6289 96.0275 10.595 96.236 10.5093C96.4446 10.4235 96.6337 10.2879 96.7902 10.112C96.9393 9.94334 97.0559 9.7424 97.1326 9.52162C97.2093 9.30083 97.2445 9.06488 97.2361 8.82833V8.22283H96.4313C95.93 8.17948 95.4297 8.31982 95.0066 8.62246C94.8608 8.73013 94.7429 8.87848 94.6647 9.05272C94.5865 9.22697 94.5506 9.42101 94.5607 9.61549C94.5462 9.74713 94.5638 9.88069 94.6117 10.0021C94.6595 10.1236 94.7358 10.2285 94.8326 10.3058C95.0393 10.5089 95.3075 10.6171 95.583 10.6085Z" fill="white"/>
<path d="M52.4188 31.716H51.179V29.2334H46.8289V31.716H45.5674V28.083H46.1003C46.6047 27.2712 46.9732 26.3645 47.1878 25.4066C47.4813 24.3142 47.6315 23.1803 47.6337 22.04H51.5488V27.9861H52.5276V31.7523L52.4188 31.716ZM50.2438 28.083V23.2874H48.8626C48.7652 24.1572 48.6162 25.0189 48.4167 25.8668C48.2086 26.6347 47.9087 27.3679 47.5249 28.0466L50.2438 28.083Z" fill="white"/>
<path d="M58.7266 29.2337H57.4107V23.2877H55.6271C55.5691 24.5103 55.42 25.7255 55.1812 26.9207C55.0672 27.5987 54.8263 28.2423 54.4743 28.8099C54.3326 28.9995 54.1545 29.1513 53.9531 29.254C53.7517 29.3567 53.5321 29.4077 53.3107 29.4033C53.0706 29.428 52.8287 29.3907 52.6038 29.2943V28.0833C52.7409 28.1626 52.8957 28.1962 53.0496 28.1801C53.3977 28.1801 53.7565 27.6957 53.9305 26.7027C54.2213 25.1996 54.4032 23.6728 54.4743 22.1372H58.7266V29.2337Z" fill="white"/>
<path d="M61.2389 29.2337H59.7163L61.4999 26.3636C61.1068 26.2801 60.7569 26.0334 60.5211 25.6733C60.2686 25.3016 60.1416 24.843 60.1622 24.3775C60.143 24.0776 60.1905 23.777 60.3005 23.5024C60.4106 23.2278 60.5797 22.9876 60.793 22.8032C61.3052 22.3835 61.9302 22.17 62.5656 22.1977H65.502V29.3427H64.0773V26.5452H62.7505L61.2389 29.2337ZM61.4129 24.2806C61.3958 24.4384 61.4208 24.5982 61.4846 24.7402C61.5484 24.8823 61.6482 25.0004 61.7717 25.0799C62.0664 25.2788 62.406 25.3797 62.7505 25.3705H64.0773V23.2876H62.5656C62.2477 23.2854 61.9366 23.391 61.6739 23.5904C61.4129 23.7841 61.4129 23.8931 61.4129 24.2806Z" fill="white"/>
<path d="M79.3028 29.2334H70.2219V22.1006H71.5596V28.0466H74.05V22.1006H75.3877V28.0466H77.8781V22.1006H79.2158V29.2334H79.3028Z" fill="white"/>
<path d="M85.1755 22.1006H86.6871L84.0227 25.5762L86.8611 29.2092H85.2625L82.5001 25.5762V29.2092H81.1733V22.1006H82.5001V25.5762L85.1755 22.1006Z" fill="white"/>
<path d="M93.4516 25.6732C93.5064 26.6775 93.219 27.6678 92.6468 28.4464C92.3751 28.784 92.0382 29.0487 91.6616 29.2207C91.2849 29.3927 90.8781 29.4675 90.4718 29.4394C89.8956 29.4551 89.3269 29.2915 88.8296 28.9672C88.3599 28.6646 87.9814 28.2137 87.7421 27.6714C87.4855 27.054 87.3661 26.377 87.394 25.6974C87.3596 25.2149 87.4121 24.7296 87.5484 24.27C87.6848 23.8104 87.9022 23.3858 88.1879 23.0211C88.4789 22.6948 88.8269 22.4383 89.2103 22.2676C89.5938 22.0968 90.0046 22.0153 90.4174 22.0281C90.8228 22.0094 91.227 22.0884 91.6024 22.2598C91.9778 22.4312 92.3155 22.6909 92.5924 23.0211C92.8871 23.3771 93.1149 23.7951 93.2625 24.2506C93.41 24.706 93.4743 25.1897 93.4516 25.6732ZM88.8296 25.6732C88.8296 27.3565 89.3625 28.0952 90.4283 28.0952C91.494 28.0952 92.0269 27.3081 92.0269 25.6732C92.0269 24.0383 91.494 23.1906 90.4283 23.1906C90.1929 23.1758 89.9576 23.2217 89.7406 23.3246C89.5237 23.4275 89.3311 23.5847 89.1776 23.784C88.9109 24.3674 88.7906 25.0201 88.8296 25.6732Z" fill="white"/>
<path d="M100.216 29.2337H98.7913V23.2877H97.0077C96.9554 24.5109 96.8062 25.7267 96.5618 26.9207C96.4527 27.6003 96.2114 28.2451 95.8549 28.8099C95.7155 28.9992 95.5393 29.151 95.3396 29.2538C95.14 29.3565 94.9221 29.4076 94.7022 29.4033C94.4586 29.4277 94.2132 29.3905 93.9844 29.2943V28.0833C94.1221 28.1607 94.2765 28.1942 94.4303 28.1801C94.7892 28.1801 95.148 27.6957 95.322 26.7027C95.6078 25.199 95.786 23.6723 95.8549 22.1372H100.129V29.2701L100.216 29.2337Z" fill="white"/>
<path d="M103.424 24.9831H105.023C106.806 24.9831 107.687 25.6734 107.687 27.0539C107.694 27.3779 107.633 27.6992 107.511 27.9931C107.388 28.287 107.207 28.5457 106.98 28.7493C106.401 29.1737 105.715 29.3816 105.023 29.3427H102.086V22.1978H103.424V24.9831ZM106.273 27.0539C106.288 26.8981 106.262 26.7409 106.199 26.6012C106.135 26.4615 106.036 26.3454 105.915 26.2667C105.576 26.0882 105.199 26.021 104.827 26.073H103.315V28.0469H104.838C105.185 28.0824 105.532 27.9794 105.817 27.7563C105.958 27.724 106.083 27.634 106.168 27.504C106.252 27.374 106.29 27.2134 106.273 27.0539Z" fill="white"/>
<path d="M110.449 22.1006V24.9828H113.473V22.1006H114.81V29.2334H113.473V26.1696H110.449V29.2334H109.112V22.1006H110.449Z" fill="white"/>
<path d="M117.932 22.1008V25.7338C117.939 26.3653 117.906 26.9966 117.834 27.623L121.096 22.0645H122.782V29.1973H121.455V24.6802C121.432 24.3461 121.461 24.0099 121.542 23.6872L118.334 29.2336H116.648V22.1008H117.932Z" fill="white"/>
<path d="M128.514 22.1006H130.036L127.361 25.5762L130.21 29.2092H128.611L125.849 25.5762V29.2092H124.511V22.1006H125.849V25.5762L128.514 22.1006Z" fill="white"/>
<path d="M136.888 25.6731C136.937 26.6766 136.65 27.6649 136.083 28.4464C135.81 28.7819 135.473 29.0451 135.096 29.2169C134.72 29.3888 134.314 29.4648 133.908 29.4394C133.344 29.437 132.792 29.2654 132.309 28.9429C131.836 28.6451 131.456 28.1928 131.222 27.6471C130.956 27.0327 130.833 26.3541 130.863 25.6731C130.83 25.1898 130.884 24.704 131.022 24.2444C131.16 23.7848 131.38 23.3606 131.667 22.9968C131.939 22.6592 132.276 22.3945 132.653 22.2225C133.029 22.0506 133.436 21.9758 133.842 22.0038C134.248 21.9867 134.651 22.0665 135.027 22.2378C135.402 22.4091 135.74 22.6679 136.018 22.9968C136.317 23.3547 136.548 23.7763 136.698 24.2362C136.847 24.696 136.912 25.1848 136.888 25.6731ZM132.168 25.6731C132.168 27.3564 132.701 28.0952 133.766 28.0952C134.832 28.0952 135.376 27.308 135.376 25.6731C135.376 24.0383 134.832 23.1906 133.766 23.1906C133.532 23.1748 133.298 23.2203 133.083 23.3234C132.868 23.4264 132.677 23.5841 132.527 23.784C132.291 24.3793 132.169 25.0226 132.168 25.6731Z" fill="white"/>
<path d="M143.826 23.8931C143.826 24.7771 143.38 25.2736 142.488 25.3705V25.4674C142.911 25.503 143.316 25.6756 143.652 25.9639C143.891 26.2629 144.016 26.6539 144 27.0538C144.007 27.3623 143.946 27.6679 143.823 27.9443C143.699 28.2207 143.518 28.4595 143.293 28.6402C142.679 29.0512 141.961 29.2257 141.249 29.1368H138.214V22.0039H141.249C143.021 22.1008 143.826 22.6942 143.826 23.8931ZM142.467 24.1232C142.481 24.0066 142.464 23.8879 142.417 23.7823C142.371 23.6766 142.297 23.5887 142.206 23.5298C141.924 23.3952 141.62 23.3252 141.314 23.3239H139.639V25.0193H141.064C141.434 25.0164 141.801 24.9468 142.151 24.8134C142.255 24.7412 142.339 24.6387 142.395 24.5171C142.451 24.3955 142.475 24.2593 142.467 24.1232ZM142.651 27.0901C142.665 26.9476 142.637 26.8041 142.573 26.68C142.508 26.556 142.41 26.458 142.293 26.3999C141.942 26.2698 141.575 26.2043 141.205 26.2061H139.639V28.1801H141.249C142.227 28.1437 142.673 27.7562 142.673 27.0538L142.651 27.0901Z" fill="white"/>
</g>
<defs>
<clipPath id="clip0">
<rect width="144" height="33" fill="white"/>
</clipPath>
</defs>
</svg>
