<svg width="144" height="33" viewBox="0 0 144 33" fill="none" xmlns="http://www.w3.org/2000/svg">
<g clip-path="url(#clip0)">
<path d="M29.9069 17.5475L28.9282 18.6374C28.8279 18.7322 28.7007 18.7842 28.5693 18.7842C28.4378 18.7842 28.3106 18.7322 28.2104 18.6374L27.2316 17.5475C27.1466 17.4359 27.0999 17.2943 27.0999 17.1479C27.0999 17.0015 27.1466 16.8599 27.2316 16.7483L28.2104 15.6583C28.3106 15.5636 28.4378 15.5116 28.5693 15.5116C28.7007 15.5116 28.8279 15.5636 28.9282 15.6583L29.9069 16.7483C29.992 16.8599 30.0387 17.0015 30.0387 17.1479C30.0387 17.2943 29.992 17.4359 29.9069 17.5475Z" fill="#E5A52C"/>
<path d="M35.2468 8.82825L34.268 9.91816C34.1678 10.0129 34.0406 10.0649 33.9091 10.0649C33.7777 10.0649 33.6505 10.0129 33.5502 9.91816L32.5715 8.82825C32.4864 8.71664 32.4397 8.57501 32.4397 8.42862C32.4397 8.28223 32.4864 8.1406 32.5715 8.02899L33.5502 6.93908C33.6505 6.84436 33.7777 6.79236 33.9091 6.79236C34.0406 6.79236 34.1678 6.84436 34.268 6.93908L35.2468 8.02899C35.3318 8.1406 35.3785 8.28223 35.3785 8.42862C35.3785 8.57501 35.3318 8.71664 35.2468 8.82825Z" fill="#F1795C"/>
<path d="M32.6258 13.0789L31.647 14.1688C31.5507 14.2675 31.4245 14.3223 31.2936 14.3223C31.1626 14.3223 31.0365 14.2675 30.9401 14.1688L29.9613 13.0789C29.8771 12.9692 29.8308 12.8296 29.8308 12.6853C29.8308 12.541 29.8771 12.4014 29.9613 12.2917L30.9401 11.2018C31.0386 11.108 31.164 11.0565 31.2936 11.0565C31.4232 11.0565 31.5485 11.108 31.647 11.2018L32.6258 12.2917C32.6866 12.3327 32.7368 12.3905 32.7717 12.4594C32.8066 12.5284 32.8249 12.6062 32.8249 12.6853C32.8249 12.7644 32.8066 12.8422 32.7717 12.9112C32.7368 12.9801 32.6866 13.0379 32.6258 13.0789Z" fill="#5CADFF"/>
<path d="M35.2468 17.5475L34.268 18.6374C34.1678 18.7322 34.0406 18.7842 33.9091 18.7842C33.7777 18.7842 33.6505 18.7322 33.5502 18.6374L32.5715 17.5475C32.4864 17.4359 32.4397 17.2943 32.4397 17.1479C32.4397 17.0015 32.4864 16.8599 32.5715 16.7483L33.5502 15.6583C33.6505 15.5636 33.7777 15.5116 33.9091 15.5116C34.0406 15.5116 34.1678 15.5636 34.268 15.6583L35.2468 16.7483C35.3318 16.8599 35.3785 17.0015 35.3785 17.1479C35.3785 17.2943 35.3318 17.4359 35.2468 17.5475Z" fill="#E5A52C"/>
<path d="M32.6258 21.6044L31.647 22.6943C31.5507 22.793 31.4245 22.8478 31.2936 22.8478C31.1626 22.8478 31.0365 22.793 30.9401 22.6943L29.9613 21.6044C29.8771 21.4947 29.8308 21.3551 29.8308 21.2108C29.8308 21.0665 29.8771 20.9269 29.9613 20.8172L30.9401 19.7273C31.0365 19.6286 31.1626 19.5738 31.2936 19.5738C31.4245 19.5738 31.5507 19.6286 31.647 19.7273L32.6258 20.8172C32.9303 21.1079 32.9303 21.4106 32.6258 21.6044Z" fill="#5CADFF"/>
<path d="M35.2468 26.2668L34.268 27.3567C34.1678 27.4514 34.0406 27.5034 33.9091 27.5034C33.7777 27.5034 33.6505 27.4514 33.5502 27.3567L32.5715 26.2668C32.4864 26.1552 32.4397 26.0135 32.4397 25.8672C32.4397 25.7208 32.4864 25.5791 32.5715 25.4675L33.5502 24.3776C33.6505 24.2829 33.7777 24.2309 33.9091 24.2309C34.0406 24.2309 34.1678 24.2829 34.268 24.3776L35.2468 25.4675C35.3318 25.5791 35.3785 25.7208 35.3785 25.8672C35.3785 26.0135 35.3318 26.1552 35.2468 26.2668Z" fill="#F1795C"/>
<path d="M37.8243 13.0789L36.8455 14.1688C36.7491 14.2675 36.623 14.3223 36.4921 14.3223C36.3611 14.3223 36.235 14.2675 36.1386 14.1688L35.1598 13.0789C35.0712 12.9716 35.022 12.8311 35.022 12.6853C35.022 12.5395 35.0712 12.399 35.1598 12.2917L36.1386 11.2018C36.2371 11.108 36.3624 11.0565 36.4921 11.0565C36.6217 11.0565 36.747 11.108 36.8455 11.2018L37.8243 12.2917C37.9129 12.399 37.9621 12.5395 37.9621 12.6853C37.9621 12.8311 37.9129 12.9716 37.8243 13.0789Z" fill="#E5A52C"/>
<path d="M37.8243 21.6044L36.8455 22.6943C36.7491 22.793 36.623 22.8478 36.4921 22.8478C36.3611 22.8478 36.235 22.793 36.1386 22.6943L35.1598 21.6044C35.0712 21.4971 35.022 21.3566 35.022 21.2108C35.022 21.065 35.0712 20.9245 35.1598 20.8172L36.1386 19.7273C36.235 19.6286 36.3611 19.5738 36.4921 19.5738C36.623 19.5738 36.7491 19.6286 36.8455 19.7273L37.8243 20.8172C37.9129 20.9245 37.9621 21.065 37.9621 21.2108C37.9621 21.3566 37.9129 21.4971 37.8243 21.6044Z" fill="#E5A52C"/>
<path d="M26.8836 22.9123C25.7111 20.5455 24.2058 18.4031 22.4247 16.5666C24.2509 14.7769 25.7628 12.6252 26.8836 10.2209C28.1463 7.5849 28.9576 4.7103 29.2762 1.74384V1.48953C29.2648 1.08372 29.1098 0.699382 28.8449 0.420342C28.5801 0.141302 28.2269 -0.00980187 27.8624 -1.34333e-05H11.4841C11.3142 -0.00648265 11.1447 0.0244189 10.9855 0.0909245C10.8262 0.15743 10.6803 0.258235 10.5561 0.387576C10.4319 0.516917 10.3317 0.672258 10.2614 0.844715C10.1912 1.01717 10.1521 1.20337 10.1465 1.39265C9.90336 4.37378 8.98267 7.23691 7.47116 9.71228C6.12104 11.9258 4.32628 13.7584 2.22925 15.0649C2.01291 15.1848 1.83101 15.3697 1.70416 15.5987C1.57731 15.8277 1.51056 16.0917 1.51148 16.3607V16.5545C1.5217 16.8192 1.59315 17.0764 1.71891 17.3013C1.84466 17.5262 2.02046 17.7111 2.22925 17.8382C4.32371 19.1486 6.11772 20.9805 7.47116 23.1908C8.9844 25.6697 9.90517 28.5372 10.1465 31.5226C10.1737 31.8974 10.3263 32.2472 10.5739 32.5028C10.8216 32.7585 11.1464 32.9013 11.4841 32.9031L27.8624 33C28.225 33.0098 28.5767 32.8604 28.8412 32.5839C29.1057 32.3075 29.262 31.9262 29.2762 31.5226V31.3167C28.9053 28.3862 28.0966 25.5455 26.8836 22.9123ZM9.48309 11.3108C10.8614 9.11653 11.7997 6.61784 12.2345 3.98421C12.3303 3.67178 12.51 3.39967 12.7493 3.20473C12.9885 3.00978 13.2758 2.90142 13.5722 2.8943H25.3175C25.4494 2.89332 25.5796 2.92702 25.6975 2.99267C25.8155 3.05831 25.9179 3.15405 25.9963 3.27208C26.0747 3.39011 26.127 3.52709 26.1489 3.67189C26.1708 3.81668 26.1617 3.96518 26.1223 4.10531C25.7816 5.77816 25.2132 7.38314 24.4366 8.86457C23.4255 10.9459 22.1138 12.8279 20.5542 14.4352L19.9343 15.0286H6.59025C7.70781 13.9298 8.6946 12.6763 9.52659 11.2987L9.48309 11.3108ZM25.361 30.1783H13.6157C13.3116 30.1809 13.0173 30.0589 12.7888 29.8357C12.5602 29.6124 12.4133 29.3034 12.3759 28.9673C11.8469 26.383 10.9117 23.9231 9.61359 21.7013C8.8 20.3366 7.81064 19.1125 6.67726 18.0682H20.0213L20.652 18.6616C22.2681 20.2477 23.597 22.1632 24.5671 24.3049C25.2557 25.8321 25.8198 27.4249 26.2528 29.0642C26.2617 29.203 26.2454 29.3423 26.2051 29.474C26.1648 29.6056 26.1012 29.727 26.0181 29.8308C25.935 29.9347 25.834 30.0189 25.7211 30.0786C25.6083 30.1383 25.4859 30.1722 25.361 30.1783Z" fill="#5CADFF"/>
<path d="M2.67527 22.7913V4.35977C2.67078 4.17711 2.69977 3.99535 2.76048 3.82559C2.8212 3.65583 2.91236 3.50163 3.02839 3.37242C3.14442 3.24322 3.28289 3.14171 3.43534 3.0741C3.5878 3.00649 3.75102 2.97421 3.91506 2.97922H8.10205C8.45231 2.96693 8.78503 2.80569 9.03181 2.52864C9.27859 2.25159 9.42067 1.87979 9.42884 1.48967C9.4284 1.35842 9.39849 1.22936 9.34184 1.11426C9.30322 0.838563 9.18029 0.586173 8.99383 0.399765C8.89598 0.26917 8.77258 0.165254 8.63308 0.0959826C8.49358 0.0267113 8.34169 -0.00607645 8.18906 0.000132308H2.84928C2.47389 -0.00473827 2.10141 0.0740035 1.75373 0.231729C1.40606 0.389455 1.09021 0.622982 0.82475 0.918583C0.559289 1.21418 0.349573 1.5659 0.20793 1.95304C0.0662861 2.34019 -0.0044269 2.75496 -5.29443e-05 3.17298V29.6335C-0.00294642 30.0765 0.0732789 30.5158 0.224191 30.9257C0.375103 31.3356 0.597691 31.708 0.879012 32.0213C1.16033 32.3345 1.49477 32.5824 1.86289 32.7504C2.231 32.9185 2.62545 33.0034 3.02328 33.0001H8.10205C8.43461 32.9666 8.74389 32.7959 8.96911 32.5214C9.19434 32.2469 9.31923 31.8885 9.31923 31.5166C9.31923 31.1448 9.19434 30.7864 8.96911 30.5119C8.74389 30.2374 8.43461 30.0667 8.10205 30.0332H4.00206C3.83116 30.0466 3.65963 30.0204 3.49827 29.9563C3.33692 29.8921 3.18925 29.7915 3.06458 29.6606C2.93992 29.5298 2.84096 29.3715 2.77395 29.196C2.70695 29.0204 2.67335 28.8313 2.67527 28.6405V22.7913Z" fill="#8C57FC"/>
<path d="M52.9519 11.6015H51.3532L47.8514 6.84219V11.6015H46.3723V2.17981H47.8514V6.74531L51.3206 2.17981H52.8323L49.3956 6.74531L52.9519 11.6015Z" fill="#333333"/>
<path d="M52.7778 4.45651H54.2895L55.6272 8.5255C55.818 9.03112 55.939 9.56598 55.9861 10.1119H56.0731C56.1077 9.80817 56.1659 9.50833 56.2471 9.21577C56.3341 8.82825 56.867 7.24183 57.7587 4.37173H59.2704L56.5516 12.4855C56.4119 13.1047 56.0915 13.6547 55.6408 14.0492C55.19 14.4437 54.6344 14.6604 54.0611 14.6653C53.7612 14.6818 53.4607 14.6492 53.1693 14.5684V13.3574C53.3965 13.4433 53.6371 13.4763 53.8762 13.4543C54.2087 13.4498 54.5301 13.3207 54.7886 13.0878C55.0471 12.8549 55.2276 12.5318 55.3009 12.1706L55.5728 11.4804L52.7778 4.45651Z" fill="#333333"/>
<path d="M65.3279 11.6015H63.9902V5.65541H62.2067C62.1477 6.85327 62.0022 8.0439 61.7717 9.21577C61.6563 9.89533 61.4115 10.5395 61.0539 11.1049C60.9166 11.2971 60.7409 11.4509 60.5407 11.5539C60.3406 11.6569 60.1215 11.7064 59.9011 11.6983C59.6584 11.7203 59.4143 11.6873 59.1833 11.6015V10.3905C59.3185 10.4767 59.4741 10.5148 59.6292 10.4994C59.9881 10.4994 60.347 10.0029 60.521 9.0099C60.8068 7.50615 60.985 5.97953 61.0539 4.4444H65.3279V11.6015Z" fill="#333333"/>
<path d="M68.5144 7.3387H70.1131C71.8966 7.3387 72.7775 8.02898 72.7775 9.42164C72.7823 9.74358 72.7211 10.0625 72.5986 10.3542C72.4761 10.6458 72.2956 10.9026 72.0706 11.1049C71.4939 11.5358 70.8063 11.7442 70.1131 11.6983H67.1768V4.43228H68.5144V7.3387ZM71.3529 9.42164C71.3696 9.26531 71.3456 9.10693 71.2839 8.96528C71.2223 8.82362 71.1254 8.70462 71.0049 8.62237C70.6539 8.49371 70.2868 8.4283 69.9173 8.42861H68.5144V10.4026H70.0261C70.373 10.438 70.7199 10.335 71.0049 10.1119C71.2876 10.015 71.3746 9.80916 71.3746 9.42164H71.3529Z" fill="#333333"/>
<path d="M78.9439 4.45651V5.66752H76.8993V11.6015H75.5617V5.65541H73.5171V4.4444L78.9439 4.45651Z" fill="#333333"/>
<path d="M79.1179 4.45651H80.6405L81.8802 8.5255C82.076 9.02927 82.1972 9.56501 82.2391 10.1119H82.3261C82.3608 9.80817 82.419 9.50833 82.5001 9.21577C82.598 8.82825 83.1309 7.24183 84.0227 4.37173H85.4365L82.772 12.6066C82.6306 13.2248 82.3098 13.7736 81.8595 14.1678C81.4091 14.562 80.8544 14.7795 80.2816 14.7864C79.981 14.8042 79.6798 14.7674 79.3898 14.6774V13.4664C79.617 13.5523 79.8576 13.5853 80.0967 13.5633C80.4361 13.575 80.7686 13.4544 81.0366 13.2222C81.3047 12.9901 81.4915 12.661 81.5649 12.2917L81.8367 11.6015L79.1179 4.45651Z" fill="#333333"/>
<path d="M89.6233 11.6983C89.262 11.7191 88.9017 11.6392 88.575 11.4658C88.2484 11.2924 87.9658 11.031 87.7528 10.7053H87.6658C87.7214 11.0654 87.7505 11.4299 87.7528 11.7952V14.7743H86.3281V4.45649H87.4157C87.4157 4.56549 87.5027 4.95301 87.5897 5.44952H87.6767C87.8797 5.10594 88.158 4.82559 88.4852 4.63491C88.8125 4.44422 89.178 4.34948 89.5472 4.35961C89.9086 4.33881 90.2689 4.41873 90.5955 4.59213C90.9221 4.76553 91.2048 5.02692 91.4178 5.35264C91.9025 6.13863 92.15 7.07594 92.1247 8.02897C92.1586 9.01517 91.907 9.9874 91.4069 10.8022C91.2103 11.1174 90.9406 11.3672 90.6265 11.525C90.3123 11.6829 89.9656 11.7428 89.6233 11.6983ZM89.2645 5.55851C89.0519 5.53624 88.8375 5.5683 88.6378 5.65225C88.438 5.7362 88.258 5.86981 88.1117 6.04292C87.8232 6.54657 87.6967 7.14425 87.7528 7.73833V7.93209C87.6807 8.58188 87.7989 9.24023 88.0899 9.80916C88.2342 10.0211 88.4251 10.1881 88.6441 10.2941C88.8631 10.4002 89.103 10.4417 89.3406 10.4147C89.5628 10.4229 89.7826 10.3614 89.9749 10.2372C90.1672 10.113 90.3242 9.93113 90.4281 9.71228C90.705 9.13735 90.8259 8.48523 90.7761 7.83521C90.8279 7.21218 90.7064 6.5865 90.4281 6.04292C90.107 5.72751 89.6927 5.55504 89.2645 5.55851Z" fill="#333333"/>
<path d="M97.6384 11.6015L97.3666 10.6084H97.2796C97.0277 10.9588 96.7266 11.2615 96.3878 11.5046C95.9963 11.6867 95.5694 11.7534 95.148 11.6983C94.8716 11.7161 94.5948 11.6729 94.3335 11.571C94.0722 11.4692 93.8316 11.3108 93.6255 11.1049C93.4445 10.8947 93.304 10.6456 93.2123 10.3728C93.1207 10.1001 93.08 9.80939 93.0926 9.51852C93.0883 9.19544 93.1508 8.8756 93.2753 8.58371C93.3997 8.29183 93.5828 8.03573 93.8103 7.83522C94.467 7.40315 95.2237 7.19671 95.9854 7.24182H97.0729V6.84219C97.0881 6.664 97.0709 6.48423 97.0223 6.31362C96.9738 6.143 96.8948 5.98504 96.7902 5.84916C96.6665 5.73693 96.5238 5.6534 96.3707 5.60349C96.2175 5.55357 96.0569 5.53828 95.8984 5.55852C95.566 5.57587 95.237 5.64099 94.9196 5.75228C94.6075 5.84007 94.3076 5.97451 94.0278 6.15191L93.582 5.062C93.9458 4.8336 94.3379 4.66629 94.7456 4.56549C95.1221 4.451 95.5086 4.38197 95.8984 4.35962C96.5641 4.31793 97.223 4.52695 97.769 4.95301C97.9988 5.19115 98.1747 5.48645 98.2825 5.81478C98.3902 6.14311 98.4266 6.49517 98.3888 6.84219V11.6015H97.6384ZM95.583 10.6084C95.8046 10.6288 96.0275 10.5949 96.236 10.5092C96.4446 10.4234 96.6337 10.2878 96.7902 10.1119C96.9393 9.94324 97.0559 9.74231 97.1326 9.52152C97.2093 9.30074 97.2445 9.06478 97.2361 8.82824V8.22274H96.4313C95.93 8.17939 95.4297 8.31973 95.0066 8.62237C94.8608 8.73004 94.7429 8.87839 94.6647 9.05263C94.5865 9.22688 94.5506 9.42092 94.5607 9.6154C94.5462 9.74704 94.5638 9.8806 94.6117 10.0021C94.6595 10.1235 94.7358 10.2284 94.8326 10.3057C95.0393 10.5088 95.3075 10.6171 95.583 10.6084Z" fill="#333333"/>
<path d="M52.4188 31.7163H51.179V29.2337H46.8289V31.7163H45.5674V28.0833H46.1003C46.6047 27.2715 46.9732 26.3648 47.1878 25.4069C47.4813 24.3145 47.6315 23.1806 47.6337 22.0403H51.5488V27.9864H52.5276V31.7526L52.4188 31.7163ZM50.2438 28.0833V23.2877H48.8626C48.7652 24.1575 48.6162 25.0192 48.4167 25.8671C48.2086 26.635 47.9087 27.3682 47.5249 28.0469L50.2438 28.0833Z" fill="#333333"/>
<path d="M58.7266 29.2337H57.4107V23.2877H55.6271C55.5691 24.5104 55.42 25.7256 55.1812 26.9207C55.0672 27.5987 54.8263 28.2424 54.4743 28.8099C54.3326 28.9995 54.1545 29.1513 53.9531 29.254C53.7517 29.3567 53.5321 29.4077 53.3107 29.4033C53.0706 29.428 52.8287 29.3907 52.6038 29.2943V28.0833C52.7409 28.1626 52.8957 28.1962 53.0496 28.1802C53.3977 28.1802 53.7565 27.6958 53.9305 26.7027C54.2213 25.1996 54.4032 23.6728 54.4743 22.1372H58.7266V29.2337Z" fill="#333333"/>
<path d="M61.2389 29.2338H59.7163L61.4999 26.3637C61.1068 26.2802 60.7569 26.0334 60.5211 25.6734C60.2686 25.3017 60.1416 24.843 60.1622 24.3776C60.143 24.0777 60.1905 23.7771 60.3005 23.5025C60.4106 23.2279 60.5797 22.9877 60.793 22.8033C61.3052 22.3836 61.9302 22.1701 62.5656 22.1978H65.502V29.3427H64.0773V26.5453H62.7505L61.2389 29.2338ZM61.4129 24.2807C61.3958 24.4384 61.4208 24.5983 61.4846 24.7403C61.5484 24.8824 61.6482 25.0005 61.7717 25.08C62.0664 25.2789 62.406 25.3798 62.7505 25.3706H64.0773V23.2877H62.5656C62.2477 23.2855 61.9366 23.3911 61.6739 23.5905C61.4129 23.7842 61.4129 23.8932 61.4129 24.2807Z" fill="#333333"/>
<path d="M79.3028 29.2338H70.2219V22.1009H71.5596V28.047H74.05V22.1009H75.3877V28.047H77.8781V22.1009H79.2158V29.2338H79.3028Z" fill="#333333"/>
<path d="M85.1755 22.1009H86.6871L84.0227 25.5765L86.8611 29.2095H85.2625L82.5001 25.5765V29.2095H81.1733V22.1009H82.5001V25.5765L85.1755 22.1009Z" fill="#333333"/>
<path d="M93.4516 25.6734C93.5064 26.6776 93.219 27.668 92.6468 28.4466C92.3751 28.7842 92.0382 29.0489 91.6616 29.2209C91.2849 29.3929 90.8781 29.4676 90.4718 29.4396C89.8956 29.4553 89.3269 29.2917 88.8296 28.9673C88.3599 28.6648 87.9814 28.2138 87.7421 27.6716C87.4855 27.0542 87.3661 26.3772 87.394 25.6976C87.3596 25.2151 87.4121 24.7298 87.5484 24.2702C87.6848 23.8106 87.9022 23.386 88.1879 23.0213C88.4789 22.695 88.8269 22.4385 89.2103 22.2677C89.5938 22.097 90.0046 22.0154 90.4174 22.0283C90.8228 22.0096 91.227 22.0886 91.6024 22.26C91.9778 22.4314 92.3155 22.6911 92.5924 23.0213C92.8871 23.3773 93.1149 23.7953 93.2625 24.2508C93.41 24.7062 93.4743 25.1899 93.4516 25.6734ZM88.8296 25.6734C88.8296 27.3567 89.3625 28.0954 90.4283 28.0954C91.494 28.0954 92.0269 27.3083 92.0269 25.6734C92.0269 24.0385 91.494 23.1908 90.4283 23.1908C90.1929 23.176 89.9576 23.2218 89.7406 23.3248C89.5237 23.4277 89.3311 23.5849 89.1776 23.7842C88.9109 24.3675 88.7906 25.0203 88.8296 25.6734Z" fill="#333333"/>
<path d="M100.216 29.2337H98.7913V23.2877H97.0077C96.9554 24.511 96.8062 25.7267 96.5618 26.9207C96.4527 27.6003 96.2114 28.2451 95.8549 28.8099C95.7155 28.9993 95.5393 29.151 95.3396 29.2538C95.14 29.3566 94.9221 29.4077 94.7022 29.4033C94.4586 29.4277 94.2132 29.3905 93.9844 29.2943V28.0833C94.1221 28.1607 94.2765 28.1942 94.4303 28.1802C94.7892 28.1802 95.148 27.6958 95.322 26.7027C95.6078 25.199 95.786 23.6724 95.8549 22.1372H100.129V29.2701L100.216 29.2337Z" fill="#333333"/>
<path d="M103.424 24.9831H105.023C106.806 24.9831 107.687 25.6734 107.687 27.0539C107.694 27.3779 107.633 27.6992 107.511 27.9931C107.388 28.287 107.207 28.5457 106.98 28.7493C106.401 29.1738 105.715 29.3816 105.023 29.3427H102.086V22.1978H103.424V24.9831ZM106.273 27.0539C106.288 26.8981 106.262 26.7409 106.199 26.6012C106.135 26.4616 106.036 26.3454 105.915 26.2668C105.576 26.0883 105.199 26.0211 104.827 26.073H103.315V28.047H104.838C105.185 28.0824 105.532 27.9794 105.817 27.7563C105.958 27.7241 106.083 27.634 106.168 27.504C106.252 27.374 106.29 27.2134 106.273 27.0539Z" fill="#333333"/>
<path d="M110.449 22.1009V24.9831H113.473V22.1009H114.81V29.2338H113.473V26.1699H110.449V29.2338H109.112V22.1009H110.449Z" fill="#333333"/>
<path d="M117.932 22.1009V25.7339C117.939 26.3654 117.906 26.9967 117.834 27.6231L121.096 22.0646H122.782V29.1974H121.455V24.6804C121.432 24.3462 121.461 24.01 121.542 23.6873L118.334 29.2337H116.648V22.1009H117.932Z" fill="#333333"/>
<path d="M128.514 22.1009H130.036L127.361 25.5765L130.21 29.2095H128.611L125.849 25.5765V29.2095H124.511V22.1009H125.849V25.5765L128.514 22.1009Z" fill="#333333"/>
<path d="M136.888 25.6734C136.937 26.6769 136.65 27.6651 136.083 28.4466C135.81 28.7821 135.473 29.0454 135.096 29.2172C134.72 29.389 134.314 29.465 133.908 29.4396C133.344 29.4372 132.792 29.2657 132.309 28.9431C131.836 28.6454 131.456 28.1931 131.222 27.6473C130.956 27.0329 130.833 26.3544 130.863 25.6734C130.83 25.1901 130.884 24.7043 131.022 24.2446C131.16 23.785 131.38 23.3608 131.667 22.9971C131.939 22.6595 132.276 22.3948 132.653 22.2228C133.029 22.0508 133.436 21.976 133.842 22.004C134.248 21.9869 134.651 22.0667 135.027 22.238C135.402 22.4093 135.74 22.6681 136.018 22.9971C136.317 23.355 136.548 23.7765 136.698 24.2364C136.847 24.6963 136.912 25.185 136.888 25.6734ZM132.168 25.6734C132.168 27.3567 132.701 28.0954 133.766 28.0954C134.832 28.0954 135.376 27.3083 135.376 25.6734C135.376 24.0385 134.832 23.1908 133.766 23.1908C133.532 23.1751 133.298 23.2206 133.083 23.3236C132.868 23.4266 132.677 23.5844 132.527 23.7842C132.291 24.3796 132.169 25.0228 132.168 25.6734Z" fill="#333333"/>
<path d="M143.826 23.8932C143.826 24.7772 143.38 25.2738 142.488 25.3706V25.4675C142.911 25.5031 143.316 25.6757 143.652 25.964C143.891 26.2631 144.016 26.654 144 27.0539C144.007 27.3624 143.946 27.668 143.823 27.9444C143.699 28.2208 143.518 28.4596 143.293 28.6404C142.679 29.0514 141.961 29.2258 141.249 29.1369H138.214V22.004H141.249C143.021 22.1009 143.826 22.6943 143.826 23.8932ZM142.467 24.1233C142.481 24.0067 142.464 23.8881 142.417 23.7824C142.371 23.6767 142.297 23.5889 142.206 23.5299C141.924 23.3953 141.62 23.3253 141.314 23.324H139.639V25.0194H141.064C141.434 25.0165 141.801 24.947 142.151 24.8136C142.255 24.7413 142.339 24.6388 142.395 24.5172C142.451 24.3956 142.475 24.2594 142.467 24.1233ZM142.651 27.0903C142.665 26.9477 142.637 26.8042 142.573 26.6802C142.508 26.5562 142.41 26.4581 142.293 26.4C141.942 26.2699 141.575 26.2044 141.205 26.2062H139.639V28.1802H141.249C142.227 28.1438 142.673 27.7563 142.673 27.0539L142.651 27.0903Z" fill="#333333"/>
</g>
<defs>
<clipPath id="clip0">
<rect width="144" height="33" fill="white"/>
</clipPath>
</defs>
</svg>
