<svg width="70" height="71" viewBox="0 0 70 71" fill="none" xmlns="http://www.w3.org/2000/svg">
<rect x="40" y="40.9899" width="30" height="28" fill="#8C57FC"/>
<path d="M32.5 5.98988C32.5 5.18988 18.1667 5.65654 11 5.98988V29.9899L27 30.4899L26.5 32.9899H55.5L50 20.4899L55.5 9.48987H32.5V5.98988Z" fill="#F1795C"/>
<circle cx="49" cy="61.9899" r="3" fill="#5CADFF"/>
<path d="M38.5 40.6565V44.1565H35C34.356 44.1565 33.8333 44.678 33.8333 45.3232V46.4899H28.9287C27.93 46.4899 26.9768 46.0617 26.313 45.315L21.7898 40.2272C19.4425 37.5882 15.5073 37.146 12.635 39.1982C12.2803 39.4514 11.9583 39.7325 11.6667 40.0359V31.3232H25.6667V33.6565C25.6667 34.3017 26.1893 34.8232 26.8333 34.8232H56C56.3967 34.8232 56.7665 34.6214 56.9812 34.2877C57.1958 33.9552 57.2262 33.534 57.0617 33.1735L51.4593 20.8477L57.0442 9.6792C57.225 9.31753 57.2052 8.8882 56.9928 8.54403C56.7805 8.19987 56.4048 7.98987 56 7.98987H33.8333V5.65653C33.8333 5.01137 33.3107 4.48987 32.6667 4.48987H11.6667C11.6667 2.5602 10.0963 0.989868 8.16667 0.989868C6.237 0.989868 4.66667 2.5602 4.66667 4.48987V42.0379C3.31217 42.5209 2.33333 43.8042 2.33333 45.3232V47.8712C0.978833 48.3542 0 49.6375 0 51.1565V58.1565C0 59.77 1.1025 61.1187 2.59 61.5212C2.42783 61.9249 2.33333 62.3624 2.33333 62.8232V64.4367C2.33333 66.077 3.49767 67.5167 5.10067 67.8597L16.065 70.2094C16.7102 70.347 17.3623 70.4159 18.0122 70.4159C19.943 70.4159 21.8505 69.8162 23.4442 68.6787L26.5487 66.462C27.7433 65.608 29.1492 65.1565 30.6168 65.1565H33.8333V66.3232C33.8333 66.9684 34.356 67.4899 35 67.4899H38.5V69.8232C38.5 70.4684 39.0227 70.9899 39.6667 70.9899H70V68.6565H40.8333V66.3232V45.3232V41.8232H70V39.4899H39.6667C39.0227 39.4899 38.5 40.0114 38.5 40.6565ZM33.8333 30.1565V10.3232H54.1123L49.1237 20.3017C48.9662 20.6167 48.9592 20.9854 49.105 21.3062L54.1882 32.4899H28V31.3232H32.6667C33.3107 31.3232 33.8333 30.8017 33.8333 30.1565ZM31.5 6.8232V28.9899H11.6667V6.8232H31.5ZM8.16667 3.3232C8.8095 3.3232 9.33333 3.84587 9.33333 4.48987V6.8232V28.9899V31.3232V41.8232H7V4.48987C7 3.84587 7.52383 3.3232 8.16667 3.3232ZM5.83333 44.1565H9.78367C9.67517 45.3232 9.87 46.5249 10.3868 47.6565H4.66667V45.3232C4.66667 44.6792 5.1905 44.1565 5.83333 44.1565ZM3.5 49.9899H11.529L11.6667 50.2652V53.2577C11.6667 53.337 11.6853 53.4105 11.69 53.4887H2.33333V51.1554C2.33333 50.5125 2.85717 49.9899 3.5 49.9899ZM2.33333 55.8232H11.6667V59.3232H7H5.83333H3.5C2.85717 59.3232 2.33333 58.8005 2.33333 58.1565V55.8232ZM30.6168 62.8232C28.6603 62.8232 26.7843 63.4252 25.193 64.5615L22.0885 66.7782C20.4902 67.9192 18.473 68.3392 16.5527 67.9262L5.58833 65.5777C5.05517 65.4634 4.66667 64.9839 4.66667 64.4367V62.8232C4.66667 62.1792 5.1905 61.6565 5.83333 61.6565H7H11.6667V63.1487L8.96467 64.0494L9.70317 66.2614L13.2032 65.0947C13.6792 64.9384 14 64.4927 14 63.9899V60.4899V56.7122C14.4328 56.8884 14.903 56.9899 15.3977 56.9899C16.7312 56.9899 17.9317 56.2747 18.5932 55.1804C19.6198 56.3167 21.0082 57.11 22.554 57.3737L22.946 55.0742C21.3687 54.8047 20.0305 53.7115 19.4518 52.2205L19.4238 52.1494L19.81 50.2185C19.8613 49.963 19.8252 49.7005 19.7097 49.4672L18.543 47.1339L16.4558 48.178L17.444 50.1532L16.7685 53.5319C16.6378 54.184 16.0615 54.6565 15.3977 54.6565C14.6277 54.6565 14 54.03 14 53.2589V49.9899C14 49.809 13.958 49.6294 13.8775 49.4684L12.565 46.8434C11.5558 44.8262 12.1555 42.4077 13.993 41.0964C15.8923 39.7395 18.4952 40.0312 20.0468 41.7765L24.57 46.8644C25.6748 48.1104 27.2638 48.8232 28.9287 48.8232H33.8333V62.8232H30.6168ZM36.1667 46.4899H38.5V65.1565H36.1667V46.4899Z" fill="#333333"/>
<path d="M44.3333 61.6565C44.3333 64.2302 46.4263 66.3232 48.9999 66.3232C51.5736 66.3232 53.6666 64.2302 53.6666 61.6565C53.6666 59.0829 51.5736 56.9899 48.9999 56.9899C46.4263 56.9899 44.3333 59.0829 44.3333 61.6565ZM51.3333 61.6565C51.3333 62.9434 50.2868 63.9899 48.9999 63.9899C47.7131 63.9899 46.6666 62.9434 46.6666 61.6565C46.6666 60.3697 47.7131 59.3232 48.9999 59.3232C50.2868 59.3232 51.3333 60.3697 51.3333 61.6565Z" fill="#333333"/>
</svg>
