<svg width="84" height="71" viewBox="0 0 84 71" fill="none" xmlns="http://www.w3.org/2000/svg">
<path d="M35 51.9899V69.4899H48.5V58.4899C48.3333 56.6565 48 52.5899 48 50.9899C48 49.3899 45.6667 47.6565 44.5 46.9899H40.5L37 48.9899L35 51.9899Z" fill="#5CADFF"/>
<path d="M42 12.4899V2.48987C44.8333 4.3232 50.6 7.98987 51 7.98987C51.4 7.98987 45.1667 10.9899 42 12.4899Z" fill="#F1795C"/>
<path d="M25.5 46.9899H2L9 18.4899H75L82 46.9899C74.3333 47.1565 58.8 47.3899 58 46.9899C57.2 46.5898 57.6667 38.8232 58 34.9899C53.1667 30.1565 43.2 20.2899 42 19.4899C40.8 18.6899 30.5 29.4899 25.5 34.9899V46.9899Z" fill="#8C57FC"/>
<path d="M83.1972 46.994L76.153 18.1818C76.0375 17.7092 75.6135 17.3761 75.1268 17.3761H43.0566V13.168L52.0679 8.99158C52.42 8.82819 52.6539 8.4845 52.6771 8.09714C52.7017 7.70979 52.5109 7.34074 52.1806 7.1358L42.5587 1.14938C42.2326 0.947256 41.8227 0.935987 41.4874 1.12262C41.1515 1.30926 40.9444 1.66281 40.9444 2.04664V17.3768H8.69036C8.2037 17.3768 7.77972 17.7099 7.66422 18.1825L0.62068 46.9947C0.543914 47.3095 0.615751 47.6427 0.815767 47.8976C1.01578 48.1526 1.32215 48.3019 1.64682 48.3019H3.92448V69.8994C3.92448 70.4826 4.39775 70.9559 4.9809 70.9559H25.6805H35.2806H48.5387H58.1381H78.8377C79.4209 70.9559 79.8941 70.4826 79.8941 69.8994V48.3019H82.1704C82.4951 48.3019 82.8007 48.1526 83.0014 47.8976C83.2007 47.642 83.274 47.3095 83.1972 46.994ZM43.0566 3.94891L49.405 7.89713L43.0566 10.8396V3.94891ZM24.6241 68.843H6.03733V48.3019H24.6241V68.843ZM24.6241 46.189H2.99271L4.08435 41.7253H24.6241V46.189ZM24.9459 34.3402C24.7403 34.5388 24.6241 34.8134 24.6241 35.0994V39.6124H4.60059L9.5193 19.4896H40.3007L24.9459 34.3402ZM47.4823 68.843H36.337V53.2178C36.337 50.1457 38.8372 47.6455 41.91 47.6455C44.9814 47.6455 47.4823 50.1457 47.4823 53.2178V68.843ZM57.0817 68.843H49.5952V53.2178C49.5952 48.9801 46.147 45.5326 41.91 45.5326C37.6723 45.5326 34.2242 48.9808 34.2242 53.2178V68.843H26.7369V35.5466L42.072 20.7158L57.0817 35.541V68.843ZM43.8369 19.4896H74.2972L79.2159 39.6124H59.1945V35.0994C59.1945 34.817 59.0819 34.5465 58.8797 34.3479L43.8369 19.4896ZM77.7813 68.843H59.1945V48.3019H77.7813V68.843ZM59.1945 46.189V41.7253H79.7329L80.8238 46.189H59.1945Z" fill="#333333"/>
<path d="M35.5891 35.4058C35.5891 38.8899 38.4239 41.7253 41.9079 41.7253C45.392 41.7253 48.2275 38.8906 48.2275 35.4058C48.2275 31.921 45.3927 29.0862 41.9079 29.0862C38.4246 29.0869 35.5891 31.9217 35.5891 35.4058ZM46.1146 35.4058C46.1146 37.725 44.2271 39.6125 41.9079 39.6125C39.5894 39.6125 37.702 37.725 37.702 35.4058C37.702 33.0866 39.5894 31.1991 41.9079 31.1991C44.2279 31.1998 46.1146 33.0866 46.1146 35.4058Z" fill="#333333"/>
<path d="M13.2684 54.7518H11.1555V61.3248H13.2684V54.7518Z" fill="#333333"/>
<path d="M19.4891 54.7518H17.3762V61.3248H19.4891V54.7518Z" fill="#333333"/>
<path d="M66.4417 54.7518H64.3289V61.3248H66.4417V54.7518Z" fill="#333333"/>
<path d="M72.6631 54.7518H70.5503V61.3248H72.6631V54.7518Z" fill="#333333"/>
</svg>
