<svg width="61" height="71" viewBox="0 0 61 71" fill="none" xmlns="http://www.w3.org/2000/svg">
<path d="M19.5 19.4899L14 21.9899L13 19.4899L16 9.48987L24.5 2.98987L46 1.98987L47 4.98987L44.5 9.48987L47 14.9899L48 21.9899L46 20.9899L36.5 17.9899L30.5 10.9899L27 14.9899L19.5 19.4899Z" fill="#333333"/>
<path d="M8 48.9899C11.8333 47.8232 20.1 45.4899 22.5 45.4899L31 51.9899L35 47.4899L38 45.4899L52 49.4899L55 51.9899L59 58.4899L59.5 68.9899H1.5V67.9899L2.5 55.4899L8 48.9899Z" fill="#5CADFF"/>
<path d="M21 53.9899L23 45.4899L29.5 51.4899L21 53.9899Z" fill="#8C57FC"/>
<path d="M37 45.4898C37 45.0898 33.3333 49.3232 31.5 51.4898L39.5 53.4899C38.6667 50.9899 37 45.8898 37 45.4898Z" fill="#8C57FC"/>
<path d="M49.3971 46.9826L38.6129 44.1373V40.5178C40.5615 39.3897 42.2547 37.8691 43.585 36.0525C44.9153 34.2358 45.8537 32.1626 46.3409 29.9642H46.7257C47.7451 29.9677 48.737 29.6341 49.547 29.0152C50.3571 28.3963 50.9397 27.5269 51.2042 26.5424C51.4687 25.5579 51.4002 24.5136 51.0094 23.5721C50.6187 22.6305 49.9275 21.8447 49.0436 21.3368V19.5335C49.05 15.9856 48.0309 12.5115 46.1091 9.52919C47.2628 8.09464 47.8896 6.30773 47.8846 4.46679V2.14884C47.8846 1.84146 47.7625 1.54667 47.5452 1.32932C47.3278 1.11197 47.0331 0.989868 46.7257 0.989868H30.5C25.5838 0.995696 20.8705 2.95126 17.3942 6.4276C13.9178 9.90393 11.9623 14.6172 11.9564 19.5335V21.3368C11.0725 21.8447 10.3814 22.6305 9.99062 23.5721C9.59984 24.5136 9.53137 25.5579 9.79587 26.5424C10.0604 27.5269 10.643 28.3963 11.453 29.0152C12.2631 29.6341 13.255 29.9677 14.2744 29.9642H14.6592C15.1463 32.1626 16.0848 34.2358 17.4151 36.0525C18.7454 37.8691 20.4385 39.3897 22.3872 40.5178V44.1373L11.6087 46.9814C8.38835 47.8248 5.53825 49.7116 3.50418 52.3469C1.4701 54.9822 0.366759 58.2173 0.366699 61.5463V69.3694C0.366699 69.6767 0.488805 69.9715 0.706155 70.1889C0.923505 70.4062 1.21829 70.5283 1.52567 70.5283H59.4744C59.7818 70.5283 60.0766 70.4062 60.2939 70.1889C60.5113 69.9715 60.6334 69.6767 60.6334 69.3694V61.5463C60.6338 58.2182 59.5313 54.9837 57.4983 52.3487C55.4653 49.7137 52.6164 47.8266 49.3971 46.9826ZM36.8257 47.2978L38.1782 52.7103L32.767 51.3566L36.8257 47.2978ZM46.7257 27.6463V23.0104C47.3404 23.0104 47.93 23.2546 48.3647 23.6893C48.7994 24.124 49.0436 24.7136 49.0436 25.3283C49.0436 25.9431 48.7994 26.5327 48.3647 26.9674C47.93 27.4021 47.3404 27.6463 46.7257 27.6463ZM14.2744 19.5335C14.279 15.2316 15.99 11.1072 19.0319 8.06528C22.0738 5.02338 26.1981 3.31242 30.5 3.30782H45.5667V4.46679C45.5683 5.23697 45.4153 5.99964 45.1166 6.70957C44.818 7.4195 44.3799 8.06224 43.8282 8.59969C43.6296 8.79355 43.5072 9.05223 43.4831 9.32872C43.4591 9.60521 43.5351 9.88115 43.6973 10.1064C45.6705 12.8533 46.7299 16.1512 46.7257 19.5335V20.6924C46.7257 20.3851 46.6036 20.0903 46.3862 19.8729C46.1689 19.6556 45.8741 19.5335 45.5667 19.5335C37.0645 19.5335 31.5431 10.8921 31.4817 10.8052C31.3891 10.6577 31.2645 10.5329 31.1171 10.4401C30.9697 10.3474 30.8033 10.289 30.6303 10.2694C30.4572 10.2498 30.282 10.2695 30.1176 10.3269C29.9532 10.3844 29.8038 10.4781 29.6806 10.6012C20.9675 19.3144 15.4751 19.5335 15.4334 19.5335C15.126 19.5335 14.8312 19.6556 14.6138 19.8729C14.3965 20.0903 14.2744 20.3851 14.2744 20.6924V19.5335ZM14.2744 27.6463C13.6596 27.6463 13.0701 27.4021 12.6354 26.9674C12.2007 26.5327 11.9564 25.9431 11.9564 25.3283C11.9564 24.7136 12.2007 24.124 12.6354 23.6893C13.0701 23.2546 13.6596 23.0104 14.2744 23.0104V27.6463ZM16.5923 26.4873V21.7054C18.7144 21.2812 23.6134 19.6297 30.3355 13.202C32.2095 15.6833 37.1862 21.2557 44.4077 21.8074V26.4873C44.4077 30.1759 42.9425 33.7133 40.3343 36.3215C37.7261 38.9297 34.1886 40.395 30.5 40.395C26.8115 40.395 23.274 38.9297 20.6658 36.3215C18.0576 33.7133 16.5923 30.1759 16.5923 26.4873ZM30.5 42.7129C32.4822 42.7099 34.4467 42.341 36.2949 41.6247V44.5511L30.5 50.3459L24.7052 44.5511V41.6247C26.5533 42.341 28.5179 42.7099 30.5 42.7129ZM24.1743 47.2978L28.2308 51.3543L22.8195 52.7079L24.1743 47.2978ZM58.3154 68.2104H47.8846V60.0976H45.5667V68.2104H15.4334V60.0976H13.1154V68.2104H2.68465V61.5463C2.68387 58.7306 3.61608 55.9941 5.33555 53.7644C7.05502 51.5348 9.46483 49.9377 12.1882 49.2229L21.9468 46.6535L20.104 54.0245C20.0556 54.2187 20.0583 54.4221 20.1118 54.6149C20.1653 54.8077 20.2679 54.9833 20.4094 55.1247C20.5509 55.2662 20.7267 55.3685 20.9195 55.4219C21.1124 55.4753 21.3158 55.4778 21.5099 55.4292L30.5 53.1796L39.4902 55.4269C39.6844 55.4755 39.8879 55.473 40.0809 55.4196C40.2738 55.3662 40.4497 55.2637 40.5912 55.1221C40.7326 54.9806 40.835 54.805 40.8884 54.6123C40.9418 54.4195 40.9444 54.2163 40.896 54.0222L39.0533 46.6535L48.8083 49.2264C51.5319 49.9402 53.9422 51.5364 55.6623 53.7655C57.3824 55.9945 58.3154 58.7307 58.3154 61.5463V68.2104Z" fill="#333333"/>
<path d="M30.5001 29.9643C31.4223 29.9643 32.3066 29.5979 32.9587 28.9459C33.6107 28.2938 33.977 27.4095 33.977 26.4873V21.8514H31.6591V26.4873C31.6591 26.7947 31.537 27.0895 31.3196 27.3069C31.1023 27.5242 30.8075 27.6463 30.5001 27.6463C30.1927 27.6463 29.8979 27.5242 29.6806 27.3069C29.4632 27.0895 29.3411 26.7947 29.3411 26.4873V21.8514H27.0232V26.4873C27.0232 27.4095 27.3895 28.2938 28.0416 28.9459C28.6936 29.5979 29.578 29.9643 30.5001 29.9643Z" fill="#333333"/>
<path d="M36.631 22.6742C36.7931 22.8364 37.0001 22.9463 37.2253 22.9896C37.4505 23.033 37.6835 23.0079 37.8943 22.9176C38.0347 22.8588 38.164 22.7765 38.2767 22.6742C38.3787 22.5613 38.461 22.432 38.5201 22.2918C38.5813 22.153 38.6129 22.003 38.6129 21.8514C38.6129 21.6997 38.5813 21.5497 38.5201 21.4109C38.4613 21.2706 38.379 21.1412 38.2767 21.0285C38.2199 20.9758 38.1578 20.9292 38.0913 20.8894C38.0322 20.8435 37.9655 20.8082 37.8943 20.7851C37.8286 20.7516 37.7583 20.7282 37.6856 20.7156C37.4977 20.6772 37.3031 20.6857 37.1192 20.7403C36.9353 20.7948 36.7676 20.8938 36.631 21.0285C36.5262 21.1393 36.4436 21.2691 36.3876 21.4109C36.3265 21.5497 36.2949 21.6997 36.2949 21.8514C36.2949 22.003 36.3265 22.153 36.3876 22.2918C36.4467 22.432 36.5289 22.5613 36.631 22.6742Z" fill="#333333"/>
<path d="M24.369 22.6743C24.471 22.5614 24.5533 22.4321 24.6124 22.2918C24.6736 22.1531 24.7052 22.0031 24.7052 21.8514C24.7052 21.6998 24.6736 21.5498 24.6124 21.411C24.5536 21.2706 24.4713 21.1413 24.369 21.0285C24.1449 20.8217 23.8511 20.7069 23.5461 20.7069C23.2412 20.7069 22.9474 20.8217 22.7233 21.0285C22.6185 21.1393 22.5359 21.2692 22.4799 21.411C22.4188 21.5498 22.3872 21.6998 22.3872 21.8514C22.3872 22.0031 22.4188 22.153 22.4799 22.2918C22.5389 22.4321 22.6212 22.5614 22.7233 22.6743C22.836 22.7766 22.9653 22.8589 23.1057 22.9177C23.2445 22.9788 23.3945 23.0103 23.5461 23.0103C23.6978 23.0103 23.8478 22.9788 23.9865 22.9177C24.1269 22.8589 24.2563 22.7766 24.369 22.6743Z" fill="#333333"/>
<path d="M30.9405 55.5544C30.7285 55.4711 30.4972 55.4497 30.2735 55.4928C30.0498 55.5359 29.843 55.6417 29.6772 55.7978C29.6276 55.8527 29.5812 55.9103 29.5381 55.9705C29.4944 56.0356 29.4593 56.1061 29.4338 56.1802C29.4003 56.2459 29.3769 56.3162 29.3642 56.3889C29.3508 56.4654 29.343 56.5429 29.3411 56.6207C29.3402 56.9285 29.461 57.2243 29.6772 57.4435C29.7899 57.5458 29.9192 57.6281 30.0596 57.6869C30.2351 57.7621 30.4265 57.7924 30.6165 57.7749C30.8066 57.7575 30.9893 57.6929 31.1481 57.587C31.307 57.4811 31.4369 57.3373 31.5261 57.1686C31.6153 56.9998 31.661 56.8115 31.659 56.6207C31.6643 56.3904 31.5981 56.1642 31.4694 55.9732C31.3406 55.7822 31.1559 55.6359 30.9405 55.5544Z" fill="#333333"/>
<path d="M31.3229 60.4337C31.1599 60.2729 30.953 60.164 30.7281 60.1207C30.5033 60.0773 30.2707 60.1016 30.0596 60.1904C29.9192 60.2491 29.7899 60.3315 29.6772 60.4337C29.5724 60.5445 29.4898 60.6744 29.4338 60.8162C29.3587 60.9924 29.3285 61.1846 29.3458 61.3753C29.3632 61.5661 29.4275 61.7497 29.5332 61.9095C29.6388 62.0693 29.7824 62.2004 29.9511 62.2912C30.1199 62.3819 30.3085 62.4294 30.5 62.4294C30.6916 62.4294 30.8802 62.3819 31.0489 62.2912C31.2177 62.2004 31.3613 62.0693 31.4669 61.9095C31.5725 61.7497 31.6369 61.5661 31.6543 61.3753C31.6716 61.1846 31.6414 60.9924 31.5663 60.8162C31.5103 60.6744 31.4277 60.5445 31.3229 60.4337Z" fill="#333333"/>
<path d="M29.6773 65.0696C29.575 65.1823 29.4927 65.3117 29.4339 65.452C29.3435 65.6628 29.3184 65.8959 29.3618 66.1211C29.4051 66.3463 29.515 66.5533 29.6771 66.7155C29.8393 66.8777 30.0463 66.9875 30.2715 67.0309C30.4967 67.0742 30.7298 67.0491 30.9406 66.9587C31.081 66.8999 31.2103 66.8176 31.323 66.7153C31.431 66.6074 31.5163 66.4791 31.574 66.3378C31.6317 66.1965 31.6606 66.0451 31.6591 65.8925C31.6605 65.6623 31.5932 65.4369 31.466 65.245C31.3387 65.0532 31.1572 64.9036 30.9446 64.8153C30.732 64.7271 30.4979 64.7041 30.2722 64.7494C30.0465 64.7947 29.8394 64.9061 29.6773 65.0696Z" fill="#333333"/>
<path d="M37.3993 33.0413L35.6481 31.523C34.9656 32.1761 34.157 32.683 33.2718 33.0128C32.3866 33.3426 31.4434 33.4883 30.5 33.4411C29.5565 33.4883 28.6133 33.3426 27.7281 33.0128C26.8429 32.683 26.0343 32.1761 25.3518 31.523L23.6006 33.0413C24.4975 33.9504 25.5746 34.6618 26.7628 35.1299C27.951 35.598 29.224 35.8123 30.5 35.7591C31.7759 35.8123 33.0489 35.598 34.2371 35.1299C35.4253 34.6618 36.5025 33.9504 37.3993 33.0413Z" fill="#333333"/>
</svg>
