<svg width="114" height="114" viewBox="0 0 114 114" fill="none" xmlns="http://www.w3.org/2000/svg">
<path d="M69.2704 81.9285C74.3815 77.6179 78.1044 71.8942 79.9682 65.481C81.832 59.0678 81.7531 52.2532 79.7413 45.899C77.7296 39.5447 73.8754 33.9363 68.6662 29.7828C63.4569 25.6293 57.1266 23.1173 50.4757 22.5645C43.8249 22.0117 37.1521 23.4429 31.3013 26.6772C25.4505 29.9114 20.6845 34.8034 17.6059 40.7345C14.5273 46.6657 13.2743 53.3696 14.0056 59.9985C14.7368 66.6273 17.4193 72.8835 21.714 77.9758C24.5641 81.3589 28.0556 84.145 31.9888 86.1748C35.922 88.2046 40.2198 89.4383 44.6365 89.8054C49.0531 90.1725 53.5021 89.6658 57.7289 88.3142C61.9558 86.9626 65.8777 84.7927 69.2704 81.9285Z" fill="white" stroke="#F1795C" stroke-width="2.26" stroke-miterlimit="10"/>
<path d="M38.3156 45.2241C39.1834 44.4877 39.8144 43.5117 40.1288 42.4192C40.4432 41.3267 40.4269 40.1668 40.082 39.0859C39.7371 38.0051 39.0791 37.0518 38.1911 36.3464C37.303 35.6411 36.2247 35.2153 35.0925 35.1229C33.9602 35.0305 32.8247 35.2756 31.8294 35.8273C30.8341 36.3789 30.0236 37.2124 29.5003 38.2224C28.977 39.2324 28.7644 40.3736 28.8892 41.5019C29.0141 42.6303 29.471 43.6951 30.202 44.5619C30.6886 45.139 31.2848 45.6139 31.9563 45.9596C32.6278 46.3053 33.3614 46.5149 34.1151 46.5764C34.8689 46.6379 35.6279 46.5501 36.3487 46.3181C37.0695 46.086 37.7379 45.7142 38.3156 45.2241V45.2241Z" stroke="#E5A52C" stroke-width="1.54" stroke-miterlimit="10"/>
<path d="M63.7822 75.5816C64.6528 74.8474 65.2869 73.8724 65.6043 72.78C65.9218 71.6877 65.9084 70.5269 65.5657 69.4446C65.223 68.3623 64.5665 67.4069 63.6792 66.6995C62.7919 65.992 61.7137 65.5641 60.5808 65.47C59.448 65.3758 58.3114 65.6196 57.3148 66.1705C56.3182 66.7214 55.5064 67.5547 54.982 68.5649C54.4576 69.5752 54.2442 70.7171 54.3688 71.8462C54.4933 72.9753 54.9502 74.0409 55.6817 74.9083C56.1674 75.4842 56.7623 75.9585 57.4322 76.304C58.1021 76.6495 58.8341 76.8596 59.5863 76.9221C60.3385 76.9846 61.0962 76.8984 61.8161 76.6684C62.536 76.4384 63.2041 76.0691 63.7822 75.5816V75.5816Z" stroke="#E5A52C" stroke-width="1.54" stroke-miterlimit="10"/>
<path d="M30.0947 64.4172C30.9625 63.6808 31.5935 62.7047 31.9079 61.6123C32.2223 60.5198 32.206 59.3599 31.8611 58.279C31.5162 57.1982 30.8582 56.2449 29.9701 55.5395C29.0821 54.8341 28.0038 54.4084 26.8716 54.316C25.7393 54.2236 24.6038 54.4687 23.6084 55.0203C22.6131 55.572 21.8027 56.4054 21.2794 57.4154C20.7561 58.4254 20.5434 59.5667 20.6683 60.695C20.7932 61.8234 21.25 62.8882 21.9811 63.755C22.4677 64.3321 23.0639 64.807 23.7354 65.1527C24.4069 65.4984 25.1405 65.708 25.8942 65.7695C26.648 65.831 27.407 65.7432 28.1278 65.5112C28.8486 65.2791 29.517 64.9073 30.0947 64.4172Z" stroke="#E5A52C" stroke-width="1.54" stroke-miterlimit="10"/>
<path d="M58.396 40.5491C59.2638 39.8128 59.8947 38.8367 60.2091 37.7442C60.5235 36.6517 60.5073 35.4918 60.1624 34.411C59.8175 33.3301 59.1595 32.3768 58.2714 31.6715C57.3833 30.9661 56.3051 30.5404 55.1728 30.4479C54.0405 30.3555 52.905 30.6006 51.9097 31.1523C50.9144 31.704 50.1039 32.5374 49.5806 33.5474C49.0573 34.5574 48.8447 35.6987 48.9696 36.827C49.0945 37.9553 49.5513 39.0202 50.2823 39.887C50.769 40.464 51.3651 40.939 52.0366 41.2847C52.7081 41.6304 53.4418 41.84 54.1955 41.9015C54.9492 41.963 55.7082 41.8752 56.429 41.6431C57.1498 41.4111 57.8182 41.0393 58.396 40.5491V40.5491Z" stroke="#E5A52C" stroke-width="1.54" stroke-miterlimit="10"/>
<path d="M43.0585 79.1987C43.9291 78.4645 44.5632 77.4896 44.8807 76.3972C45.1982 75.3048 45.1847 74.1441 44.842 73.0617C44.4994 71.9794 43.8429 71.0241 42.9556 70.3166C42.0683 69.6091 40.99 69.1813 39.8572 69.0871C38.7243 68.993 37.5877 69.2367 36.5911 69.7876C35.5946 70.3385 34.7828 71.1718 34.2584 72.1821C33.734 73.1923 33.5206 74.3342 33.6451 75.4633C33.7697 76.5924 34.2266 77.6581 34.9581 78.5254C35.9416 79.6846 37.3456 80.406 38.8633 80.5321C40.381 80.6583 41.8892 80.1789 43.0585 79.1987V79.1987Z" stroke="#E5A52C" stroke-width="1.54" stroke-miterlimit="10"/>
<path d="M71.3015 55.7179C72.1721 54.9836 72.8062 54.0087 73.1237 52.9163C73.4411 51.8239 73.4277 50.6632 73.085 49.5809C72.7424 48.4985 72.0859 47.5432 71.1986 46.8357C70.3113 46.1283 69.233 45.7004 68.1001 45.6063C66.9673 45.5121 65.8307 45.7559 64.8341 46.3068C63.8375 46.8577 63.0257 47.691 62.5013 48.7012C61.9769 49.7115 61.7635 50.8534 61.888 51.9825C62.0126 53.1116 62.4695 54.1772 63.201 55.0446C63.6867 55.6205 64.2815 56.0948 64.9515 56.4403C65.6214 56.7858 66.3534 56.9958 67.1056 57.0584C67.8578 57.1209 68.6155 57.0347 69.3354 56.8047C70.0553 56.5747 70.7234 56.2054 71.3015 55.7179V55.7179Z" stroke="#E5A52C" stroke-width="1.54" stroke-miterlimit="10"/>
<path d="M51.2661 60.5801C52.1393 59.8437 52.7753 58.8658 53.0937 57.7702C53.4121 56.6745 53.3987 55.5103 53.055 54.4247C52.7113 53.3391 52.0528 52.3809 51.1628 51.6713C50.2729 50.9617 49.1914 50.5326 48.0551 50.4381C46.9189 50.3437 45.7789 50.5882 44.7793 51.1408C43.7797 51.6933 42.9655 52.5291 42.4395 53.5424C41.9135 54.5557 41.6995 55.701 41.8244 56.8335C41.9493 57.966 42.4076 59.0348 43.1414 59.9048C43.6272 60.4844 44.2232 60.9619 44.8952 61.3098C45.5672 61.6576 46.3019 61.869 47.057 61.9318C47.8121 61.9945 48.5727 61.9074 49.295 61.6755C50.0174 61.4435 50.6873 61.0712 51.2661 60.5801V60.5801Z" stroke="#5CADFF" stroke-width="1.63"/>
<path d="M78.9607 84.3259C72.6234 83.9461 68.5234 79.2455 67.0795 77.5334C56.7586 65.7515 63.743 45.8433 64.3773 44.1815C64.4448 43.5467 64.7459 42.9589 65.2222 42.5322C65.6985 42.1055 66.316 41.8705 66.9544 41.8729C71.9436 43.5761 77.1197 44.6805 82.3739 45.1629C87.7713 45.6125 93.2061 45.3896 98.5533 44.4992C99.1938 44.5627 99.7827 44.8756 100.193 45.3703C100.591 45.8913 100.772 46.5472 100.695 47.2001C101.029 49.8486 103.256 69.6284 91.0513 79.5381C89.2054 81.1849 84.792 84.7493 78.9607 84.3259Z" fill="white" stroke="#F1795C" stroke-width="2.26" stroke-miterlimit="10"/>
<path d="M84.2933 59.4552C84.6866 58.3096 85.4384 57.3199 86.4373 56.6329C87.2652 56.0287 88.2716 55.7198 89.2943 55.756C90.3133 55.6814 91.3276 55.942 92.1822 56.4981C93.2357 57.138 94.0506 58.1043 94.5035 59.2506L94.5464 59.4624C94.613 59.5414 94.5337 59.6083 94.4676 59.664L94.3883 59.7309C93.5613 59.6622 92.7342 59.5934 91.8669 59.4234C90.1598 59.3754 88.4509 59.4173 86.7475 59.549C85.9078 59.6261 85.1368 59.758 84.231 59.8909C84.1517 59.9578 84.0851 59.8787 84.1088 59.746L84.2933 59.4552Z" fill="#E5A52C"/>
<path d="M70.722 69.7288C71.6817 71.2649 72.9806 72.5602 74.5197 73.5158C76.0588 74.4715 77.7973 75.0623 79.6025 75.2432C81.3219 75.345 83.0438 75.0623 84.6427 74.4156C86.2417 73.7689 87.6775 72.7744 88.8456 71.5046" stroke="#5CADFF" stroke-width="1.63" stroke-linecap="round"/>
<path d="M68.6619 56.2088C69.4881 55.2705 70.586 54.6125 71.8022 54.3267C72.7883 54.1128 73.8133 54.1768 74.7631 54.5115C75.7013 54.8333 76.517 55.4355 77.1001 56.2366C77.8413 57.2406 78.2774 58.4374 78.3565 59.6844L78.3439 59.8303C78.4105 59.9093 78.3444 59.965 78.1985 59.9529L78.1318 59.8739C77.4073 59.4708 76.6167 59.1234 75.8921 58.7203C75.1676 58.3171 74.34 58.1136 73.5494 57.7663C72.7626 57.4545 71.9531 57.203 71.1279 57.0139C70.3002 56.8104 69.4858 56.5957 68.6032 56.4611L68.4811 56.3163L68.5604 56.2494L68.6619 56.2088Z" fill="#E5A52C"/>
</svg>
