<svg width="105" height="105" viewBox="0 0 105 105" fill="none" xmlns="http://www.w3.org/2000/svg">
<path d="M26.9355 80.6264C20.2103 74.2911 15.921 65.8009 14.809 56.6232C14.5371 52.9701 14.7854 49.2952 15.5465 45.7082C16.8239 39.8113 19.3078 34.2378 22.8421 29.3378C32.2268 17.0885 50.1829 11.1169 64.5216 15.2676C68.9964 16.5248 73.1141 18.804 76.5498 21.9254C78.4012 23.6043 84.7227 29.4319 85.3218 38.3142C85.5176 41.0221 85.1619 43.7435 84.2764 46.3142C83.2577 49.1848 81.6752 51.8249 79.622 54.0794C74.6076 59.7147 68.0491 62.4001 67.3697 65.9234C67.276 66.6982 67.288 67.4818 67.4053 68.2528C67.6622 69.4295 68.289 70.4923 69.1944 71.2862C69.7571 71.6709 70.3857 71.9497 71.0494 72.1087C72.7062 72.6077 74.2033 73.5284 75.3941 74.7805C76.3063 75.8926 76.7614 77.3101 76.6676 78.7474C76.0225 84.4135 64.3666 87.7503 58.0112 88.6731C54.4323 89.3133 39.3292 91.5762 26.9355 80.6264Z" fill="white" stroke="#F1795C" stroke-width="2.26" stroke-miterlimit="10"/>
<path d="M38.0148 74.3488C39.07 73.6319 39.8897 72.6194 40.3703 71.4393C40.8508 70.2592 40.9706 68.9644 40.7146 67.7188C40.4585 66.4732 39.8381 65.3327 38.9317 64.4415C38.0253 63.5502 36.8738 62.9483 35.6226 62.7119C34.3714 62.4754 33.0769 62.615 31.9026 63.113C30.7284 63.611 29.7272 64.4451 29.0256 65.5097C28.3241 66.5743 27.9537 67.8217 27.9613 69.0941C27.969 70.3665 28.3543 71.6067 29.0685 72.658C29.5427 73.3561 30.1503 73.9535 30.8566 74.4162C31.5628 74.879 32.3539 75.198 33.1846 75.355C34.0154 75.512 34.8695 75.5039 35.6983 75.3313C36.5271 75.1587 37.3142 74.8248 38.0148 74.3488V74.3488Z" stroke="#E5A52C" stroke-width="1.54" stroke-miterlimit="10"/>
<path d="M33.0838 54.4132C34.1415 53.6987 34.9642 52.6877 35.4478 51.508C35.9314 50.3283 36.0541 49.033 35.8004 47.7862C35.5467 46.5394 34.928 45.397 34.0226 44.5037C33.1173 43.6104 31.9659 43.0064 30.7143 42.7682C29.4628 42.5299 28.1673 42.6681 26.9918 43.1652C25.8164 43.6623 24.8139 44.496 24.1113 45.5608C23.4086 46.6255 23.0374 47.8735 23.0446 49.1466C23.0518 50.4197 23.4371 51.6608 24.1517 52.7127C25.1078 54.12 26.585 55.0893 28.2594 55.408C29.9338 55.7268 31.6687 55.3691 33.0838 54.4132Z" stroke="#5CADFF" stroke-width="1.63"/>
<path d="M44.1687 38.0511C45.2264 37.3366 46.0492 36.3255 46.5328 35.1458C47.0164 33.9661 47.1391 32.6709 46.8854 31.424C46.6317 30.1772 46.013 29.0348 45.1076 28.1416C44.2022 27.2483 43.0509 26.6443 41.7993 26.406C40.5477 26.1677 39.2522 26.3059 38.0768 26.803C36.9014 27.3001 35.8989 28.1339 35.1962 29.1986C34.4936 30.2634 34.1223 31.5113 34.1295 32.7845C34.1367 34.0576 34.5221 35.2987 35.2367 36.3506C36.1928 37.7578 37.67 38.7271 39.3444 39.0459C41.0188 39.3647 42.7537 39.0069 44.1687 38.0511Z" stroke="#E5A52C" stroke-width="1.54" stroke-miterlimit="10"/>
<path d="M64.1777 35.1628C65.2329 34.4459 66.0526 33.4334 66.5331 32.2533C67.0137 31.0731 67.1335 29.7784 66.8774 28.5328C66.6214 27.2872 66.0009 26.1467 65.0945 25.2554C64.1882 24.3642 63.0366 23.7623 61.7854 23.5258C60.5343 23.2894 59.2397 23.429 58.0654 23.927C56.8912 24.425 55.89 25.259 55.1885 26.3237C54.4869 27.3883 54.1165 28.6357 54.1242 29.9081C54.1318 31.1805 54.5171 32.4207 55.2313 33.472C56.1891 34.8817 57.6697 35.8519 59.3475 36.1689C61.0253 36.486 62.7627 36.1241 64.1777 35.1628Z" stroke="#5CADFF" stroke-width="1.63"/>
</svg>
