<svg width="70" height="82" viewBox="0 0 70 82" fill="none" xmlns="http://www.w3.org/2000/svg">
<path d="M30.8274 24.01L50.9731 19.0376C52.2666 18.6066 53.4354 17.8673 54.3778 16.884C55.2214 15.9987 55.7831 14.8843 55.9919 13.6819C56.2233 12.6298 56.1326 11.5333 55.7315 10.5343C55.28 9.36743 54.4673 8.37472 53.4112 7.69998C52.8123 7.30725 52.1407 7.03767 51.4357 6.907C50.7306 6.77633 50.0062 6.7872 49.3049 6.93898C48.1956 7.15183 47.2001 7.75676 46.5016 8.6424C45.7237 9.55319 45.1964 10.6495 44.9714 11.8238C44.7129 13.1104 44.7307 14.4366 45.0235 15.7149C45.5464 18.339 46.5395 20.847 47.9552 23.1186C50.9179 27.906 51.9698 29.137 54.2539 32.6901C56.4772 35.9321 58.3434 39.404 59.82 43.0458C60.9322 45.5872 61.6349 48.2883 61.9023 51.0495C62.1578 53.6061 61.9056 56.1888 61.1602 58.6501C60.3641 61.1905 59.0198 63.5271 57.2216 65.4959C53.5191 69.6108 48.62 72.4705 43.2105 73.6744" fill="white"/>
<path d="M30.8274 24.01L50.9731 19.0376C52.2666 18.6066 53.4354 17.8673 54.3778 16.884C55.2214 15.9987 55.7831 14.8843 55.9919 13.6819C56.2233 12.6298 56.1326 11.5333 55.7315 10.5343C55.28 9.36743 54.4673 8.37472 53.4112 7.69998C52.8123 7.30725 52.1407 7.03767 51.4357 6.907C50.7306 6.77633 50.0062 6.7872 49.3049 6.93898C48.1956 7.15183 47.2001 7.75676 46.5016 8.6424C45.7237 9.55319 45.1964 10.6495 44.9714 11.8238C44.7129 13.1104 44.7307 14.4366 45.0235 15.7149C45.5464 18.339 46.5395 20.847 47.9552 23.1186C50.9179 27.906 51.9698 29.137 54.2539 32.6901C56.4772 35.9321 58.3434 39.404 59.82 43.0458C60.9322 45.5872 61.6349 48.2883 61.9023 51.0495C62.1578 53.6061 61.9056 56.1888 61.1602 58.6501C60.3641 61.1905 59.0198 63.5272 57.2216 65.4959C53.5191 69.6108 48.62 72.4705 43.2105 73.6744" stroke="#F1795C" stroke-width="2.26"/>
<path d="M30.8276 24.01L10.7994 28.9535C9.4592 29.1739 8.08574 29.0619 6.80047 28.6273C5.64181 28.2362 4.62609 27.5112 3.88177 26.544C3.18741 25.7205 2.75749 24.7076 2.64768 23.6368C2.47486 22.4157 2.69084 21.1708 3.26522 20.0773C3.61252 19.451 4.08155 18.8999 4.64485 18.4562C5.20815 18.0124 5.85439 17.685 6.54576 17.493C7.62669 17.1653 8.78936 17.2375 9.81975 17.6964C10.9321 18.1406 11.909 18.8657 12.6545 19.8005C13.482 20.819 14.0833 22.0011 14.4189 23.2689C15.1842 25.8348 15.4666 28.5205 15.2521 31.1905C14.8572 36.8067 14.5157 38.3816 14.1472 42.5894C13.6993 46.4864 13.6729 50.4195 14.0684 54.3207C14.2664 57.0878 14.9012 59.8056 15.9493 62.3741C16.9114 64.7686 18.3394 66.949 20.1511 68.7899C22.0368 70.6812 24.3172 72.1356 26.8309 73.0503C32.0229 74.9698 37.69 75.2215 43.0384 73.7701" fill="white"/>
<path d="M30.8276 24.01L10.7994 28.9535C9.4592 29.1739 8.08574 29.0619 6.80047 28.6273C5.64181 28.2362 4.62609 27.5112 3.88177 26.544C3.18741 25.7205 2.75749 24.7076 2.64768 23.6368C2.47486 22.4157 2.69084 21.1708 3.26522 20.0773C3.61252 19.451 4.08155 18.8999 4.64485 18.4562C5.20815 18.0124 5.85439 17.685 6.54576 17.493C7.62669 17.1653 8.78936 17.2375 9.81975 17.6964C10.9321 18.1406 11.909 18.8657 12.6545 19.8005C13.482 20.819 14.0833 22.0011 14.4189 23.2689C15.1842 25.8348 15.4666 28.5205 15.2521 31.1905C14.8572 36.8067 14.5157 38.3816 14.1472 42.5894C13.6993 46.4864 13.6729 50.4195 14.0684 54.3207C14.2664 57.0878 14.9012 59.8056 15.9493 62.3741C16.9114 64.7686 18.3394 66.949 20.1511 68.7899C22.0368 70.6812 24.3172 72.1356 26.8309 73.0503C32.0229 74.9698 37.69 75.2215 43.0384 73.7701" stroke="#F1795C" stroke-width="2.26"/>
<path d="M36.0363 74.8419L34.8947 75.1237C34.7204 75.1716 34.5382 75.1836 34.3593 75.1591C34.1803 75.1345 34.0082 75.0739 33.8536 74.9809C33.699 74.8879 33.5651 74.7645 33.46 74.6181C33.3549 74.4718 33.2808 74.3056 33.2423 74.1297L17.9919 12.3433C17.944 12.1689 17.932 11.9865 17.9565 11.8073C17.9811 11.628 18.0416 11.4554 18.1346 11.2999C18.2276 11.1444 18.3511 11.0091 18.4978 10.9022C18.6444 10.7954 18.8111 10.719 18.9879 10.6778L20.1295 10.3961C20.3051 10.3503 20.4882 10.3402 20.6677 10.3666C20.8472 10.393 21.0195 10.4553 21.1742 10.5497C21.3288 10.644 21.4628 10.7686 21.5679 10.9159C21.673 11.0632 21.7472 11.2301 21.786 11.4068L37.0364 73.1932C37.1138 73.5431 37.053 73.9094 36.8669 74.2163C36.6807 74.5233 36.3833 74.7473 36.0363 74.8419Z" fill="#8C57FC"/>
<path d="M44.5044 74.1536L43.3964 74.4271C43.2221 74.475 43.0399 74.487 42.8609 74.4625C42.682 74.438 42.5099 74.3773 42.3553 74.2843C42.2007 74.1913 42.0668 74.0679 41.9617 73.9215C41.8566 73.7752 41.7825 73.609 41.744 73.4331L25.6431 8.2011C25.5927 8.02743 25.579 7.84518 25.6028 7.66584C25.6265 7.48649 25.6873 7.31395 25.7813 7.15905C25.8752 7.00416 26.0003 6.87028 26.1487 6.76587C26.297 6.66146 26.4654 6.58877 26.6432 6.55239L27.768 6.27476C27.9423 6.22423 28.1252 6.21021 28.3051 6.23361C28.485 6.257 28.658 6.3173 28.8133 6.41068C28.9685 6.50407 29.1026 6.62851 29.2071 6.77619C29.3116 6.92388 29.3842 7.09159 29.4204 7.26876L45.5213 72.5007C45.5695 72.6758 45.5812 72.8589 45.5555 73.0388C45.5298 73.2186 45.4674 73.3914 45.3721 73.5464C45.2768 73.7013 45.1506 73.8352 45.0013 73.9396C44.8521 74.0441 44.6829 74.1169 44.5044 74.1536Z" fill="#E5A52C"/>
<path d="M51.2867 71.4681L52.529 71.1615C52.7055 71.1228 52.8724 71.0487 53.0194 70.9437C53.1664 70.8387 53.2905 70.705 53.3841 70.5507C53.4777 70.3965 53.5388 70.2249 53.5637 70.0464C53.5886 69.868 53.5769 69.6864 53.5291 69.5128L38.2787 7.72637C38.2402 7.55045 38.1661 7.38426 38.061 7.23792C37.9559 7.09157 37.822 6.96812 37.6674 6.87512C37.5128 6.78212 37.3407 6.7215 37.1617 6.69695C36.9827 6.67241 36.8006 6.68447 36.6263 6.73237L35.3839 7.03901C35.2074 7.07771 35.0405 7.1518 34.8935 7.25681C34.7465 7.36182 34.6224 7.49552 34.5288 7.64978C34.4353 7.80404 34.3742 7.97563 34.3492 8.15407C34.3243 8.33251 34.3361 8.51408 34.3838 8.68772L49.6343 70.4741C49.6728 70.65 49.7468 70.8162 49.8519 70.9626C49.957 71.1089 50.091 71.2324 50.2456 71.3254C50.4002 71.4184 50.5722 71.479 50.7512 71.5035C50.9302 71.5281 51.1124 71.516 51.2867 71.4681Z" fill="#8C57FC"/>
</svg>
