<svg width="15" height="14" viewBox="0 0 15 14" fill="none" xmlns="http://www.w3.org/2000/svg">
<path d="M0.113082 5.13019C-0.0908484 4.89489 -0.0111819 4.64241 0.289452 4.56664L14.4027 1.0097C14.7041 0.933759 14.8065 1.08129 14.6325 1.33788L6.46306 13.3835C6.28863 13.6407 6.02471 13.6289 5.87317 13.3565L3.69338 9.43759C3.54202 9.16548 3.25426 8.75444 3.05008 8.51886L0.113082 5.13019ZM3.73936 7.15997C3.84156 7.27789 4.04184 7.32771 4.18795 7.27076L7.32291 6.04861C7.6129 5.93556 7.68245 6.03235 7.47605 6.26731L5.25538 8.79521C5.15229 8.91257 5.12973 9.11742 5.20606 9.25464L6.12871 10.9134C6.20457 11.0498 6.33678 11.0561 6.42289 10.9291L11.5451 3.37661C11.6317 3.2489 11.5797 3.17617 11.431 3.21366L2.58206 5.44383C2.43244 5.48154 2.39336 5.60697 2.4962 5.72563L3.73936 7.15997Z" fill="#333333"/>
</svg>
